<svg width="2277" height="195" viewBox="0 0 2277 195" fill="none" xmlns="http://www.w3.org/2000/svg">
<path d="M64.7926 62.6C64.7926 71.6 60.7426 75.05 52.4926 75.05L40.0426 75.05L40.0426 50.15L52.4926 50.15C60.7426 50.15 64.7926 53.6 64.7926 62.6ZM56.9926 147.5C84.5926 147.5 99.7426 135.8 99.7426 111.8C99.7426 98.3 91.9426 88.55 79.4926 84.5C89.9926 80.75 96.4426 72.8 96.4426 60.05C96.4426 38.45 82.7926 26.75 55.7926 26.75L7.49258 26.75L7.49258 147.5L56.9926 147.5ZM67.1926 110.15C67.1926 119.9 63.1426 124.1 54.2926 124.1L40.0426 124.1L40.0426 96.2L54.2926 96.2C63.1426 96.2 67.1926 100.4 67.1926 110.15ZM177.361 87.05C177.361 103.55 176.161 111.8 172.561 117.35C169.411 121.85 165.211 123.8 159.361 123.8C153.511 123.8 149.461 121.85 146.311 117.35C142.561 111.8 141.361 103.55 141.361 87.05C141.361 70.85 142.561 62.45 146.311 57.05C149.461 52.55 153.511 50.6 159.361 50.6C165.211 50.6 169.411 52.55 172.561 57.05C176.161 62.45 177.361 70.85 177.361 87.05ZM209.911 87.05C209.911 66.65 206.611 50.45 196.861 39.2C188.311 29.45 175.561 24.65 159.361 24.65C143.161 24.65 130.561 29.45 122.011 39.2C112.111 50.45 108.811 66.65 108.811 87.05C108.811 107.75 112.111 123.8 122.011 135.05C130.561 144.8 143.161 149.6 159.361 149.6C175.561 149.6 188.311 144.8 196.861 135.05C206.611 123.8 209.911 107.75 209.911 87.05ZM269.632 147.5C308.032 147.5 318.832 124.85 318.832 87.05C318.832 49.85 308.182 26.75 269.632 26.75L222.532 26.75L222.532 147.5L269.632 147.5ZM286.432 87.05C286.432 116.45 281.332 122.75 268.582 122.75L255.082 122.75L255.082 51.5L268.582 51.5C280.732 51.5 286.432 57.2 286.432 87.05ZM360.972 26.75L322.872 147.5L355.422 147.5L360.372 128.15L394.122 128.15L399.072 147.5L431.772 147.5L393.672 26.75L360.972 26.75ZM387.972 103.85L366.522 103.85L377.322 61.85L387.972 103.85Z" fill="#EFEFEF"/>
<path d="M986.793 62.6C986.793 71.6 982.743 75.05 974.493 75.05L962.043 75.05V50.15L974.493 50.15C982.743 50.15 986.793 53.6 986.793 62.6ZM978.993 147.5C1006.59 147.5 1021.74 135.8 1021.74 111.8C1021.74 98.3 1013.94 88.55 1001.49 84.5C1011.99 80.75 1018.44 72.8 1018.44 60.05C1018.44 38.45 1004.79 26.75 977.793 26.75L929.493 26.75L929.493 147.5L978.993 147.5ZM989.193 110.15C989.193 119.9 985.143 124.1 976.293 124.1L962.043 124.1V96.2L976.293 96.2C985.143 96.2 989.193 100.4 989.193 110.15ZM1099.36 87.05C1099.36 103.55 1098.16 111.8 1094.56 117.35C1091.41 121.85 1087.21 123.8 1081.36 123.8C1075.51 123.8 1071.46 121.85 1068.31 117.35C1064.56 111.8 1063.36 103.55 1063.36 87.05C1063.36 70.85 1064.56 62.45 1068.31 57.05C1071.46 52.55 1075.51 50.6 1081.36 50.6C1087.21 50.6 1091.41 52.55 1094.56 57.05C1098.16 62.45 1099.36 70.85 1099.36 87.05ZM1131.91 87.05C1131.91 66.65 1128.61 50.45 1118.86 39.2C1110.31 29.45 1097.56 24.65 1081.36 24.65C1065.16 24.65 1052.56 29.45 1044.01 39.2C1034.11 50.45 1030.81 66.65 1030.81 87.05C1030.81 107.75 1034.11 123.8 1044.01 135.05C1052.56 144.8 1065.16 149.6 1081.36 149.6C1097.56 149.6 1110.31 144.8 1118.86 135.05C1128.61 123.8 1131.91 107.75 1131.91 87.05ZM1191.63 147.5C1230.03 147.5 1240.83 124.85 1240.83 87.05C1240.83 49.85 1230.18 26.75 1191.63 26.75L1144.53 26.75L1144.53 147.5L1191.63 147.5ZM1208.43 87.05C1208.43 116.45 1203.33 122.75 1190.58 122.75L1177.08 122.75L1177.08 51.5L1190.58 51.5C1202.73 51.5 1208.43 57.2 1208.43 87.05ZM1282.97 26.75L1244.87 147.5L1277.42 147.5L1282.37 128.15L1316.12 128.15L1321.07 147.5L1353.77 147.5L1315.67 26.75L1282.97 26.75ZM1309.97 103.85L1288.52 103.85L1299.32 61.85L1309.97 103.85Z" fill="#EFEFEF"/>
<path d="M525.793 62.6C525.793 71.6 521.743 75.05 513.493 75.05L501.043 75.05V50.15L513.493 50.15C521.743 50.15 525.793 53.6 525.793 62.6ZM517.993 147.5C545.593 147.5 560.743 135.8 560.743 111.8C560.743 98.3 552.943 88.55 540.493 84.5C550.993 80.75 557.443 72.8 557.443 60.05C557.443 38.45 543.793 26.75 516.793 26.75L468.493 26.75L468.493 147.5L517.993 147.5ZM528.193 110.15C528.193 119.9 524.143 124.1 515.293 124.1L501.043 124.1L501.043 96.2L515.293 96.2C524.143 96.2 528.193 100.4 528.193 110.15ZM638.361 87.05C638.361 103.55 637.161 111.8 633.561 117.35C630.411 121.85 626.211 123.8 620.361 123.8C614.511 123.8 610.461 121.85 607.311 117.35C603.561 111.8 602.361 103.55 602.361 87.05C602.361 70.85 603.561 62.45 607.311 57.05C610.461 52.55 614.511 50.6 620.361 50.6C626.211 50.6 630.411 52.55 633.561 57.05C637.161 62.45 638.361 70.85 638.361 87.05ZM670.911 87.05C670.911 66.65 667.611 50.45 657.861 39.2C649.311 29.45 636.561 24.65 620.361 24.65C604.161 24.65 591.561 29.45 583.011 39.2C573.111 50.45 569.811 66.65 569.811 87.05C569.811 107.75 573.111 123.8 583.011 135.05C591.561 144.8 604.161 149.6 620.361 149.6C636.561 149.6 649.311 144.8 657.861 135.05C667.611 123.8 670.911 107.75 670.911 87.05ZM730.632 147.5C769.032 147.5 779.832 124.85 779.832 87.05C779.832 49.85 769.182 26.75 730.632 26.75L683.532 26.75L683.532 147.5L730.632 147.5ZM747.432 87.05C747.432 116.45 742.332 122.75 729.582 122.75L716.082 122.75L716.082 51.5L729.582 51.5C741.732 51.5 747.432 57.2 747.432 87.05ZM821.972 26.75L783.872 147.5L816.422 147.5L821.372 128.15L855.122 128.15L860.072 147.5L892.772 147.5L854.672 26.75L821.972 26.75ZM848.972 103.85L827.522 103.85L838.322 61.85L848.972 103.85Z" fill="#EFEFEF"/>
<path d="M1447.79 62.6C1447.79 71.6 1443.74 75.05 1435.49 75.05L1423.04 75.05L1423.04 50.15L1435.49 50.15C1443.74 50.15 1447.79 53.6 1447.79 62.6ZM1439.99 147.5C1467.59 147.5 1482.74 135.8 1482.74 111.8C1482.74 98.3 1474.94 88.55 1462.49 84.5C1472.99 80.75 1479.44 72.8 1479.44 60.05C1479.44 38.45 1465.79 26.75 1438.79 26.75L1390.49 26.75L1390.49 147.5L1439.99 147.5ZM1450.19 110.15C1450.19 119.9 1446.14 124.1 1437.29 124.1L1423.04 124.1V96.2L1437.29 96.2C1446.14 96.2 1450.19 100.4 1450.19 110.15ZM1560.36 87.05C1560.36 103.55 1559.16 111.8 1555.56 117.35C1552.41 121.85 1548.21 123.8 1542.36 123.8C1536.51 123.8 1532.46 121.85 1529.31 117.35C1525.56 111.8 1524.36 103.55 1524.36 87.05C1524.36 70.85 1525.56 62.45 1529.31 57.05C1532.46 52.55 1536.51 50.6 1542.36 50.6C1548.21 50.6 1552.41 52.55 1555.56 57.05C1559.16 62.45 1560.36 70.85 1560.36 87.05ZM1592.91 87.05C1592.91 66.65 1589.61 50.45 1579.86 39.2C1571.31 29.45 1558.56 24.65 1542.36 24.65C1526.16 24.65 1513.56 29.45 1505.01 39.2C1495.11 50.45 1491.81 66.65 1491.81 87.05C1491.81 107.75 1495.11 123.8 1505.01 135.05C1513.56 144.8 1526.16 149.6 1542.36 149.6C1558.56 149.6 1571.31 144.8 1579.86 135.05C1589.61 123.8 1592.91 107.75 1592.91 87.05ZM1652.63 147.5C1691.03 147.5 1701.83 124.85 1701.83 87.05C1701.83 49.85 1691.18 26.75 1652.63 26.75L1605.53 26.75L1605.53 147.5L1652.63 147.5ZM1669.43 87.05C1669.43 116.45 1664.33 122.75 1651.58 122.75L1638.08 122.75L1638.08 51.5L1651.58 51.5C1663.73 51.5 1669.43 57.2 1669.43 87.05ZM1743.97 26.75L1705.87 147.5L1738.42 147.5L1743.37 128.15L1777.12 128.15L1782.07 147.5L1814.77 147.5L1776.67 26.75L1743.97 26.75ZM1770.97 103.85L1749.52 103.85L1760.32 61.85L1770.97 103.85Z" fill="#EFEFEF"/>
<path d="M1908.79 62.6C1908.79 71.6 1904.74 75.05 1896.49 75.05L1884.04 75.05L1884.04 50.15L1896.49 50.15C1904.74 50.15 1908.79 53.6 1908.79 62.6ZM1900.99 147.5C1928.59 147.5 1943.74 135.8 1943.74 111.8C1943.74 98.3 1935.94 88.55 1923.49 84.5C1933.99 80.75 1940.44 72.8 1940.44 60.05C1940.44 38.45 1926.79 26.75 1899.79 26.75L1851.49 26.75L1851.49 147.5L1900.99 147.5ZM1911.19 110.15C1911.19 119.9 1907.14 124.1 1898.29 124.1L1884.04 124.1V96.2L1898.29 96.2C1907.14 96.2 1911.19 100.4 1911.19 110.15ZM2021.36 87.05C2021.36 103.55 2020.16 111.8 2016.56 117.35C2013.41 121.85 2009.21 123.8 2003.36 123.8C1997.51 123.8 1993.46 121.85 1990.31 117.35C1986.56 111.8 1985.36 103.55 1985.36 87.05C1985.36 70.85 1986.56 62.45 1990.31 57.05C1993.46 52.55 1997.51 50.6 2003.36 50.6C2009.21 50.6 2013.41 52.55 2016.56 57.05C2020.16 62.45 2021.36 70.85 2021.36 87.05ZM2053.91 87.05C2053.91 66.65 2050.61 50.45 2040.86 39.2C2032.31 29.45 2019.56 24.65 2003.36 24.65C1987.16 24.65 1974.56 29.45 1966.01 39.2C1956.11 50.45 1952.81 66.65 1952.81 87.05C1952.81 107.75 1956.11 123.8 1966.01 135.05C1974.56 144.8 1987.16 149.6 2003.36 149.6C2019.56 149.6 2032.31 144.8 2040.86 135.05C2050.61 123.8 2053.91 107.75 2053.91 87.05ZM2113.63 147.5C2152.03 147.5 2162.83 124.85 2162.83 87.05C2162.83 49.85 2152.18 26.75 2113.63 26.75L2066.53 26.75L2066.53 147.5L2113.63 147.5ZM2130.43 87.05C2130.43 116.45 2125.33 122.75 2112.58 122.75L2099.08 122.75V51.5L2112.58 51.5C2124.73 51.5 2130.43 57.2 2130.43 87.05ZM2204.97 26.75L2166.87 147.5L2199.42 147.5L2204.37 128.15L2238.12 128.15L2243.07 147.5L2275.77 147.5L2237.67 26.75L2204.97 26.75ZM2231.97 103.85L2210.52 103.85L2221.32 61.85L2231.97 103.85Z" fill="#EFEFEF"/>
</svg>
