<svg width="24" height="24" viewBox="0 0 24 24" fill="none" xmlns="http://www.w3.org/2000/svg">
<g clip-path="url(#clip0_396_74)">
<rect width="24" height="24" rx="5" fill="#FF7D7D"/>
<path d="M5 10.75C4.30964 10.75 3.75 11.3096 3.75 12C3.75 12.6904 4.30964 13.25 5 13.25V10.75ZM20.8839 12.8839C21.372 12.3957 21.372 11.6043 20.8839 11.1161L12.9289 3.16117C12.4408 2.67301 11.6493 2.67301 11.1612 3.16117C10.673 3.64932 10.673 4.44078 11.1612 4.92893L18.2322 12L11.1612 19.0711C10.673 19.5592 10.673 20.3507 11.1612 20.8388C11.6493 21.327 12.4408 21.327 12.9289 20.8388L20.8839 12.8839ZM5 13.25H20V10.75H5V13.25Z" fill="white"/>
</g>
<defs>
<clipPath id="clip0_396_74">
<rect width="24" height="24" rx="5" fill="white"/>
</clipPath>
</defs>
</svg>
