<svg width="91" height="30" viewBox="0 0 91 30" fill="none" xmlns="http://www.w3.org/2000/svg">
<rect width="91" height="30" rx="15" fill="#FFC738" fill-opacity="0.86"/>
<path d="M26.0191 15.06C28.5991 15.84 29.3391 16.18 29.3391 17.32C29.3391 18.84 27.6791 19.38 25.9591 19.32C24.1591 19.26 22.5591 18.8 21.4991 18.12L21.2191 20.06C22.1191 20.62 24.2791 21.18 25.8191 21.18C28.7591 21.18 31.3791 20.26 31.3791 17.34C31.3791 14.88 29.0991 14.06 26.8991 13.48C25.2591 13.06 23.4591 12.48 23.4591 10.98C23.4591 9.54 25.0991 9.14 26.3991 9.14C27.5791 9.14 29.0191 9.64 29.8191 9.98L30.1191 8.1C29.0591 7.68 27.6991 7.28 26.2191 7.28C23.8791 7.28 21.4191 8.48 21.4191 10.98C21.4191 13.72 24.0391 14.46 26.0191 15.06ZM39.6025 15.62C39.6025 17.66 39.1825 19.44 37.0625 19.44C35.1825 19.44 34.7825 17.32 34.7825 15.66C34.7825 13.96 35.3625 12.3 37.2225 12.3C38.9825 12.3 39.6025 13.82 39.6025 15.62ZM39.6025 12.18C39.1425 11.28 38.0425 10.62 36.8025 10.62C33.8425 10.62 32.8425 13.1 32.8425 15.82C32.8425 18.4 33.7425 21.14 36.7225 21.14C37.9225 21.14 39.1025 20.54 39.6025 19.58V24.82H41.5225V13.44C41.5025 12.9 41.5825 11.44 41.6425 10.92H39.6625L39.6425 12.14L39.6025 12.18ZM50.66 19.76L50.68 21H52.64C52.58 20.14 52.46 19.06 52.46 18.38V10.92H50.62V16.56C50.62 18.12 49.94 19.46 48.28 19.46C46.92 19.46 46.3 18.7 46.3 17.26V10.92H44.38V17.04C44.38 18.26 44.36 21.14 47.88 21.14C49.22 21.14 50.26 20.48 50.62 19.76H50.66ZM55.7556 21H57.6756V10.92H55.7556V21ZM55.6556 6.52V8.62H57.7556V6.52H55.6556ZM66.9253 15.7C66.9253 17.74 66.3853 19.44 64.3653 19.44C62.4653 19.44 62.1653 17.36 62.1653 15.7C62.1653 13.98 62.6453 12.3 64.5253 12.3C66.4053 12.3 66.9253 13.9 66.9253 15.7ZM66.9253 12.22C66.2853 11.04 65.0653 10.62 64.1053 10.62C61.3453 10.62 60.2253 13.08 60.2253 15.76C60.2253 18.36 61.1453 21.14 64.1053 21.14C65.3453 21.14 66.4453 20.42 66.9653 19.48L67.0053 19.58L67.0253 21H69.0053C68.9653 20.42 68.8853 19.08 68.8853 18.46V6.52H66.9653V12.18L66.9253 12.22Z" fill="#555555"/>
</svg>
