<svg width="300" height="36" viewBox="0 0 300 36" fill="none" xmlns="http://www.w3.org/2000/svg">
<rect width="300" height="36" fill="#FFBEBE"/>
<circle cx="18" cy="18" r="18" fill="white"/>
<path d="M18.9836 19.4176V25.6233H16.1329V19.4176H13.7646V16.9014H16.1329V15.9858C16.1329 12.587 17.5528 10.7998 20.5569 10.7998C21.4779 10.7998 21.7082 10.9478 22.2125 11.0684V13.5573C21.6479 13.4586 21.4889 13.4038 20.9023 13.4038C20.2061 13.4038 19.8333 13.6011 19.4934 13.9904C19.1535 14.3796 18.9836 15.0539 18.9836 16.0187V16.9068H22.2125L21.3464 19.4231H18.9836V19.4176Z" fill="white"/>
<circle cx="68" cy="18" r="18" fill="white"/>
<path d="M68.9836 19.4176V25.6233H66.1329V19.4176H63.7646V16.9014H66.1329V15.9858C66.1329 12.587 67.5528 10.7998 70.5569 10.7998C71.4779 10.7998 71.7082 10.9478 72.2125 11.0684V13.5573C71.6479 13.4586 71.4889 13.4038 70.9023 13.4038C70.2061 13.4038 69.8333 13.6011 69.4934 13.9904C69.1535 14.3796 68.9836 15.0539 68.9836 16.0187V16.9068H72.2125L71.3464 19.4231H68.9836V19.4176Z" fill="white"/>
<circle cx="118" cy="18" r="18" fill="white"/>
<path d="M118.984 19.4176V25.6233H116.133V19.4176H113.765V16.9014H116.133V15.9858C116.133 12.587 117.553 10.7998 120.557 10.7998C121.478 10.7998 121.708 10.9478 122.213 11.0684V13.5573C121.648 13.4586 121.489 13.4038 120.902 13.4038C120.206 13.4038 119.833 13.6011 119.493 13.9904C119.154 14.3796 118.984 15.0539 118.984 16.0187V16.9068H122.213L121.346 19.4231H118.984V19.4176Z" fill="white"/>
<circle cx="168" cy="18" r="18" fill="white"/>
<path d="M168.984 19.4176V25.6233H166.133V19.4176H163.765V16.9014H166.133V15.9858C166.133 12.587 167.553 10.7998 170.557 10.7998C171.478 10.7998 171.708 10.9478 172.213 11.0684V13.5573C171.648 13.4586 171.489 13.4038 170.902 13.4038C170.206 13.4038 169.833 13.6011 169.493 13.9904C169.154 14.3796 168.984 15.0539 168.984 16.0187V16.9068H172.213L171.346 19.4231H168.984V19.4176Z" fill="white"/>
<circle cx="218" cy="18" r="18" fill="white"/>
<path d="M218.984 19.4176V25.6233H216.133V19.4176H213.765V16.9014H216.133V15.9858C216.133 12.587 217.553 10.7998 220.557 10.7998C221.478 10.7998 221.708 10.9478 222.213 11.0684V13.5573C221.648 13.4586 221.489 13.4038 220.902 13.4038C220.206 13.4038 219.833 13.6011 219.493 13.9904C219.154 14.3796 218.984 15.0539 218.984 16.0187V16.9068H222.213L221.346 19.4231H218.984V19.4176Z" fill="white"/>
<path d="M19.4134 19.6272V28H15.364V19.6272H12V16.2322H15.364V14.997C15.364 10.4112 17.3809 8 21.6483 8C22.9565 8 23.2836 8.1997 24 8.36243V11.7204C23.1979 11.5873 22.9721 11.5133 22.1389 11.5133C21.1499 11.5133 20.6204 11.7796 20.1376 12.3047C19.6548 12.8299 19.4134 13.7396 19.4134 15.0414V16.2396H24L22.7696 19.6346H19.4134V19.6272Z" fill="#888888"/>
<g clip-path="url(#clip0_3_744)">
<path d="M65.2918 27.1251C72.8371 27.1251 76.9652 20.8724 76.9652 15.4517C76.9652 15.2759 76.9613 15.0962 76.9535 14.9204C77.7566 14.3397 78.4496 13.6203 79 12.7962C78.2521 13.129 77.458 13.3463 76.6449 13.4407C77.5011 12.9275 78.1421 12.1213 78.4492 11.1716C77.6438 11.6489 76.763 11.9856 75.8445 12.1673C75.2257 11.5098 74.4075 11.0744 73.5164 10.9285C72.6253 10.7826 71.711 10.9343 70.9148 11.3602C70.1186 11.7861 69.4848 12.4624 69.1115 13.2845C68.7382 14.1067 68.6462 15.029 68.8496 15.9087C67.2187 15.8269 65.6233 15.4032 64.1667 14.6652C62.71 13.9272 61.4247 12.8913 60.3941 11.6247C59.8703 12.5278 59.71 13.5965 59.9459 14.6135C60.1817 15.6306 60.7959 16.5197 61.6637 17.1001C61.0122 17.0794 60.375 16.904 59.8047 16.5884V16.6392C59.8041 17.5869 60.1317 18.5056 60.7319 19.2391C61.3321 19.9726 62.1678 20.4756 63.0969 20.6626C62.4934 20.8277 61.86 20.8518 61.2457 20.7329C61.5079 21.548 62.018 22.2609 62.7048 22.7721C63.3916 23.2833 64.2209 23.5673 65.077 23.5845C63.6237 24.726 61.8285 25.3452 59.9805 25.3423C59.6527 25.3418 59.3253 25.3217 59 25.2821C60.8774 26.4866 63.0613 27.1263 65.2918 27.1251Z" fill="#888888"/>
</g>
<path d="M118 9.80078C120.672 9.80078 120.988 9.8125 122.039 9.85937C123.016 9.90234 123.543 10.0664 123.895 10.2031C124.359 10.3828 124.695 10.6016 125.043 10.9492C125.395 11.3008 125.609 11.6328 125.789 12.0977C125.926 12.4492 126.09 12.9805 126.133 13.9531C126.18 15.0078 126.191 15.3242 126.191 17.9922C126.191 20.6641 126.18 20.9805 126.133 22.0313C126.09 23.0078 125.926 23.5352 125.789 23.8867C125.609 24.3516 125.391 24.6875 125.043 25.0352C124.691 25.3867 124.359 25.6016 123.895 25.7813C123.543 25.918 123.012 26.082 122.039 26.125C120.984 26.1719 120.668 26.1836 118 26.1836C115.328 26.1836 115.012 26.1719 113.961 26.125C112.984 26.082 112.457 25.918 112.105 25.7813C111.641 25.6016 111.305 25.3828 110.957 25.0352C110.605 24.6836 110.391 24.3516 110.211 23.8867C110.074 23.5352 109.91 23.0039 109.867 22.0313C109.82 20.9766 109.809 20.6602 109.809 17.9922C109.809 15.3203 109.82 15.0039 109.867 13.9531C109.91 12.9766 110.074 12.4492 110.211 12.0977C110.391 11.6328 110.609 11.2969 110.957 10.9492C111.309 10.5977 111.641 10.3828 112.105 10.2031C112.457 10.0664 112.988 9.90234 113.961 9.85937C115.012 9.8125 115.328 9.80078 118 9.80078ZM118 8C115.285 8 114.945 8.01172 113.879 8.05859C112.816 8.10547 112.086 8.27734 111.453 8.52344C110.793 8.78125 110.234 9.12109 109.68 9.67969C109.121 10.2344 108.781 10.793 108.523 11.4492C108.277 12.0859 108.105 12.8125 108.059 13.875C108.012 14.9453 108 15.2852 108 18C108 20.7148 108.012 21.0547 108.059 22.1211C108.105 23.1836 108.277 23.9141 108.523 24.5469C108.781 25.207 109.121 25.7656 109.68 26.3203C110.234 26.875 110.793 27.2188 111.449 27.4727C112.086 27.7188 112.813 27.8906 113.875 27.9375C114.941 27.9844 115.281 27.9961 117.996 27.9961C120.711 27.9961 121.051 27.9844 122.117 27.9375C123.18 27.8906 123.91 27.7188 124.543 27.4727C125.199 27.2188 125.758 26.875 126.313 26.3203C126.867 25.7656 127.211 25.207 127.465 24.5508C127.711 23.9141 127.883 23.1875 127.93 22.125C127.977 21.0586 127.988 20.7188 127.988 18.0039C127.988 15.2891 127.977 14.9492 127.93 13.8828C127.883 12.8203 127.711 12.0898 127.465 11.457C127.219 10.793 126.879 10.2344 126.32 9.67969C125.766 9.125 125.207 8.78125 124.551 8.52734C123.914 8.28125 123.188 8.10938 122.125 8.0625C121.055 8.01172 120.715 8 118 8Z" fill="#888888"/>
<path d="M118 12.8633C115.164 12.8633 112.863 15.1641 112.863 18C112.863 20.8359 115.164 23.1367 118 23.1367C120.836 23.1367 123.137 20.8359 123.137 18C123.137 15.1641 120.836 12.8633 118 12.8633ZM118 21.332C116.16 21.332 114.668 19.8398 114.668 18C114.668 16.1602 116.16 14.668 118 14.668C119.84 14.668 121.332 16.1602 121.332 18C121.332 19.8398 119.84 21.332 118 21.332Z" fill="#888888"/>
<path d="M124.539 12.6602C124.539 13.3242 124 13.8594 123.34 13.8594C122.676 13.8594 122.141 13.3203 122.141 12.6602C122.141 11.9961 122.68 11.4609 123.34 11.4609C124 11.4609 124.539 12 124.539 12.6602Z" fill="#888888"/>
<path d="M177.801 14C177.801 14 177.605 12.6211 177.004 12.0156C176.242 11.2188 175.391 11.2148 175 11.168C172.203 10.9648 168.004 10.9648 168.004 10.9648H167.996C167.996 10.9648 163.797 10.9648 161 11.168C160.609 11.2148 159.758 11.2188 158.996 12.0156C158.395 12.6211 158.203 14 158.203 14C158.203 14 158 15.6211 158 17.2383V18.7539C158 20.3711 158.199 21.9922 158.199 21.9922C158.199 21.9922 158.395 23.3711 158.992 23.9766C159.754 24.7734 160.754 24.7461 161.199 24.832C162.801 24.9844 168 25.0313 168 25.0313C168 25.0313 172.203 25.0234 175 24.8242C175.391 24.7773 176.242 24.7734 177.004 23.9766C177.605 23.3711 177.801 21.9922 177.801 21.9922C177.801 21.9922 178 20.375 178 18.7539V17.2383C178 15.6211 177.801 14 177.801 14ZM165.934 20.5938V14.9727L171.336 17.793L165.934 20.5938Z" fill="#888888"/>
<g clip-path="url(#clip1_3_744)">
<path d="M218 9.99997L214.8 13.2L216.4 14.8L219.6 11.6C220.92 10.28 223.08 10.28 224.4 11.6C225.72 12.92 225.72 15.08 224.4 16.4L221.2 19.6L222.8 21.2L226 18C228.208 15.792 228.208 12.208 226 9.99997C223.792 7.79196 220.208 7.79196 218 9.99997ZM219.6 21.2L216.4 24.4C215.08 25.72 212.92 25.72 211.6 24.4C210.28 23.08 210.28 20.92 211.6 19.6L214.8 16.4L213.2 14.8L210 18C207.792 20.208 207.792 23.792 210 26C212.208 28.208 215.792 28.208 218 26L221.2 22.8L219.6 21.2ZM214 20.4L220.4 14L222 15.6L215.6 22L214 20.4Z" fill="#888888"/>
</g>
<defs>
<clipPath id="clip0_3_744">
<rect width="20" height="20" fill="white" transform="translate(59 9)"/>
</clipPath>
<clipPath id="clip1_3_744">
<rect width="24" height="24" fill="white" transform="translate(206 6)"/>
</clipPath>
</defs>
</svg>
