<svg width="40" height="40" viewBox="0 0 40 40" fill="none" xmlns="http://www.w3.org/2000/svg">
<circle cx="20" cy="20" r="20" fill="black"/>
<path d="M15.4839 17.4161H12.0423V28.3913H15.4839V17.4161Z" fill="white"/>
<path d="M24.7937 17.1782C24.6668 17.1624 24.532 17.1544 24.3972 17.1465C22.4702 17.0672 21.3838 18.2091 21.0032 18.7008C20.9001 18.8356 20.8525 18.9149 20.8525 18.9149V17.4478H17.5616V28.423H20.8525H21.0032C21.0032 27.3048 21.0032 26.1946 21.0032 25.0765C21.0032 24.4738 21.0032 23.8711 21.0032 23.2685C21.0032 22.523 20.9477 21.73 21.3204 21.0481C21.6376 20.4771 22.2085 20.1916 22.8509 20.1916C24.7541 20.1916 24.7937 21.9124 24.7937 22.071C24.7937 22.079 24.7937 22.0869 24.7937 22.0869V28.4705H28.2353V21.3098C28.2353 18.8594 26.9903 17.4161 24.7937 17.1782Z" fill="white"/>
<path d="M13.7631 15.9967C14.8667 15.9967 15.7614 15.102 15.7614 13.9984C15.7614 12.8947 14.8667 12 13.7631 12C12.6594 12 11.7647 12.8947 11.7647 13.9984C11.7647 15.102 12.6594 15.9967 13.7631 15.9967Z" fill="white"/>
</svg>
