<svg width="40" height="40" viewBox="0 0 40 40" fill="none" xmlns="http://www.w3.org/2000/svg">
<circle cx="20" cy="20" r="20" fill="black"/>
<path d="M12 25.2707C13.7414 25.3687 15.2642 24.9616 16.7493 23.8836C15.2491 23.6273 14.2088 22.9413 13.6434 21.5241C14.0806 21.4637 14.4651 21.5768 14.9174 21.3959C13.4399 20.7476 12.4825 19.7751 12.4448 18.094C12.9122 18.1317 13.2665 18.4408 13.8243 18.3956C12.4674 17.0688 12.0528 15.6214 12.9046 13.8649C14.3219 15.4932 15.9803 16.6014 18.0082 17.1216C18.1213 17.1517 18.2268 17.1819 18.3399 17.2045C18.86 17.3251 19.4782 17.5814 19.7948 17.5437C20.3376 17.4759 19.7948 16.8502 19.9305 16.036C20.3602 13.5031 23.1495 12.3497 25.215 13.8348C25.8181 14.272 26.293 14.2645 26.8886 14.0006C27.1976 13.8649 27.5143 13.7292 27.8836 13.5709C27.8007 14.2946 27.2429 14.6942 26.7981 15.2294C27.3032 15.3425 27.7103 15.1992 28.1776 15.0485C28.0193 15.5686 27.6273 15.8626 27.273 16.1491C26.9036 16.4431 26.7604 16.7522 26.7453 17.2346C26.5192 24.5395 18.2193 30.1858 12.5428 25.6928C11.9925 25.2556 12.5277 25.6928 12 25.2707Z" fill="white"/>
</svg>
