<svg width="216" height="247" viewBox="0 0 216 247" fill="none" xmlns="http://www.w3.org/2000/svg">
<path d="M144.092 11.9811C143.492 13.4142 143.075 14.879 143.385 16.2388C143.657 17.4003 144.429 18.3466 145.927 18.9746C148.328 19.9816 150.373 19.1237 151.38 17.0109L149.495 16.2205C148.911 17.4328 147.869 17.8914 146.603 17.3608C145.855 17.0467 145.444 16.5407 145.314 15.9093C145.178 15.1843 145.322 14.3338 145.977 12.7716C146.622 11.2352 147.133 10.5235 147.74 10.1253C148.281 9.77551 148.93 9.71345 149.679 10.0275C150.944 10.5581 151.347 11.623 150.892 12.8895L152.777 13.68C153.578 11.4806 152.762 9.40777 150.361 8.40073C148.863 7.77268 147.642 7.89804 146.623 8.51817C145.435 9.24991 144.688 10.561 144.092 11.9811ZM151.297 21.014L157.584 23.6507L158.261 22.0368L153.871 20.196L157.477 11.5975L155.579 10.8016L151.297 21.014ZM164.79 14.6641L162.892 13.8682L158.609 24.0806L160.507 24.8765L164.79 14.6641ZM164.076 20.3615C163.475 21.7946 163.058 23.2594 163.369 24.6191C163.641 25.7807 164.413 26.7269 165.91 27.355C168.312 28.362 170.357 27.5041 171.364 25.3913L169.479 24.6008C168.895 25.8132 167.853 26.2717 166.587 25.7411C165.838 25.4271 165.428 24.9211 165.298 24.2897C165.162 23.5646 165.306 22.7142 165.961 21.152C166.606 19.6156 167.117 18.9039 167.724 18.5057C168.265 18.1559 168.914 18.0938 169.663 18.4079C170.928 18.9384 171.331 20.0034 170.876 21.2699L172.761 22.0603C173.562 19.8609 172.746 17.7881 170.345 16.7811C168.847 16.1531 167.626 16.2784 166.606 16.8985C165.419 17.6303 164.672 18.9413 164.076 20.3615ZM182.961 22.2843L180.908 21.4234L176.675 24.567L175.707 24.1609L177.461 19.9779L175.563 19.182L171.28 29.3943L173.178 30.1902L175.035 25.7619L176.004 26.1679L177.026 31.8037L179.104 32.6753L177.868 25.9934L182.961 22.2843ZM184.022 34.7378L185.817 35.4904L186.526 33.7991L184.732 33.0465L184.022 34.7378ZM185.411 31.9345L186.857 32.5409L189.39 26.9693L190.1 25.278L188.305 24.5254L187.596 26.2167L185.411 31.9345Z" fill="black"/>
<path d="M100.785 228.466L100.133 234.179L96.4073 233.754C93.9979 233.479 92.8218 232.54 93.057 230.478C93.2923 228.417 94.6498 227.766 97.0591 228.041L100.785 228.466ZM97.2749 216.667C93.2014 216.203 91.0209 217.891 90.6127 221.468C90.3407 223.853 91.4034 225.785 93.585 226.512C91.7123 226.827 90.4053 228.137 90.1531 230.348C89.7676 233.726 91.5755 235.744 95.5249 236.195L102.728 237.017L104.95 217.543L97.2749 216.667ZM93.477 221.946C93.7265 219.76 94.9767 218.946 97.6345 219.25L101.783 219.723L101.068 225.982L96.9203 225.509C94.2625 225.206 93.2276 224.132 93.477 221.946Z" fill="black"/>
<path d="M100.785 228.466L101.778 228.58L101.892 227.586L100.898 227.473L100.785 228.466ZM100.133 234.179L100.02 235.173L101.013 235.286L101.127 234.293L100.133 234.179ZM93.585 226.512L93.7508 227.499L93.9012 225.564L93.585 226.512ZM102.728 237.017L102.615 238.01L103.608 238.124L103.722 237.13L102.728 237.017ZM104.95 217.543L105.944 217.656L106.057 216.663L105.064 216.55L104.95 217.543ZM101.783 219.723L102.776 219.836L102.89 218.843L101.896 218.729L101.783 219.723ZM101.068 225.982L100.955 226.976L101.949 227.089L102.062 226.096L101.068 225.982ZM99.7914 228.353L99.1395 234.066L101.127 234.293L101.778 228.58L99.7914 228.353ZM100.246 233.186L96.5206 232.761L96.2939 234.748L100.02 235.173L100.246 233.186ZM96.5206 232.761C95.3878 232.631 94.7523 232.362 94.4219 232.054C94.1518 231.803 93.9578 231.404 94.0506 230.592L92.0635 230.365C91.921 231.614 92.1975 232.716 93.0589 233.518C93.8601 234.264 95.0174 234.602 96.2939 234.748L96.5206 232.761ZM94.0506 230.592C94.1433 229.779 94.4221 229.434 94.7419 229.25C95.1331 229.025 95.8129 228.905 96.9457 229.035L97.1725 227.048C95.896 226.902 94.6924 226.97 93.7436 227.517C92.7236 228.105 92.206 229.116 92.0635 230.365L94.0506 230.592ZM96.9457 229.035L100.672 229.46L100.898 227.473L97.1725 227.048L96.9457 229.035ZM97.3883 215.674C95.2131 215.426 93.3615 215.73 91.9777 216.746C90.5782 217.773 89.8435 219.388 89.6192 221.355L91.6063 221.581C91.7901 219.971 92.3497 218.954 93.1609 218.358C93.9878 217.751 95.2632 217.444 97.1616 217.661L97.3883 215.674ZM89.6192 221.355C89.4632 222.722 89.6835 224.024 90.3131 225.112C90.9474 226.209 91.9613 227.025 93.2689 227.461L93.9012 225.564C93.0272 225.272 92.4188 224.759 92.0444 224.111C91.6652 223.456 91.4902 222.599 91.6063 221.581L89.6192 221.355ZM93.4193 225.526C92.2913 225.716 91.2863 226.216 90.5258 227.042C89.7666 227.866 89.3055 228.956 89.1595 230.235L91.1466 230.461C91.2529 229.53 91.5714 228.859 91.997 228.397C92.4211 227.936 93.006 227.624 93.7508 227.499L93.4193 225.526ZM89.1595 230.235C88.9438 232.125 89.3313 233.791 90.4749 235.043C91.5966 236.272 93.3059 236.948 95.4115 237.188L95.6382 235.201C93.7945 234.991 92.6251 234.432 91.9519 233.695C91.3006 232.982 90.9769 231.949 91.1466 230.461L89.1595 230.235ZM95.4115 237.188L102.615 238.01L102.841 236.023L95.6382 235.201L95.4115 237.188ZM103.722 237.13L105.944 217.656L103.957 217.43L101.735 236.903L103.722 237.13ZM105.064 216.55L97.3883 215.674L97.1616 217.661L104.837 218.537L105.064 216.55ZM94.4706 222.059C94.5762 221.133 94.8636 220.72 95.197 220.503C95.5806 220.254 96.2718 220.101 97.5211 220.243L97.7479 218.256C96.3395 218.095 95.0766 218.197 94.1082 218.826C93.0897 219.487 92.6273 220.572 92.4835 221.832L94.4706 222.059ZM97.5211 220.243L101.669 220.717L101.896 218.729L97.7479 218.256L97.5211 220.243ZM100.789 219.61L100.075 225.869L102.062 226.096L102.776 219.836L100.789 219.61ZM101.182 224.989L97.0336 224.516L96.8069 226.503L100.955 226.976L101.182 224.989ZM97.0336 224.516C95.7843 224.373 95.1455 224.068 94.8278 223.739C94.5518 223.453 94.365 222.985 94.4706 222.059L92.4835 221.832C92.3397 223.092 92.5457 224.255 93.3891 225.128C94.191 225.958 95.3985 226.342 96.8069 226.503L97.0336 224.516Z" fill="black"/>
<path d="M77.2017 211.232C71.5226 209.006 68.3557 212.973 66.4303 217.884C64.514 222.772 64.1543 227.868 69.8101 230.085C75.5591 232.339 78.6976 228.306 80.6048 223.442C82.5211 218.554 82.9739 213.495 77.2017 211.232ZM76.28 213.583C79.7247 214.934 79.6296 217.984 77.9049 222.383C76.2076 226.712 74.2089 229.071 70.7409 227.711C67.3195 226.37 67.4329 223.272 69.1302 218.943C70.864 214.521 72.8819 212.251 76.28 213.583Z" fill="black"/>
<path d="M77.5667 210.301C74.4292 209.071 71.8449 209.53 69.8023 211.086C67.8402 212.581 66.4838 215.008 65.4993 217.519L67.3613 218.25C68.3022 215.85 69.4919 213.837 71.0144 212.677C72.4564 211.578 74.295 211.167 76.8367 212.163L77.5667 210.301ZM65.4993 217.519C64.5183 220.022 63.8707 222.725 64.2956 225.158C64.7374 227.689 66.3162 229.789 69.4451 231.016L70.1751 229.154C67.6483 228.163 66.5789 226.608 66.2657 224.814C65.9355 222.923 66.4259 220.635 67.3613 218.25L65.4993 217.519ZM69.4451 231.016C72.6172 232.26 75.2133 231.792 77.2563 230.227C79.2174 228.724 80.5615 226.292 81.5358 223.807L79.6738 223.077C78.7409 225.456 77.5621 227.473 76.0399 228.639C74.5996 229.743 72.752 230.164 70.1751 229.154L69.4451 231.016ZM81.5358 223.807C82.5136 221.313 83.1877 218.617 82.7722 216.184C82.3388 213.648 80.7473 211.548 77.5667 210.301L76.8367 212.163C79.4283 213.179 80.4965 214.74 80.8007 216.521C81.1227 218.406 80.6123 220.683 79.6738 223.077L81.5358 223.807ZM75.915 214.514C76.6557 214.804 77.1408 215.16 77.4577 215.545C77.7707 215.925 77.9642 216.387 78.0392 216.968C78.1961 218.183 77.8264 219.844 76.9739 222.018L78.8359 222.748C79.7081 220.524 80.2483 218.459 80.0227 216.712C79.9065 215.811 79.5858 214.983 79.0016 214.273C78.4215 213.569 77.6267 213.037 76.645 212.652L75.915 214.514ZM76.9739 222.018C76.135 224.158 75.2852 225.625 74.3442 226.414C73.8943 226.792 73.4368 227.002 72.947 227.07C72.4513 227.139 71.8509 227.072 71.1059 226.78L70.3759 228.642C71.3649 229.03 72.3148 229.178 73.2223 229.051C74.1356 228.924 74.9342 228.53 75.6296 227.947C76.9792 226.814 77.9775 224.938 78.8359 222.748L76.9739 222.018ZM71.1059 226.78C70.3747 226.493 69.8962 226.139 69.5834 225.753C69.2738 225.372 69.0819 224.907 69.0082 224.322C68.8542 223.102 69.2234 221.445 70.0612 219.308L68.1992 218.578C67.3397 220.77 66.8035 222.826 67.0239 224.573C67.1373 225.471 67.4525 226.302 68.0309 227.014C68.6061 227.722 69.3964 228.258 70.3759 228.642L71.1059 226.78ZM70.0612 219.308C70.9175 217.124 71.7805 215.656 72.7207 214.874C73.1704 214.499 73.6248 214.293 74.1081 214.227C74.5972 214.161 75.1867 214.228 75.915 214.514L76.645 212.652C75.6742 212.271 74.7372 212.123 73.8381 212.246C72.9331 212.369 72.1375 212.757 71.4413 213.336C70.0895 214.461 69.0767 216.34 68.1992 218.578L70.0612 219.308Z" fill="black"/>
<path d="M48.053 205.899C49.8135 203.532 51.169 202.422 52.5872 201.981C53.7657 201.611 54.9421 201.956 56.2661 202.941L59.3554 205.238L50.6725 216.914L47.5832 214.616C46.2592 213.631 45.5901 212.604 45.6051 211.369C45.6191 209.884 46.2925 208.266 48.053 205.899ZM45.726 204.169C44.0998 206.355 42.7339 208.611 42.7239 211.096C42.697 213.101 43.7092 214.882 45.8557 216.478L51.4927 220.67L63.1893 204.943L57.5523 200.751C55.4058 199.154 53.409 198.697 51.4964 199.3C49.1193 200.025 47.3522 201.982 45.726 204.169Z" fill="black"/>
<path d="M52.5872 201.981L52.884 202.936L52.8866 202.935L52.5872 201.981ZM59.3554 205.238L60.1578 205.835L60.7546 205.033L59.9522 204.436L59.3554 205.238ZM50.6725 216.914L50.0757 217.716L50.8781 218.313L51.4749 217.51L50.6725 216.914ZM45.6051 211.369L46.605 211.381L46.605 211.378L45.6051 211.369ZM42.7239 211.096L43.7239 211.109L43.7239 211.1L42.7239 211.096ZM51.4927 220.67L50.8959 221.473L51.6983 222.07L52.2951 221.267L51.4927 220.67ZM63.1893 204.943L63.9917 205.54L64.5884 204.737L63.786 204.141L63.1893 204.943ZM51.4964 199.3L51.788 200.257L51.797 200.254L51.4964 199.3ZM48.8554 206.496C50.5755 204.183 51.7721 203.281 52.884 202.936L52.2905 201.026C50.5659 201.562 49.0514 202.881 47.2506 205.302L48.8554 206.496ZM52.8866 202.935C53.6366 202.7 54.4781 202.857 55.6694 203.743L56.8629 202.139C55.4062 201.055 53.8949 200.522 52.2879 201.027L52.8866 202.935ZM55.6694 203.743L58.7587 206.041L59.9522 204.436L56.8629 202.139L55.6694 203.743ZM58.553 204.642L49.8701 216.317L51.4749 217.51L60.1578 205.835L58.553 204.642ZM51.2693 216.111L48.18 213.814L46.9864 215.419L50.0757 217.716L51.2693 216.111ZM48.18 213.814C46.9887 212.928 46.5954 212.167 46.605 211.381L44.6051 211.357C44.5847 213.041 45.5297 214.335 46.9864 215.419L48.18 213.814ZM46.605 211.378C46.616 210.214 47.1353 208.809 48.8554 206.496L47.2506 205.302C45.4498 207.724 44.6221 209.554 44.6051 211.36L46.605 211.378ZM44.9236 203.572C43.2911 205.767 41.7353 208.254 41.7239 211.092L43.7239 211.1C43.7325 208.968 44.9085 206.943 46.5284 204.765L44.9236 203.572ZM41.724 211.082C41.6916 213.5 42.9386 215.555 45.2589 217.28L46.4525 215.676C44.4798 214.209 43.7025 212.702 43.7238 211.109L41.724 211.082ZM45.2589 217.28L50.8959 221.473L52.0894 219.868L46.4525 215.676L45.2589 217.28ZM52.2951 221.267L63.9917 205.54L62.3868 204.346L50.6903 220.074L52.2951 221.267ZM63.786 204.141L58.1491 199.948L56.9555 201.553L62.5925 205.745L63.786 204.141ZM58.1491 199.948C55.8288 198.223 53.5019 197.62 51.1958 198.346L51.797 200.254C53.316 199.775 54.9829 200.086 56.9555 201.553L58.1491 199.948ZM51.2048 198.344C48.4901 199.171 46.5561 201.377 44.9236 203.572L46.5284 204.765C48.1483 202.587 49.7485 200.878 51.788 200.257L51.2048 198.344Z" fill="black"/>
<path d="M36.5359 178.883L25.163 196.138L27.2778 198.832L46.7241 191.862L44.8717 189.502L40.601 191.107L35.8156 185.011L38.3883 181.243L36.5359 178.883ZM34.3234 187.199L38.1363 192.056L28.4742 195.7L34.3234 187.199Z" fill="black"/>
<path d="M36.5359 178.883L37.3225 178.266L36.4651 177.174L35.701 178.333L36.5359 178.883ZM25.163 196.138L24.3281 195.588L23.9317 196.189L24.3764 196.755L25.163 196.138ZM27.2778 198.832L26.4912 199.449L26.9365 200.017L27.6152 199.773L27.2778 198.832ZM46.7241 191.862L47.0615 192.804L48.367 192.336L47.5107 191.245L46.7241 191.862ZM44.8717 189.502L45.6583 188.885L45.2059 188.309L44.52 188.566L44.8717 189.502ZM40.601 191.107L39.8144 191.724L40.2668 192.301L40.9527 192.043L40.601 191.107ZM35.8156 185.011L34.9898 184.447L34.5766 185.052L35.029 185.628L35.8156 185.011ZM38.3883 181.243L39.2141 181.807L39.6273 181.202L39.1749 180.626L38.3883 181.243ZM34.3234 187.199L35.11 186.582L34.2704 185.512L33.4996 186.632L34.3234 187.199ZM38.1363 192.056L38.4891 192.992L39.7645 192.511L38.9229 191.439L38.1363 192.056ZM28.4742 195.7L27.6503 195.133L25.8419 197.761L28.827 196.636L28.4742 195.7ZM35.701 178.333L24.3281 195.588L25.998 196.688L37.3709 179.434L35.701 178.333ZM24.3764 196.755L26.4912 199.449L28.0644 198.215L25.9496 195.52L24.3764 196.755ZM27.6152 199.773L47.0615 192.804L46.3867 190.921L26.9404 197.891L27.6152 199.773ZM47.5107 191.245L45.6583 188.885L44.0851 190.12L45.9375 192.48L47.5107 191.245ZM44.52 188.566L40.2493 190.171L40.9527 192.043L45.2234 190.439L44.52 188.566ZM41.3876 190.489L36.6022 184.393L35.029 185.628L39.8144 191.724L41.3876 190.489ZM36.6415 185.575L39.2141 181.807L37.5625 180.679L34.9898 184.447L36.6415 185.575ZM39.1749 180.626L37.3225 178.266L35.7493 179.501L37.6017 181.861L39.1749 180.626ZM33.5368 187.817L37.3497 192.674L38.9229 191.439L35.11 186.582L33.5368 187.817ZM37.7834 191.121L28.1213 194.764L28.827 196.636L38.4891 192.992L37.7834 191.121ZM29.298 196.267L35.1473 187.766L33.4996 186.632L27.6503 195.133L29.298 196.267Z" fill="black"/>
<path d="M21.2458 174.129L15.9621 176.397L14.4829 172.951C13.5263 170.723 13.7585 169.235 15.6652 168.417C17.572 167.598 18.81 168.454 19.7666 170.683L21.2458 174.129ZM29.7493 165.228C28.132 161.46 25.584 160.405 22.2759 161.825C20.0705 162.771 18.9194 164.653 19.3705 166.908C18.1682 165.438 16.3821 164.953 14.3375 165.831C11.2132 167.172 10.358 169.743 11.9259 173.396L14.7858 180.058L32.7965 172.326L29.7493 165.228ZM23.282 164.549C25.3036 163.681 26.6302 164.363 27.6854 166.821L29.3323 170.657L23.5431 173.143L21.8963 169.306C20.8411 166.848 21.2604 165.416 23.282 164.549Z" fill="black"/>
<path d="M21.2458 174.129L21.6403 175.048L22.5592 174.653L22.1648 173.734L21.2458 174.129ZM15.9621 176.397L15.0432 176.791L15.4376 177.71L16.3566 177.316L15.9621 176.397ZM19.3705 166.908L18.5964 167.541L20.351 166.712L19.3705 166.908ZM14.7858 180.058L13.8669 180.452L14.2613 181.371L15.1802 180.977L14.7858 180.058ZM32.7965 172.326L33.1909 173.245L34.1098 172.851L33.7154 171.932L32.7965 172.326ZM29.3323 170.657L29.7267 171.576L30.6457 171.182L30.2512 170.263L29.3323 170.657ZM23.5431 173.143L22.6242 173.537L23.0187 174.456L23.9376 174.061L23.5431 173.143ZM20.8514 173.21L15.5676 175.478L16.3566 177.316L21.6403 175.048L20.8514 173.21ZM16.881 176.002L15.4018 172.556L13.564 173.345L15.0432 176.791L16.881 176.002ZM15.4018 172.556C14.952 171.509 14.8706 170.823 14.9738 170.384C15.0582 170.025 15.3078 169.658 16.0597 169.336L15.2708 167.498C14.1159 167.994 13.296 168.781 13.0268 169.926C12.7764 170.992 13.0571 172.165 13.564 173.345L15.4018 172.556ZM16.0597 169.336C16.8116 169.013 17.2488 169.084 17.5675 169.27C17.9572 169.498 18.3979 170.029 18.8477 171.077L20.6855 170.288C20.1787 169.108 19.5222 168.097 18.577 167.544C17.5608 166.95 16.4257 167.002 15.2708 167.498L16.0597 169.336ZM18.8477 171.077L20.3269 174.523L22.1648 173.734L20.6855 170.288L18.8477 171.077ZM30.6682 164.833C29.8046 162.821 28.6214 161.365 27.0531 160.667C25.4672 159.962 23.6999 160.125 21.8815 160.906L22.6704 162.744C24.16 162.104 25.3208 162.085 26.2401 162.494C27.1772 162.911 28.0766 163.866 28.8303 165.622L30.6682 164.833ZM21.8815 160.906C20.6172 161.448 19.5959 162.286 18.9629 163.372C18.3252 164.467 18.1195 165.753 18.3899 167.104L20.351 166.712C20.1703 165.808 20.3147 165.025 20.6911 164.379C21.0723 163.724 21.7293 163.148 22.6704 162.744L21.8815 160.906ZM20.1445 166.275C19.4204 165.389 18.4875 164.765 17.3931 164.514C16.3007 164.264 15.1261 164.404 13.9431 164.912L14.732 166.75C15.5935 166.38 16.3342 166.324 16.9466 166.464C17.5569 166.604 18.1183 166.956 18.5964 167.541L20.1445 166.275ZM13.9431 164.912C12.1944 165.663 10.9407 166.825 10.4203 168.44C9.90993 170.023 10.171 171.843 11.007 173.79L12.8449 173.001C12.1129 171.296 12.0176 170.003 12.3239 169.053C12.6203 168.134 13.3563 167.34 14.732 166.75L13.9431 164.912ZM11.007 173.79L13.8669 180.452L15.7047 179.663L12.8449 173.001L11.007 173.79ZM15.1802 180.977L33.1909 173.245L32.402 171.407L14.3913 179.139L15.1802 180.977ZM33.7154 171.932L30.6682 164.833L28.8303 165.622L31.8776 172.721L33.7154 171.932ZM23.6765 165.468C24.5327 165.1 25.0346 165.144 25.3879 165.326C25.7943 165.536 26.2705 166.06 26.7665 167.215L28.6043 166.426C28.0452 165.124 27.3304 164.078 26.3044 163.549C25.2251 162.992 24.0529 163.129 22.8876 163.63L23.6765 165.468ZM26.7665 167.215L28.4134 171.052L30.2512 170.263L28.6043 166.426L26.7665 167.215ZM28.9378 169.738L23.1487 172.224L23.9376 174.061L29.7267 171.576L28.9378 169.738ZM24.462 172.748L22.8152 168.912L20.9773 169.701L22.6242 173.537L24.462 172.748ZM22.8152 168.912C22.3191 167.756 22.2673 167.05 22.3953 166.611C22.5066 166.229 22.8202 165.835 23.6765 165.468L22.8876 163.63C21.7222 164.13 20.8153 164.885 20.4753 166.051C20.1521 167.159 20.4182 168.398 20.9773 169.701L22.8152 168.912Z" fill="black"/>
<path d="M24.5101 145.103C23.6261 139.067 18.6099 138.286 13.3906 139.05C8.196 139.811 3.59349 142.027 4.47395 148.037C5.36891 154.147 10.4273 154.872 15.5972 154.114C20.7917 153.354 25.4087 151.237 24.5101 145.103ZM22.0118 145.468C22.5481 149.129 19.852 150.56 15.1769 151.245C10.576 151.919 7.5369 151.353 6.99703 147.668C6.4644 144.032 9.20996 142.594 13.8109 141.92C18.5107 141.231 21.4828 141.857 22.0118 145.468Z" fill="black"/>
<path d="M25.4996 144.958C25.0112 141.623 23.3307 139.607 20.966 138.605C18.6946 137.644 15.9143 137.67 13.2456 138.061L13.5355 140.04C16.0861 139.666 18.4236 139.701 20.1861 140.447C21.8554 141.154 23.125 142.546 23.5207 145.247L25.4996 144.958ZM13.2456 138.061C10.5865 138.45 7.91771 139.229 6.01607 140.805C4.03814 142.444 2.99742 144.857 3.48451 148.182L5.46339 147.892C5.07003 145.207 5.89032 143.507 7.29218 142.345C8.77031 141.12 11 140.411 13.5355 140.04L13.2456 138.061ZM3.48451 148.182C3.97832 151.554 5.67225 153.576 8.04499 154.573C10.3225 155.53 13.101 155.491 15.7421 155.104L15.4522 153.125C12.9234 153.495 10.5879 153.472 8.81997 152.729C7.1473 152.026 5.86454 150.631 5.46339 147.892L3.48451 148.182ZM15.7421 155.104C18.3927 154.716 21.0681 153.963 22.9738 152.396C24.961 150.761 25.9947 148.338 25.4996 144.958L23.5207 145.247C23.9241 148.002 23.0987 149.704 21.7033 150.851C20.2266 152.066 17.9962 152.752 15.4522 153.125L15.7421 155.104ZM21.0224 145.613C21.1377 146.401 21.0695 146.998 20.8926 147.464C20.7179 147.925 20.4126 148.322 19.9454 148.675C18.9679 149.414 17.3427 149.917 15.0319 150.256L15.3218 152.235C17.6861 151.888 19.7465 151.333 21.1518 150.27C21.876 149.723 22.4363 149.033 22.7624 148.174C23.0863 147.321 23.1541 146.367 23.0012 145.324L21.0224 145.613ZM15.0319 150.256C12.7579 150.589 11.0626 150.579 9.91046 150.153C9.3595 149.95 8.94972 149.657 8.64759 149.266C8.34187 148.869 8.10245 148.315 7.98647 147.523L6.00759 147.813C6.16155 148.864 6.50445 149.762 7.06418 150.487C7.62748 151.217 8.36625 151.715 9.21765 152.029C10.8702 152.64 12.9949 152.575 15.3218 152.235L15.0319 150.256ZM7.98647 147.523C7.87263 146.746 7.94326 146.154 8.12247 145.692C8.29986 145.234 8.60896 144.836 9.07977 144.482C10.0627 143.743 11.6848 143.242 13.9558 142.909L13.6659 140.93C11.3361 141.271 9.28488 141.826 7.87798 142.884C7.15387 143.428 6.58888 144.114 6.25751 144.969C5.92795 145.82 5.85511 146.772 6.00759 147.813L7.98647 147.523ZM13.9558 142.909C16.2769 142.569 17.9795 142.59 19.1254 143.018C19.6735 143.223 20.0779 143.515 20.3748 143.902C20.6753 144.294 20.909 144.839 21.0224 145.613L23.0012 145.324C22.8501 144.292 22.5139 143.405 21.9615 142.685C21.4055 141.96 20.674 141.462 19.8254 141.145C18.178 140.529 16.0447 140.582 13.6659 140.93L13.9558 142.909Z" fill="black"/>
<path d="M14.6797 117.148C17.6084 117.503 19.2451 118.129 20.3313 119.141C21.237 119.981 21.5208 121.174 21.3227 122.812L20.8604 126.634L6.41568 124.887L6.87799 121.065C7.07612 119.427 7.63614 118.336 8.71596 117.737C10.0123 117.012 11.7511 116.794 14.6797 117.148ZM15.028 114.269C12.3227 113.942 9.68666 113.875 7.52401 115.099C5.76968 116.071 4.7255 117.833 4.40428 120.489L3.56072 127.463L23.0189 129.816L23.8625 122.842C24.1837 120.187 23.5898 118.226 22.1176 116.864C20.3092 115.16 17.7333 114.597 15.028 114.269Z" fill="black"/>
<path d="M20.3313 119.141L19.6494 119.873L19.6514 119.875L20.3313 119.141ZM20.8604 126.634L20.7403 127.627L21.7331 127.747L21.8532 126.754L20.8604 126.634ZM6.41568 124.887L5.42292 124.767L5.30284 125.76L6.2956 125.88L6.41568 124.887ZM8.71596 117.737L9.20146 118.611L9.20384 118.609L8.71596 117.737ZM7.52401 115.099L8.00843 115.974L8.01662 115.97L7.52401 115.099ZM3.56072 127.463L2.56795 127.343L2.44787 128.336L3.44064 128.456L3.56072 127.463ZM23.0189 129.816L22.8988 130.809L23.8916 130.929L24.0117 129.937L23.0189 129.816ZM22.1176 116.864L21.4317 117.592L21.4386 117.599L22.1176 116.864ZM14.5597 118.141C17.4212 118.487 18.7977 119.079 19.6494 119.873L21.0132 118.41C19.6924 117.179 17.7956 116.518 14.7998 116.156L14.5597 118.141ZM19.6514 119.875C20.2277 120.409 20.5082 121.218 20.3299 122.692L22.3155 122.932C22.5335 121.13 22.2463 119.553 21.0112 118.408L19.6514 119.875ZM20.3299 122.692L19.8676 126.514L21.8532 126.754L22.3155 122.932L20.3299 122.692ZM20.9805 125.641L6.53576 123.894L6.2956 125.88L20.7403 127.627L20.9805 125.641ZM7.40845 125.007L7.87075 121.185L5.88522 120.945L5.42292 124.767L7.40845 125.007ZM7.87075 121.185C8.04903 119.711 8.51429 118.992 9.20146 118.611L8.23046 116.862C6.75799 117.68 6.10321 119.143 5.88522 120.945L7.87075 121.185ZM9.20384 118.609C10.2202 118.041 11.6981 117.795 14.5597 118.141L14.7998 116.156C11.804 115.793 9.80448 115.983 8.22808 116.864L9.20384 118.609ZM15.148 113.277C12.4323 112.948 9.50119 112.831 7.03141 114.229L8.01662 115.97C9.87212 114.919 12.2131 114.936 14.9079 115.262L15.148 113.277ZM7.03961 114.224C4.92429 115.396 3.75874 117.498 3.41152 120.369L5.39705 120.609C5.69225 118.168 6.61506 116.746 8.00841 115.974L7.03961 114.224ZM3.41152 120.369L2.56795 127.343L4.55348 127.583L5.39705 120.609L3.41152 120.369ZM3.44064 128.456L22.8988 130.809L23.139 128.824L3.6808 126.47L3.44064 128.456ZM24.0117 129.937L24.8552 122.962L22.8697 122.722L22.0261 129.696L24.0117 129.937ZM24.8552 122.962C25.2025 120.092 24.5717 117.772 22.7967 116.13L21.4386 117.599C22.6079 118.68 23.1649 120.282 22.8697 122.722L24.8552 122.962ZM22.8035 116.137C20.7383 114.19 17.8638 113.605 15.148 113.277L14.9079 115.262C17.6027 115.588 19.8802 116.13 21.4318 117.592L22.8035 116.137Z" fill="black"/>
<path d="M32.424 93.7457L11.8004 92.4308L10.5103 95.6036L26.2091 109.031L27.3391 106.251L23.8274 103.339L26.7465 96.16L31.294 96.5248L32.424 93.7457ZM24.1061 95.9501L21.7803 101.67L13.8233 95.0885L24.1061 95.9501Z" fill="black"/>
<path d="M32.424 93.7457L33.3503 94.1224L33.8734 92.8361L32.4876 92.7477L32.424 93.7457ZM11.8004 92.4308L11.864 91.4328L11.1453 91.387L10.874 92.0542L11.8004 92.4308ZM10.5103 95.6036L9.58397 95.2269L9.31238 95.8949L9.86035 96.3635L10.5103 95.6036ZM26.2091 109.031L25.5592 109.79L26.6131 110.692L27.1355 109.407L26.2091 109.031ZM27.3391 106.251L28.2655 106.628L28.5414 105.949L27.9775 105.482L27.3391 106.251ZM23.8274 103.339L22.901 102.963L22.6251 103.641L23.189 104.109L23.8274 103.339ZM26.7465 96.16L26.8264 95.1632L26.0961 95.1047L25.8201 95.7834L26.7465 96.16ZM31.294 96.5248L31.2141 97.5216L31.9444 97.5801L32.2204 96.9014L31.294 96.5248ZM24.1061 95.9501L25.0325 96.3267L25.5446 95.0671L24.1896 94.9535L24.1061 95.9501ZM21.7803 101.67L21.1429 102.441L22.1932 103.31L22.7066 102.047L21.7803 101.67ZM13.8233 95.0885L13.9068 94.092L10.7277 93.8256L13.1859 95.8591L13.8233 95.0885ZM32.4876 92.7477L11.864 91.4328L11.7368 93.4288L32.3604 94.7437L32.4876 92.7477ZM10.874 92.0542L9.58397 95.2269L11.4367 95.9802L12.7267 92.8075L10.874 92.0542ZM9.86035 96.3635L25.5592 109.79L26.8591 108.271L11.1603 94.8436L9.86035 96.3635ZM27.1355 109.407L28.2655 106.628L26.4128 105.875L25.2828 108.654L27.1355 109.407ZM27.9775 105.482L24.4657 102.57L23.189 104.109L26.7008 107.021L27.9775 105.482ZM24.7537 103.716L27.6728 96.5367L25.8201 95.7834L22.901 102.963L24.7537 103.716ZM26.6665 97.1568L31.2141 97.5216L31.374 95.528L26.8264 95.1632L26.6665 97.1568ZM32.2204 96.9014L33.3503 94.1224L31.4976 93.369L30.3677 96.1481L32.2204 96.9014ZM23.1798 95.5734L20.8539 101.294L22.7066 102.047L25.0325 96.3267L23.1798 95.5734ZM22.4176 100.9L14.4607 94.318L13.1859 95.8591L21.1429 102.441L22.4176 100.9ZM13.7398 96.085L24.0226 96.9466L24.1896 94.9535L13.9068 94.092L13.7398 96.085Z" fill="black"/>
<path d="M28.9665 78.1106L24.3759 74.6481L26.6341 71.6542C28.0944 69.7182 29.5008 69.182 31.1574 70.4315C32.814 71.681 32.685 73.1807 31.2247 75.1167L28.9665 78.1106ZM40.9135 81.0781C43.3824 77.8048 43.0349 75.0688 40.1608 72.901C38.2447 71.4558 36.0399 71.3898 34.3057 72.9001C34.9856 71.1269 34.5204 69.3356 32.7441 67.9958C30.0296 65.9484 27.3732 66.4812 24.9795 69.6547L20.6138 75.4428L36.2617 87.2454L40.9135 81.0781ZM38.2947 75.1259C40.0511 76.4507 40.117 77.9409 38.5062 80.0765L35.9921 83.4097L30.9624 79.616L33.4765 76.2828C35.0873 74.1472 36.5383 73.8011 38.2947 75.1259Z" fill="black"/>
<path d="M28.9665 78.1106L28.3644 78.9089L29.1627 79.5111L29.7649 78.7127L28.9665 78.1106ZM24.3759 74.6481L23.5776 74.0459L22.9754 74.8442L23.7738 75.4464L24.3759 74.6481ZM34.3057 72.9001L33.372 72.5421L34.9625 73.6542L34.3057 72.9001ZM20.6138 75.4428L19.8154 74.8406L19.2132 75.639L20.0116 76.2412L20.6138 75.4428ZM36.2617 87.2454L35.6595 88.0438L36.4579 88.646L37.0601 87.8476L36.2617 87.2454ZM35.9921 83.4097L35.39 84.2081L36.1883 84.8102L36.7905 84.0119L35.9921 83.4097ZM30.9624 79.616L30.1641 79.0138L29.5619 79.8122L30.3603 80.4144L30.9624 79.616ZM29.5687 77.3122L24.9781 73.8497L23.7738 75.4464L28.3644 78.9089L29.5687 77.3122ZM25.1743 75.2502L27.4325 72.2564L25.8357 71.052L23.5776 74.0459L25.1743 75.2502ZM27.4325 72.2564C28.1191 71.3461 28.6737 70.9353 29.1065 70.807C29.4604 70.702 29.902 70.7372 30.5553 71.2299L31.7596 69.6331C30.7562 68.8763 29.6663 68.5548 28.5378 68.8895C27.4881 69.2009 26.6094 70.0263 25.8357 71.052L27.4325 72.2564ZM30.5553 71.2299C31.2085 71.7226 31.3636 72.1375 31.3599 72.5066C31.3554 72.958 31.1129 73.6042 30.4263 74.5145L32.0231 75.7189C32.7967 74.6931 33.3489 73.6215 33.3598 72.5266C33.3716 71.3495 32.763 70.3899 31.7596 69.6331L30.5553 71.2299ZM30.4263 74.5145L28.1682 77.5084L29.7649 78.7127L32.0231 75.7189L30.4263 74.5145ZM41.7119 81.6802C43.0302 79.9324 43.7079 78.1825 43.5357 76.4747C43.3616 74.7476 42.3428 73.2943 40.7629 72.1026L39.5586 73.6994C40.8528 74.6755 41.4449 75.6741 41.5458 76.6753C41.6487 77.6957 41.2657 78.9504 40.1151 80.4759L41.7119 81.6802ZM40.7629 72.1026C39.6645 71.2741 38.4309 70.8027 37.1733 70.7922C35.9062 70.7817 34.6884 71.2407 33.649 72.146L34.9625 73.6542C35.6572 73.0491 36.4088 72.786 37.1567 72.7922C37.9141 72.7985 38.7409 73.0826 39.5586 73.6994L40.7629 72.1026ZM35.2395 73.2581C35.6489 72.1901 35.7284 71.0703 35.4031 69.9957C35.0784 68.9231 34.3741 67.9727 33.3462 67.1974L32.1419 68.7942C32.8904 69.3587 33.3069 69.9739 33.4889 70.5752C33.6703 71.1745 33.6424 71.8369 33.372 72.5421L35.2395 73.2581ZM33.3462 67.1974C31.827 66.0515 30.1955 65.5397 28.5357 65.8888C26.9075 66.2312 25.4574 67.3605 24.1812 69.0525L25.7779 70.2569C26.8953 68.7753 27.9702 68.0515 28.9473 67.846C29.8928 67.6472 30.9467 67.8927 32.1419 68.7942L33.3462 67.1974ZM24.1812 69.0525L19.8154 74.8406L21.4121 76.045L25.7779 70.2569L24.1812 69.0525ZM20.0116 76.2412L35.6595 88.0438L36.8639 86.4471L21.2159 74.6445L20.0116 76.2412ZM37.0601 87.8476L41.7119 81.6802L40.1151 80.4759L35.4633 86.6433L37.0601 87.8476ZM37.6925 75.9243C38.4364 76.4854 38.647 76.9431 38.6641 77.3402C38.6838 77.7971 38.4651 78.4704 37.7079 79.4743L39.3046 80.6787C40.1582 79.547 40.7119 78.4074 40.6622 77.2541C40.61 76.041 39.9094 75.0912 38.8969 74.3276L37.6925 75.9243ZM37.7079 79.4743L35.1938 82.8075L36.7905 84.0119L39.3046 80.6787L37.7079 79.4743ZM36.5943 82.6113L31.5646 78.8176L30.3603 80.4144L35.39 84.2081L36.5943 82.6113ZM31.7608 80.2182L34.2749 76.885L32.6782 75.6806L30.1641 79.0138L31.7608 80.2182ZM34.2749 76.885C35.0321 75.8811 35.6195 75.4858 36.0641 75.3792C36.4506 75.2865 36.9486 75.3632 37.6925 75.9243L38.8969 74.3276C37.8844 73.5639 36.7787 73.1512 35.5979 73.4343C34.4753 73.7034 33.5318 74.5489 32.6782 75.6806L34.2749 76.885Z" fill="black"/>
<path d="M55.7888 66.5454C60.5907 62.7836 58.7805 58.0406 55.5275 53.8881C52.2898 49.7553 48.0829 46.8581 43.3007 50.6046C38.4397 54.4126 40.3201 59.1641 43.5423 63.2773C46.78 67.4101 50.9081 70.3689 55.7888 66.5454ZM54.2316 64.5577C51.319 66.8395 48.7391 65.2084 45.8252 61.4889C42.9576 57.8284 41.9409 54.9091 44.8733 52.6119C47.7662 50.3456 50.3769 52.016 53.2446 55.6765C56.1739 59.4157 57.1049 62.3068 54.2316 64.5577Z" fill="black"/>
<path d="M56.4055 67.3326C59.0583 65.2543 59.9753 62.795 59.6717 60.245C59.3801 57.7956 57.978 55.3946 56.3147 53.2714L54.7403 54.5048C56.33 56.5341 57.4595 58.5808 57.6858 60.4814C57.9001 62.2815 57.3212 64.0746 55.1721 65.7582L56.4055 67.3326ZM56.3147 53.2714C54.6573 51.1558 52.6569 49.225 50.3453 48.3556C47.941 47.4513 45.3297 47.7447 42.684 49.8174L43.9174 51.3918C46.054 49.7179 47.9372 49.5867 49.6413 50.2276C51.4381 50.9034 53.16 52.4876 54.7403 54.5048L56.3147 53.2714ZM42.684 49.8174C40.0018 51.9186 39.0865 54.3925 39.3976 56.9474C39.6963 59.3998 41.109 61.7927 42.7551 63.894L44.3295 62.6606C42.7534 60.6487 41.6148 58.6093 41.383 56.7056C41.1636 54.9045 41.7386 53.0986 43.9174 51.3918L42.684 49.8174ZM42.7551 63.894C44.4071 66.0028 46.3876 67.9526 48.694 68.8297C51.0989 69.7442 53.7161 69.4394 56.4055 67.3326L55.1721 65.7582C52.9808 67.4749 51.0935 67.6024 49.4049 66.9603C47.6176 66.2806 45.9151 64.6846 44.3295 62.6606L42.7551 63.894ZM53.6149 63.7705C52.9886 64.2611 52.4359 64.4985 51.9434 64.5761C51.4572 64.6527 50.9607 64.5847 50.4222 64.3544C49.2954 63.8723 48.0527 62.7106 46.6124 60.8722L45.038 62.1056C46.5116 63.9866 48.0157 65.5002 49.6355 66.1932C50.4703 66.5503 51.3471 66.6947 52.2548 66.5517C53.1563 66.4096 54.0183 65.9952 54.8483 65.3449L53.6149 63.7705ZM46.6124 60.8722C45.1951 59.063 44.3628 57.586 44.1606 56.3745C44.0639 55.7952 44.1148 55.2942 44.3049 54.8377C44.4972 54.3757 44.86 53.8926 45.49 53.3991L44.2566 51.8247C43.4203 52.4798 42.8106 53.2231 42.4585 54.069C42.1041 54.9202 42.0385 55.8085 42.1879 56.7038C42.4779 58.4413 43.5877 60.2543 45.038 62.1056L46.6124 60.8722ZM45.49 53.3991C46.1083 52.9147 46.6569 52.6826 47.1475 52.6087C47.6331 52.5356 48.1316 52.6067 48.6725 52.8399C49.8017 53.3268 51.0419 54.4864 52.4574 56.2932L54.0318 55.0598C52.5796 53.2062 51.0806 51.7002 49.4643 51.0034C48.6325 50.6447 47.7567 50.4944 46.8495 50.631C45.9474 50.7669 45.0847 51.1759 44.2566 51.8247L45.49 53.3991ZM52.4574 56.2932C53.9041 58.1399 54.7304 59.6287 54.9271 60.836C55.0212 61.4135 54.968 61.9096 54.7793 62.3594C54.5884 62.8146 54.2307 63.2881 53.6149 63.7705L54.8483 65.3449C55.6692 64.7018 56.2726 63.9698 56.6236 63.1331C56.977 62.2908 57.0467 61.4085 56.9011 60.5144C56.6182 58.7786 55.5144 56.9523 54.0318 55.0598L52.4574 56.2932Z" fill="black"/>
<path d="M75.1837 44.142C76.329 46.8606 76.5973 48.5923 76.2568 50.0379C75.977 51.2409 75.0822 52.079 73.5616 52.7196L70.0136 54.2144L64.3647 40.8057L67.9127 39.311C69.4333 38.6704 70.658 38.6155 71.7144 39.2556C72.9867 40.0218 74.0383 41.4234 75.1837 44.142ZM77.8562 43.0161C76.7982 40.5049 75.5487 38.1829 73.4129 36.9124C71.6992 35.8711 69.651 35.8387 67.1858 36.8773L60.7119 39.6047L68.3214 57.6672L74.7953 54.9398C77.2605 53.9012 78.6681 52.413 79.1201 50.4593C79.7029 48.0435 78.9141 45.5274 77.8562 43.0161Z" fill="black"/>
<path d="M76.2568 50.0379L75.2835 49.8086L75.2829 49.8113L76.2568 50.0379ZM70.0136 54.2144L69.092 54.6026L69.4803 55.5242L70.4018 55.1359L70.0136 54.2144ZM64.3647 40.8057L63.9764 39.8841L63.0549 40.2724L63.4431 41.1939L64.3647 40.8057ZM71.7144 39.2556L71.1962 40.1109L71.1985 40.1123L71.7144 39.2556ZM73.4129 36.9124L72.8936 37.767L72.9017 37.7718L73.4129 36.9124ZM60.7119 39.6047L60.3236 38.6831L59.4021 39.0713L59.7903 39.9929L60.7119 39.6047ZM68.3214 57.6672L67.3998 58.0554L67.7881 58.977L68.7096 58.5888L68.3214 57.6672ZM79.1201 50.4593L78.1479 50.2248L78.1458 50.2339L79.1201 50.4593ZM74.2621 44.5303C75.3812 47.1866 75.5504 48.6753 75.2835 49.8086L77.2302 50.2671C77.6442 48.5093 77.2768 46.5347 76.1052 43.7538L74.2621 44.5303ZM75.2829 49.8113C75.1047 50.5768 74.5415 51.2217 73.1734 51.7981L73.9498 53.6412C75.6228 52.9364 76.8492 51.9049 77.2308 50.2645L75.2829 49.8113ZM73.1734 51.7981L69.6254 53.2928L70.4018 55.1359L73.9498 53.6412L73.1734 51.7981ZM70.9352 53.8261L65.2862 40.4175L63.4431 41.1939L69.092 54.6026L70.9352 53.8261ZM64.7529 41.7273L68.3009 40.2325L67.5244 38.3894L63.9764 39.8841L64.7529 41.7273ZM68.3009 40.2325C69.6691 39.6561 70.5239 39.7035 71.1962 40.1109L72.2326 38.4004C70.7921 37.5276 69.1974 37.6846 67.5244 38.3894L68.3009 40.2325ZM71.1985 40.1123C72.196 40.713 73.143 41.874 74.2621 44.5303L76.1052 43.7538C74.9337 40.9729 73.7774 39.3306 72.2303 38.399L71.1985 40.1123ZM78.7777 42.6279C77.7157 40.1069 76.3633 37.5038 73.9241 36.053L72.9017 37.7718C74.7341 38.8619 75.8808 40.9029 76.9346 43.4044L78.7777 42.6279ZM73.9322 36.0578C71.8659 34.8022 69.4624 34.8331 66.7976 35.9557L67.574 37.7988C69.8396 36.8444 71.5325 36.9399 72.8936 37.767L73.9322 36.0578ZM66.7976 35.9557L60.3236 38.6831L61.1001 40.5262L67.574 37.7988L66.7976 35.9557ZM59.7903 39.9929L67.3998 58.0554L69.243 57.279L61.6334 39.2164L59.7903 39.9929ZM68.7096 58.5888L75.1836 55.8614L74.4071 54.0182L67.9332 56.7456L68.7096 58.5888ZM75.1836 55.8614C77.8484 54.7387 79.5494 53.0404 80.0943 50.6847L78.1458 50.2339C77.7868 51.7856 76.6726 53.0638 74.4071 54.0182L75.1836 55.8614ZM80.0922 50.6938C80.7578 47.935 79.8398 45.1489 78.7777 42.6279L76.9346 43.4044C77.9885 45.9059 78.648 48.1521 78.148 50.2248L80.0922 50.6938Z" fill="black"/>
<path d="M104.306 47.9385L95.2167 29.3793L91.8219 29.8332L87.9518 50.125L90.9253 49.7274L91.7118 45.2336L99.3934 44.2066L101.333 48.336L104.306 47.9385ZM98.2659 41.8099L92.1453 42.6282L93.9127 32.4542L98.2659 41.8099Z" fill="black"/>
<path d="M104.306 47.9385L104.439 48.9296L105.815 48.7456L105.204 47.4986L104.306 47.9385ZM95.2167 29.3793L96.1148 28.9395L95.798 28.2927L95.0842 28.3881L95.2167 29.3793ZM91.8219 29.8332L91.6894 28.842L90.9747 28.9375L90.8396 29.6458L91.8219 29.8332ZM87.9518 50.125L86.9695 49.9376L86.7097 51.3L88.0843 51.1162L87.9518 50.125ZM90.9253 49.7274L91.0578 50.7186L91.7841 50.6215L91.9104 49.8998L90.9253 49.7274ZM91.7118 45.2336L91.5792 44.2424L90.853 44.3395L90.7267 45.0612L91.7118 45.2336ZM99.3934 44.2066L100.299 43.7815L99.9871 43.1183L99.2609 43.2154L99.3934 44.2066ZM101.333 48.336L100.428 48.7611L100.739 49.4243L101.465 49.3272L101.333 48.336ZM98.2659 41.8099L98.3984 42.8011L99.7462 42.6209L99.1725 41.388L98.2659 41.8099ZM92.1453 42.6282L91.1601 42.457L90.9268 43.8L92.2778 43.6193L92.1453 42.6282ZM93.9127 32.4542L94.8193 32.0324L93.4735 29.1399L92.9274 32.2831L93.9127 32.4542ZM105.204 47.4986L96.1148 28.9395L94.3186 29.8191L103.408 48.3783L105.204 47.4986ZM95.0842 28.3881L91.6894 28.842L91.9544 30.8244L95.3492 30.3705L95.0842 28.3881ZM90.8396 29.6458L86.9695 49.9376L88.9341 50.3123L92.8042 30.0205L90.8396 29.6458ZM88.0843 51.1162L91.0578 50.7186L90.7928 48.7363L87.8193 49.1338L88.0843 51.1162ZM91.9104 49.8998L92.6968 45.406L90.7267 45.0612L89.9403 49.5551L91.9104 49.8998ZM91.8443 46.2248L99.5259 45.1978L99.2609 43.2154L91.5792 44.2424L91.8443 46.2248ZM98.4883 44.6317L100.428 48.7611L102.238 47.9109L100.299 43.7815L98.4883 44.6317ZM101.465 49.3272L104.439 48.9296L104.174 46.9473L101.2 47.3448L101.465 49.3272ZM98.1333 40.8187L92.0128 41.637L92.2778 43.6193L98.3984 42.8011L98.1333 40.8187ZM93.1306 42.7993L94.8979 32.6254L92.9274 32.2831L91.1601 42.457L93.1306 42.7993ZM93.006 32.8761L97.3592 42.2317L99.1725 41.388L94.8193 32.0324L93.006 32.8761Z" fill="black"/>
<path d="M116.166 37.1807L116.895 31.4771L120.615 31.9526C123.02 32.26 124.183 33.2152 123.92 35.2735C123.657 37.3317 122.291 37.9636 119.886 37.6561L116.166 37.1807ZM119.516 49.0261C123.583 49.5459 125.786 47.8868 126.243 44.3159C126.547 41.9352 125.51 39.9881 123.339 39.2317C125.216 38.9423 126.54 37.6498 126.822 35.4428C127.253 32.0702 125.473 30.028 121.53 29.524L114.338 28.6048L111.853 48.0466L119.516 49.0261ZM123.385 43.7994C123.106 45.9816 121.845 46.7782 119.192 46.439L115.05 45.9097L115.849 39.6605L119.99 40.1899C122.644 40.529 123.664 41.6172 123.385 43.7994Z" fill="black"/>
<path d="M116.166 37.1807L115.174 37.0539L115.047 38.0458L116.039 38.1726L116.166 37.1807ZM116.895 31.4771L117.022 30.4852L116.03 30.3584L115.903 31.3503L116.895 31.4771ZM123.339 39.2317L123.186 38.2434L123.01 40.176L123.339 39.2317ZM114.338 28.6048L114.465 27.6129L113.473 27.4861L113.347 28.478L114.338 28.6048ZM111.853 48.0466L110.862 47.9198L110.735 48.9118L111.727 49.0386L111.853 48.0466ZM115.05 45.9097L114.058 45.7829L113.931 46.7748L114.923 46.9016L115.05 45.9097ZM115.849 39.6605L115.976 38.6686L114.984 38.5418L114.857 39.5337L115.849 39.6605ZM117.158 37.3075L117.887 31.6039L115.903 31.3503L115.174 37.0539L117.158 37.3075ZM116.768 32.469L120.488 32.9445L120.741 30.9606L117.022 30.4852L116.768 32.469ZM120.488 32.9445C121.619 33.089 122.251 33.3669 122.577 33.679C122.844 33.9342 123.032 34.3351 122.928 35.1467L124.912 35.4002C125.072 34.1536 124.81 33.0478 123.96 32.2339C123.168 31.477 122.016 31.1235 120.741 30.9606L120.488 32.9445ZM122.928 35.1467C122.825 35.9583 122.541 36.2988 122.219 36.4788C121.825 36.6988 121.143 36.8088 120.012 36.6642L119.759 38.6481C121.033 38.811 122.238 38.7588 123.194 38.2251C124.222 37.6514 124.753 36.6469 124.912 35.4002L122.928 35.1467ZM120.012 36.6642L116.293 36.1888L116.039 38.1726L119.759 38.6481L120.012 36.6642ZM119.389 50.018C121.561 50.2956 123.417 50.0159 124.814 49.0191C126.227 48.0111 126.984 46.4056 127.235 44.4427L125.251 44.1891C125.045 45.7971 124.472 46.8066 123.653 47.3909C122.818 47.9864 121.538 48.2764 119.643 48.0341L119.389 50.018ZM127.235 44.4427C127.409 43.0779 127.206 41.7729 126.592 40.6758C125.972 39.5704 124.969 38.7407 123.668 38.2873L123.01 40.176C123.88 40.4791 124.481 41.0011 124.847 41.6536C125.217 42.3143 125.381 43.1732 125.251 44.1891L127.235 44.4427ZM123.491 40.22C124.622 40.0457 125.633 39.5592 126.405 38.7436C127.175 37.9296 127.651 36.8466 127.814 35.5695L125.83 35.316C125.711 36.246 125.384 36.9127 124.952 37.369C124.522 37.8239 123.933 38.1283 123.186 38.2434L123.491 40.22ZM127.814 35.5695C128.055 33.6819 127.69 32.0115 126.564 30.7435C125.459 29.4997 123.759 28.8008 121.657 28.5321L121.403 30.5159C123.244 30.7512 124.406 31.3254 125.069 32.0718C125.71 32.7941 126.02 33.831 125.83 35.316L127.814 35.5695ZM121.657 28.5321L114.465 27.6129L114.212 29.5967L121.403 30.5159L121.657 28.5321ZM113.347 28.478L110.862 47.9198L112.845 48.1734L115.33 28.7316L113.347 28.478ZM111.727 49.0386L119.389 50.018L119.643 48.0341L111.98 47.0547L111.727 49.0386ZM122.393 43.6726C122.275 44.5969 121.982 45.0068 121.646 45.2186C121.259 45.4624 120.566 45.6065 119.318 45.4471L119.065 47.4309C120.471 47.6107 121.735 47.5261 122.712 46.9108C123.739 46.2636 124.216 45.1841 124.377 43.9262L122.393 43.6726ZM119.318 45.4471L115.177 44.9178L114.923 46.9016L119.065 47.4309L119.318 45.4471ZM116.042 46.0365L116.841 39.7873L114.857 39.5337L114.058 45.7829L116.042 46.0365ZM115.722 40.6525L119.863 41.1818L120.117 39.1979L115.976 38.6686L115.722 40.6525ZM119.863 41.1818C121.111 41.3412 121.745 41.6551 122.059 41.9883C122.331 42.2779 122.511 42.7483 122.393 43.6726L124.377 43.9262C124.538 42.6682 124.348 41.5034 123.516 40.6186C122.725 39.7774 121.523 39.3777 120.117 39.1979L119.863 41.1818Z" fill="black"/>
<path d="M139.514 54.732C145.163 57.0351 148.383 53.1104 150.375 48.2259C152.357 43.3645 152.785 38.2745 147.16 35.9808C141.442 33.6493 138.249 37.6392 136.277 42.4774C134.294 47.3389 133.773 52.3911 139.514 54.732ZM140.468 52.3939C137.042 50.9969 137.178 47.9477 138.962 43.5724C140.718 39.2666 142.748 36.9356 146.197 38.3421C149.6 39.7296 149.445 42.8251 147.689 47.1309C145.896 51.5294 143.848 53.772 140.468 52.3939Z" fill="black"/>
<path d="M139.137 55.6579C142.257 56.9303 144.848 56.5064 146.911 54.9778C148.893 53.5095 150.282 51.101 151.301 48.6034L149.449 47.8483C148.475 50.2354 147.259 52.2314 145.721 53.3708C144.264 54.4499 142.42 54.8367 139.892 53.806L139.137 55.6579ZM151.301 48.6034C152.315 46.1149 152.999 43.4202 152.608 40.9818C152.2 38.4455 150.65 36.3238 147.538 35.0548L146.782 36.9068C149.296 37.9316 150.344 39.5016 150.633 41.2991C150.937 43.1945 150.416 45.4755 149.449 47.8483L151.301 48.6034ZM147.538 35.0548C144.383 33.7684 141.78 34.2009 139.716 35.7385C137.735 37.2145 136.358 39.6282 135.351 42.0999L137.203 42.855C138.168 40.4884 139.373 38.4881 140.911 37.3424C142.366 36.2584 144.22 35.8618 146.782 36.9068L147.538 35.0548ZM135.351 42.0999C134.339 44.5805 133.629 47.2673 134.011 49.705C134.41 52.2468 135.973 54.3681 139.137 55.6579L139.892 53.806C137.314 52.755 136.267 51.1796 135.987 49.3948C135.691 47.5058 136.232 45.2358 137.203 42.855L135.351 42.0999ZM140.845 51.4679C140.109 51.1675 139.628 50.8053 139.317 50.4162C139.009 50.032 138.822 49.5672 138.754 48.9854C138.614 47.7679 139.006 46.1125 139.888 43.95L138.036 43.1948C137.134 45.4075 136.566 47.4644 136.768 49.2146C136.872 50.1166 137.181 50.9495 137.756 51.6666C138.326 52.3789 139.114 52.9217 140.09 53.3198L140.845 51.4679ZM139.888 43.95C140.756 41.8218 141.625 40.3664 142.577 39.5899C143.032 39.2186 143.492 39.0142 143.983 38.9527C144.479 38.8905 145.079 38.9659 145.82 39.268L146.575 37.4161C145.591 37.015 144.643 36.8543 143.734 36.9682C142.819 37.0828 142.015 37.4665 141.312 38.0404C139.947 39.1541 138.924 41.0172 138.036 43.1948L139.888 43.95ZM145.82 39.268C146.547 39.5646 147.021 39.9258 147.328 40.3151C147.633 40.7004 147.818 41.1686 147.884 41.7539C148.021 42.9759 147.63 44.628 146.763 46.7534L148.615 47.5085C149.504 45.3281 150.068 43.2795 149.872 41.5304C149.77 40.6301 149.466 39.7952 148.898 39.0753C148.332 38.3594 147.549 37.8133 146.575 37.4161L145.82 39.268ZM146.763 46.7534C145.878 48.9256 144.995 50.3817 144.044 51.1514C143.589 51.5196 143.132 51.7196 142.648 51.7789C142.158 51.8389 141.57 51.7632 140.845 51.4679L140.09 53.3198C141.056 53.7135 141.991 53.8743 142.891 53.764C143.798 53.653 144.599 53.2758 145.303 52.7058C146.669 51.5991 147.708 49.7347 148.615 47.5085L146.763 46.7534Z" fill="black"/>
<path d="M168.588 60.4577C166.796 62.8009 165.426 63.8929 164.001 64.3144C162.818 64.6682 161.646 64.3071 160.336 63.3046L157.278 60.9656L166.118 49.4088L169.176 51.7479C170.486 52.7504 171.142 53.7866 171.11 55.0214C171.076 56.5061 170.381 58.1146 168.588 60.4577ZM170.892 62.2197C172.547 60.0553 173.943 57.8184 173.987 55.3337C174.041 53.3291 173.053 51.5347 170.928 49.9095L165.349 45.6414L153.44 61.2092L159.02 65.4773C161.145 67.1025 163.135 67.5864 165.056 67.0096C167.443 66.3171 169.236 64.3841 170.892 62.2197Z" fill="black"/>
<path d="M164.001 64.3144L163.718 63.3556L163.715 63.3563L164.001 64.3144ZM157.278 60.9656L156.484 60.358L155.876 61.1523L156.67 61.7598L157.278 60.9656ZM166.118 49.4088L166.725 48.6146L165.931 48.007L165.324 48.8013L166.118 49.4088ZM171.11 55.0214L170.11 54.9957L170.11 54.9985L171.11 55.0214ZM173.987 55.3337L172.987 55.3068L172.987 55.3162L173.987 55.3337ZM165.349 45.6414L165.956 44.8471L165.162 44.2395L164.554 45.0338L165.349 45.6414ZM153.44 61.2092L152.646 60.6016L152.039 61.3959L152.833 62.0035L153.44 61.2092ZM165.056 67.0096L164.777 66.0491L164.768 66.0518L165.056 67.0096ZM167.794 59.8502C166.043 62.1396 164.834 63.0251 163.718 63.3556L164.285 65.2733C166.017 64.7607 167.549 63.4621 169.382 61.0653L167.794 59.8502ZM163.715 63.3563C162.962 63.5815 162.123 63.4124 160.943 62.5104L159.728 64.0989C161.17 65.2019 162.674 65.755 164.288 65.2725L163.715 63.3563ZM160.943 62.5104L157.885 60.1713L156.67 61.7598L159.728 64.0989L160.943 62.5104ZM158.072 61.5731L166.912 50.0164L165.324 48.8013L156.484 60.358L158.072 61.5731ZM165.51 50.2031L168.568 52.5422L169.783 50.9536L166.725 48.6146L165.51 50.2031ZM168.568 52.5422C169.747 53.4442 170.13 54.21 170.11 54.9957L172.11 55.0471C172.153 53.3633 171.225 52.0566 169.783 50.9536L168.568 52.5422ZM170.11 54.9985C170.083 56.1625 169.545 57.5608 167.794 59.8502L169.382 61.0653C171.216 58.6685 172.068 56.8498 172.11 55.0443L170.11 54.9985ZM171.686 62.8272C173.348 60.6544 174.937 58.1888 174.987 55.3512L172.987 55.3162C172.95 57.448 171.746 59.4561 170.097 61.6121L171.686 62.8272ZM174.987 55.3606C175.052 52.9436 173.833 50.872 171.536 49.1152L170.321 50.7037C172.273 52.1973 173.03 53.7147 172.987 55.3068L174.987 55.3606ZM171.536 49.1152L165.956 44.8471L164.741 46.4356L170.321 50.7037L171.536 49.1152ZM164.554 45.0338L152.646 60.6016L154.235 61.8167L166.143 46.2489L164.554 45.0338ZM152.833 62.0035L158.413 66.2715L159.628 64.683L154.048 60.4149L152.833 62.0035ZM158.413 66.2715C160.709 68.0284 163.028 68.6628 165.344 67.9673L164.768 66.0518C163.243 66.5099 161.58 66.1766 159.628 64.683L158.413 66.2715ZM165.335 67.97C168.06 67.1792 170.024 65 171.686 62.8272L170.097 61.6121C168.448 63.7681 166.825 65.4551 164.777 66.0492L165.335 67.97Z" fill="black"/>
<path d="M179.739 87.6279L191.344 70.5286L189.266 67.8062L169.727 74.5125L171.548 76.8971L175.84 75.3506L180.542 81.5108L177.919 85.2433L179.739 87.6279ZM182.064 79.3428L178.317 74.4345L188.027 70.9218L182.064 79.3428Z" fill="black"/>
<path d="M179.739 87.6279L178.944 88.2346L179.787 89.3384L180.566 88.1894L179.739 87.6279ZM191.344 70.5286L192.172 71.0902L192.576 70.4943L192.139 69.9218L191.344 70.5286ZM189.266 67.8062L190.061 67.1994L189.623 66.6263L188.941 66.8603L189.266 67.8062ZM169.727 74.5125L169.403 73.5667L168.091 74.0169L168.932 75.1193L169.727 74.5125ZM171.548 76.8971L170.753 77.5039L171.197 78.0863L171.886 77.8379L171.548 76.8971ZM175.84 75.3506L176.634 74.7438L176.19 74.1614L175.501 74.4098L175.84 75.3506ZM180.542 81.5108L181.36 82.0859L181.781 81.4864L181.337 80.904L180.542 81.5108ZM177.919 85.2433L177.101 84.6682L176.679 85.2676L177.124 85.85L177.919 85.2433ZM182.064 79.3428L181.269 79.9496L182.094 81.0304L182.88 79.9207L182.064 79.3428ZM178.317 74.4345L177.977 73.4941L176.695 73.9578L177.522 75.0413L178.317 74.4345ZM188.027 70.9218L188.843 71.4998L190.687 68.8962L187.687 69.9815L188.027 70.9218ZM180.566 88.1894L192.172 71.0902L190.517 69.967L178.912 87.0663L180.566 88.1894ZM192.139 69.9218L190.061 67.1994L188.471 68.413L190.549 71.1354L192.139 69.9218ZM188.941 66.8603L169.403 73.5667L170.052 75.4583L189.591 68.752L188.941 66.8603ZM168.932 75.1193L170.753 77.5039L172.342 76.2903L170.522 73.9057L168.932 75.1193ZM171.886 77.8379L176.179 76.2914L175.501 74.4098L171.209 75.9563L171.886 77.8379ZM175.045 75.9573L179.747 82.1176L181.337 80.904L176.634 74.7438L175.045 75.9573ZM179.724 80.9358L177.101 84.6682L178.737 85.8183L181.36 82.0859L179.724 80.9358ZM177.124 85.85L178.944 88.2346L180.534 87.0211L178.714 84.6365L177.124 85.85ZM182.859 78.736L179.112 73.8277L177.522 75.0413L181.269 79.9496L182.859 78.736ZM178.657 75.3748L188.367 71.8622L187.687 69.9815L177.977 73.4941L178.657 75.3748ZM187.211 70.3439L181.248 78.7649L182.88 79.9207L188.843 71.4998L187.211 70.3439Z" fill="black"/>
<path d="M194.963 92.5885L200.277 90.392L201.71 93.8576C202.636 96.0987 202.384 97.5826 200.466 98.3753C198.549 99.1679 197.322 98.2952 196.396 96.0541L194.963 92.5885ZM186.341 101.374C187.907 105.163 190.44 106.253 193.767 104.877C195.985 103.961 197.162 102.095 196.741 99.834C197.923 101.32 199.703 101.829 201.759 100.979C204.901 99.6801 205.791 97.1211 204.273 93.4475L201.503 86.7474L183.39 94.2347L186.341 101.374ZM192.798 102.14C190.765 102.981 189.448 102.281 188.426 99.8085L186.831 95.9502L192.653 93.5435L194.248 97.4019C195.27 99.874 194.831 101.3 192.798 102.14Z" fill="black"/>
<path d="M194.963 92.5885L194.581 91.6644L193.657 92.0464L194.039 92.9705L194.963 92.5885ZM200.277 90.392L201.202 90.01L200.82 89.0858L199.895 89.4678L200.277 90.392ZM196.741 99.834L197.524 99.2113L195.758 100.017L196.741 99.834ZM201.503 86.7474L202.427 86.3654L202.045 85.4412L201.121 85.8232L201.503 86.7474ZM183.39 94.2347L183.008 93.3105L182.083 93.6925L182.465 94.6167L183.39 94.2347ZM186.831 95.9502L186.449 95.026L185.525 95.408L185.907 96.3322L186.831 95.9502ZM192.653 93.5435L193.577 93.1615L193.195 92.2374L192.271 92.6194L192.653 93.5435ZM195.345 93.5127L200.659 91.3162L199.895 89.4678L194.581 91.6644L195.345 93.5127ZM199.353 90.774L200.786 94.2396L202.634 93.4756L201.202 90.01L199.353 90.774ZM200.786 94.2396C201.221 95.2933 201.293 95.9797 201.184 96.4177C201.095 96.7759 200.841 97.1385 200.084 97.4511L200.848 99.2994C202.01 98.8193 202.84 98.0436 203.125 96.9014C203.39 95.839 203.125 94.663 202.634 93.4756L200.786 94.2396ZM200.084 97.4511C199.328 97.7636 198.892 97.6866 198.576 97.496C198.189 97.2629 197.756 96.7258 197.32 95.6721L195.472 96.4361C195.963 97.6235 196.605 98.6433 197.543 99.2087C198.551 99.8166 199.687 99.7795 200.848 99.2994L200.084 97.4511ZM197.32 95.6721L195.888 92.2065L194.039 92.9705L195.472 96.4361L197.32 95.6721ZM185.416 101.756C186.253 103.779 187.416 105.251 188.975 105.97C190.551 106.697 192.32 106.558 194.149 105.802L193.385 103.953C191.887 104.573 190.726 104.576 189.812 104.154C188.881 103.725 187.995 102.758 187.265 100.992L185.416 101.756ZM194.149 105.802C195.421 105.276 196.453 104.453 197.101 103.375C197.753 102.288 197.976 101.006 197.724 99.6511L195.758 100.017C195.926 100.923 195.771 101.704 195.386 102.345C194.996 102.994 194.332 103.562 193.385 103.953L194.149 105.802ZM195.959 100.457C196.671 101.352 197.595 101.989 198.686 102.254C199.775 102.519 200.951 102.395 202.141 101.903L201.377 100.055C200.511 100.413 199.769 100.459 199.159 100.311C198.55 100.163 197.994 99.8024 197.524 99.2113L195.959 100.457ZM202.141 101.903C203.9 101.176 205.169 100.031 205.711 98.4234C206.243 96.8468 206.006 95.0241 205.197 93.0655L203.348 93.8295C204.057 95.5445 204.135 96.838 203.816 97.7841C203.507 98.6996 202.761 99.4829 201.377 100.055L202.141 101.903ZM205.197 93.0655L202.427 86.3654L200.579 87.1294L203.348 93.8295L205.197 93.0655ZM201.121 85.8232L183.008 93.3105L183.772 95.1588L201.885 87.6715L201.121 85.8232ZM182.465 94.6167L185.416 101.756L187.265 100.992L184.314 93.8526L182.465 94.6167ZM192.416 101.216C191.555 101.572 191.054 101.521 190.703 101.334C190.299 101.119 189.83 100.589 189.35 99.4265L187.502 100.191C188.043 101.501 188.744 102.556 189.762 103.099C190.834 103.67 192.008 103.549 193.18 103.064L192.416 101.216ZM189.35 99.4265L187.755 95.5682L185.907 96.3322L187.502 100.191L189.35 99.4265ZM187.213 96.8743L193.035 94.4677L192.271 92.6194L186.449 95.026L187.213 96.8743ZM191.729 93.9255L193.324 97.7839L195.172 97.0199L193.577 93.1615L191.729 93.9255ZM193.324 97.7839C193.804 98.946 193.846 99.6527 193.712 100.09C193.596 100.47 193.277 100.86 192.416 101.216L193.18 103.064C194.352 102.58 195.269 101.837 195.625 100.676C195.963 99.5721 195.714 98.3299 195.172 97.0199L193.324 97.7839Z" fill="black"/>
<path d="M191.307 121.568C192.109 127.615 197.115 128.464 202.344 127.77C207.548 127.079 212.18 124.926 211.381 118.904C210.569 112.783 205.521 111.99 200.341 112.677C195.137 113.368 190.491 115.422 191.307 121.568ZM193.81 121.236C193.323 117.568 196.039 116.174 200.722 115.552C205.332 114.94 208.363 115.547 208.853 119.24C209.337 122.883 206.572 124.284 201.962 124.895C197.254 125.52 194.29 124.854 193.81 121.236Z" fill="black"/>
<path d="M190.316 121.7C190.759 125.04 192.412 127.079 194.763 128.112C197.021 129.105 199.802 129.116 202.475 128.761L202.212 126.779C199.657 127.118 197.32 127.052 195.568 126.281C193.908 125.552 192.657 124.143 192.298 121.436L190.316 121.7ZM202.475 128.761C205.139 128.408 207.819 127.665 209.741 126.115C211.741 124.503 212.814 122.104 212.372 118.773L210.39 119.036C210.747 121.726 209.904 123.415 208.486 124.558C206.992 125.763 204.752 126.442 202.212 126.779L202.475 128.761ZM212.372 118.773C211.924 115.395 210.258 113.35 207.899 112.321C205.634 111.333 202.855 111.335 200.209 111.686L200.473 113.669C203.006 113.332 205.341 113.387 207.099 114.154C208.762 114.88 210.026 116.292 210.39 119.036L212.372 118.773ZM200.209 111.686C197.554 112.038 194.869 112.754 192.942 114.296C190.933 115.903 189.866 118.313 190.316 121.7L192.298 121.436C191.932 118.677 192.781 116.986 194.191 115.858C195.684 114.663 197.924 114.007 200.473 113.669L200.209 111.686ZM194.801 121.104C194.697 120.316 194.773 119.719 194.956 119.255C195.137 118.797 195.448 118.404 195.92 118.057C196.907 117.331 198.539 116.851 200.854 116.543L200.591 114.561C198.222 114.875 196.154 115.402 194.735 116.446C194.003 116.984 193.434 117.666 193.096 118.52C192.761 119.369 192.68 120.322 192.819 121.367L194.801 121.104ZM200.854 116.543C203.132 116.241 204.827 116.274 205.974 116.715C206.522 116.926 206.928 117.224 207.224 117.62C207.525 118.02 207.757 118.578 207.862 119.371L209.844 119.108C209.705 118.055 209.374 117.152 208.824 116.419C208.271 115.682 207.539 115.174 206.692 114.848C205.048 114.216 202.922 114.251 200.591 114.561L200.854 116.543ZM207.862 119.371C207.965 120.15 207.887 120.74 207.701 121.2C207.518 121.656 207.203 122.049 206.728 122.397C205.735 123.122 204.106 123.602 201.831 123.904L202.094 125.887C204.428 125.577 206.487 125.05 207.908 124.012C208.639 123.477 209.213 122.799 209.556 121.948C209.897 121.102 209.983 120.151 209.844 119.108L207.862 119.371ZM201.831 123.904C199.505 124.213 197.803 124.168 196.663 123.725C196.118 123.513 195.717 123.215 195.426 122.824C195.131 122.428 194.904 121.88 194.801 121.104L192.819 121.367C192.956 122.401 193.28 123.293 193.823 124.02C194.369 124.752 195.094 125.26 195.938 125.589C197.577 126.226 199.711 126.203 202.094 125.887L201.831 123.904Z" fill="black"/>
<path d="M200.759 149.652C197.835 149.258 196.207 148.61 195.135 147.583C194.24 146.731 193.973 145.534 194.193 143.899L194.707 140.084L209.127 142.026L208.613 145.841C208.392 147.477 207.818 148.56 206.73 149.145C205.424 149.852 203.682 150.046 200.759 149.652ZM200.372 152.526C203.072 152.89 205.707 152.993 207.886 151.798C209.653 150.85 210.721 149.102 211.078 146.451L212.016 139.489L192.591 136.873L191.654 143.835C191.297 146.486 191.864 148.454 193.318 149.835C195.103 151.564 197.671 152.162 200.372 152.526Z" fill="black"/>
<path d="M195.135 147.583L195.826 146.861L195.824 146.859L195.135 147.583ZM194.707 140.084L194.84 139.093L193.849 138.959L193.716 139.95L194.707 140.084ZM209.127 142.026L210.118 142.159L210.251 141.168L209.26 141.035L209.127 142.026ZM206.73 149.145L206.256 148.264L206.254 148.265L206.73 149.145ZM207.886 151.798L207.413 150.916L207.405 150.921L207.886 151.798ZM212.016 139.489L213.007 139.622L213.141 138.631L212.15 138.498L212.016 139.489ZM192.591 136.873L192.725 135.881L191.734 135.748L191.6 136.739L192.591 136.873ZM193.318 149.835L194.013 149.117L194.006 149.111L193.318 149.835ZM200.892 148.661C198.036 148.276 196.667 147.666 195.826 146.861L194.443 148.305C195.747 149.554 197.635 150.24 200.625 150.643L200.892 148.661ZM195.824 146.859C195.255 146.317 194.986 145.504 195.184 144.033L193.202 143.766C192.959 145.565 193.225 147.145 194.445 148.307L195.824 146.859ZM195.184 144.033L195.698 140.217L193.716 139.95L193.202 143.766L195.184 144.033ZM194.573 141.075L208.993 143.017L209.26 141.035L194.84 139.093L194.573 141.075ZM208.136 141.892L207.622 145.708L209.604 145.975L210.118 142.159L208.136 141.892ZM207.622 145.708C207.423 147.179 206.948 147.892 206.256 148.264L207.203 150.025C208.687 149.228 209.361 147.774 209.604 145.975L207.622 145.708ZM206.254 148.265C205.23 148.82 203.749 149.046 200.892 148.661L200.625 150.643C203.616 151.046 205.618 150.884 207.206 150.024L206.254 148.265ZM200.238 153.517C202.949 153.882 205.878 154.039 208.367 152.675L207.405 150.921C205.536 151.946 203.195 151.897 200.505 151.535L200.238 153.517ZM208.359 152.679C210.49 151.537 211.683 149.45 212.069 146.585L210.087 146.318C209.759 148.754 208.817 150.164 207.414 150.916L208.359 152.679ZM212.069 146.585L213.007 139.622L211.025 139.355L210.087 146.318L212.069 146.585ZM212.15 138.498L192.725 135.881L192.458 137.864L211.883 140.48L212.15 138.498ZM191.6 136.739L190.663 143.701L192.645 143.968L193.583 137.006L191.6 136.739ZM190.663 143.701C190.277 146.567 190.876 148.895 192.629 150.56L194.006 149.111C192.852 148.013 192.317 146.405 192.645 143.968L190.663 143.701ZM192.622 150.554C194.661 152.528 197.527 153.152 200.238 153.517L200.505 151.535C197.815 151.173 195.545 150.6 194.013 149.117L192.622 150.554Z" fill="black"/>
<path d="M182.7 172.813L203.304 174.407L204.637 171.252L189.121 157.614L187.953 160.377L191.425 163.337L188.41 170.476L183.867 170.05L182.7 172.813ZM191.047 170.722L193.45 165.033L201.317 171.722L191.047 170.722Z" fill="black"/>
<path d="M182.7 172.813L181.779 172.424L181.238 173.703L182.623 173.81L182.7 172.813ZM203.304 174.407L203.227 175.404L203.945 175.459L204.225 174.796L203.304 174.407ZM204.637 171.252L205.558 171.641L205.838 170.977L205.297 170.501L204.637 171.252ZM189.121 157.614L189.781 156.863L188.739 155.947L188.2 157.225L189.121 157.614ZM187.953 160.377L187.032 159.988L186.747 160.663L187.305 161.139L187.953 160.377ZM191.425 163.337L192.347 163.726L192.632 163.051L192.074 162.576L191.425 163.337ZM188.41 170.476L188.316 171.472L189.046 171.54L189.331 170.865L188.41 170.476ZM183.867 170.05L183.961 169.054L183.231 168.986L182.946 169.661L183.867 170.05ZM191.047 170.722L190.126 170.332L189.596 171.585L190.95 171.717L191.047 170.722ZM193.45 165.033L194.097 164.271L193.059 163.389L192.529 164.644L193.45 165.033ZM201.317 171.722L201.22 172.717L204.395 173.027L201.965 170.96L201.317 171.722ZM182.623 173.81L203.227 175.404L203.381 173.41L182.777 171.816L182.623 173.81ZM204.225 174.796L205.558 171.641L203.715 170.863L202.383 174.018L204.225 174.796ZM205.297 170.501L189.781 156.863L188.461 158.365L203.976 172.003L205.297 170.501ZM188.2 157.225L187.032 159.988L188.874 160.767L190.042 158.003L188.2 157.225ZM187.305 161.139L190.777 164.098L192.074 162.576L188.602 159.616L187.305 161.139ZM190.504 162.948L187.488 170.087L189.331 170.865L192.347 163.726L190.504 162.948ZM188.503 169.48L183.961 169.054L183.774 171.045L188.316 171.472L188.503 169.48ZM182.946 169.661L181.779 172.424L183.621 173.202L184.788 170.439L182.946 169.661ZM191.968 171.111L194.371 165.422L192.529 164.644L190.126 170.332L191.968 171.111ZM192.802 165.795L200.669 172.484L201.965 170.96L194.097 164.271L192.802 165.795ZM201.414 170.727L191.144 169.726L190.95 171.717L201.22 172.717L201.414 170.727Z" fill="black"/>
<path d="M185.946 188.493L190.489 192.017L188.191 194.98C186.704 196.896 185.291 197.413 183.651 196.142C182.012 194.87 182.161 193.372 183.647 191.456L185.946 188.493ZM174.04 185.364C171.527 188.604 171.838 191.344 174.682 193.551C176.578 195.022 178.782 195.117 180.537 193.631C179.833 195.394 180.274 197.192 182.032 198.556C184.718 200.639 187.382 200.143 189.818 197.002L194.262 191.273L178.775 179.26L174.04 185.364ZM176.578 191.351C174.84 190.003 174.794 188.512 176.433 186.398L178.992 183.099L183.97 186.961L181.411 190.259C179.772 192.373 178.316 192.699 176.578 191.351Z" fill="black"/>
<path d="M185.946 188.493L186.559 187.703L185.768 187.09L185.156 187.88L185.946 188.493ZM190.489 192.017L191.279 192.63L191.892 191.84L191.102 191.227L190.489 192.017ZM180.537 193.631L181.465 194.001L179.89 192.868L180.537 193.631ZM194.262 191.273L195.052 191.886L195.665 191.096L194.875 190.483L194.262 191.273ZM178.775 179.26L179.388 178.47L178.597 177.857L177.984 178.647L178.775 179.26ZM178.992 183.099L179.605 182.309L178.815 181.696L178.202 182.486L178.992 183.099ZM183.97 186.961L184.76 187.573L185.373 186.783L184.583 186.17L183.97 186.961ZM185.333 189.283L189.876 192.807L191.102 191.227L186.559 187.703L185.333 189.283ZM189.699 191.404L187.4 194.367L188.981 195.593L191.279 192.63L189.699 191.404ZM187.4 194.367C186.702 195.268 186.141 195.671 185.707 195.794C185.352 195.894 184.911 195.853 184.264 195.351L183.038 196.932C184.031 197.702 185.117 198.038 186.25 197.719C187.304 197.422 188.193 196.608 188.981 195.593L187.4 194.367ZM184.264 195.351C183.618 194.85 183.468 194.433 183.477 194.064C183.487 193.613 183.739 192.97 184.437 192.069L182.857 190.843C182.07 191.858 181.503 192.922 181.477 194.017C181.45 195.194 182.045 196.161 183.038 196.932L184.264 195.351ZM184.437 192.069L186.736 189.106L185.156 187.88L182.857 190.843L184.437 192.069ZM173.25 184.751C171.908 186.481 171.207 188.222 171.356 189.932C171.506 191.661 172.506 193.128 174.069 194.341L175.295 192.76C174.014 191.767 173.436 190.76 173.348 189.758C173.259 188.736 173.659 187.487 174.83 185.977L173.25 184.751ZM174.069 194.341C175.156 195.184 176.383 195.672 177.641 195.699C178.908 195.727 180.132 195.285 181.183 194.394L179.89 192.868C179.187 193.463 178.432 193.716 177.684 193.7C176.927 193.683 176.104 193.388 175.295 192.76L174.069 194.341ZM179.608 193.26C179.184 194.322 179.089 195.441 179.4 196.52C179.71 197.597 180.402 198.557 181.419 199.346L182.645 197.765C181.904 197.191 181.496 196.57 181.322 195.966C181.149 195.365 181.185 194.703 181.465 194.001L179.608 193.26ZM181.419 199.346C182.922 200.512 184.547 201.046 186.211 200.719C187.844 200.399 189.309 199.289 190.608 197.615L189.028 196.389C187.89 197.855 186.806 198.564 185.826 198.757C184.878 198.943 183.828 198.683 182.645 197.765L181.419 199.346ZM190.608 197.615L195.052 191.886L193.471 190.66L189.028 196.389L190.608 197.615ZM194.875 190.483L179.388 178.47L178.162 180.05L193.649 192.063L194.875 190.483ZM177.984 178.647L173.25 184.751L174.83 185.977L179.565 179.873L177.984 178.647ZM177.191 190.561C176.455 189.99 176.25 189.529 176.239 189.132C176.225 188.675 176.453 188.005 177.224 187.011L175.643 185.785C174.774 186.905 174.205 188.037 174.239 189.191C174.275 190.405 174.963 191.364 175.965 192.141L177.191 190.561ZM177.224 187.011L179.782 183.712L178.202 182.486L175.643 185.785L177.224 187.011ZM178.379 183.889L183.357 187.751L184.583 186.17L179.605 182.309L178.379 183.889ZM183.18 186.348L180.621 189.646L182.202 190.872L184.76 187.573L183.18 186.348ZM180.621 189.646C179.851 190.64 179.258 191.027 178.812 191.128C178.424 191.215 177.927 191.132 177.191 190.561L175.965 192.141C176.967 192.919 178.067 193.346 179.252 193.079C180.378 192.825 181.333 191.992 182.202 190.872L180.621 189.646Z" fill="black"/>
<path d="M158.97 199.694C154.117 203.391 155.863 208.158 159.06 212.354C162.241 216.53 166.409 219.484 171.241 215.803C176.153 212.061 174.337 207.284 171.171 203.128C167.989 198.952 163.902 195.937 158.97 199.694ZM160.5 201.703C163.443 199.461 166.001 201.127 168.864 204.885C171.682 208.584 172.659 211.517 169.696 213.774C166.772 216.001 164.185 214.296 161.367 210.597C158.488 206.818 157.596 203.915 160.5 201.703Z" fill="black"/>
<path d="M158.364 198.899C155.683 200.941 154.733 203.388 155.002 205.942C155.26 208.395 156.63 210.815 158.264 212.96L159.855 211.748C158.293 209.698 157.191 207.636 156.991 205.732C156.801 203.929 157.404 202.144 159.576 200.49L158.364 198.899ZM158.264 212.96C159.893 215.098 161.867 217.056 164.167 217.956C166.559 218.893 169.174 218.635 171.847 216.598L170.635 215.007C168.476 216.652 166.591 216.758 164.896 216.094C163.109 215.394 161.408 213.787 159.855 211.748L158.264 212.96ZM171.847 216.598C174.557 214.533 175.506 212.072 175.23 209.513C174.964 207.057 173.584 204.645 171.966 202.522L170.375 203.734C171.924 205.767 173.035 207.821 173.241 209.728C173.436 211.532 172.837 213.33 170.635 215.007L171.847 216.598ZM171.966 202.522C170.343 200.391 168.389 198.414 166.095 197.506C163.702 196.559 161.081 196.829 158.364 198.899L159.576 200.49C161.79 198.803 163.679 198.701 165.359 199.366C167.136 200.07 168.817 201.689 170.375 203.734L171.966 202.522ZM161.106 202.498C161.739 202.016 162.295 201.787 162.788 201.716C163.275 201.646 163.771 201.72 164.306 201.958C165.426 202.455 166.653 203.633 168.068 205.491L169.659 204.279C168.211 202.378 166.728 200.845 165.118 200.13C164.288 199.761 163.413 199.605 162.503 199.736C161.6 199.866 160.733 200.269 159.894 200.908L161.106 202.498ZM168.068 205.491C169.461 207.319 170.273 208.807 170.459 210.022C170.548 210.602 170.49 211.102 170.294 211.556C170.096 212.016 169.726 212.494 169.09 212.979L170.302 214.57C171.147 213.926 171.767 213.191 172.13 212.35C172.496 211.504 172.574 210.616 172.436 209.719C172.17 207.978 171.085 206.15 169.659 204.279L168.068 205.491ZM169.09 212.979C168.465 213.455 167.913 213.679 167.422 213.747C166.935 213.813 166.438 213.735 165.9 213.495C164.777 212.993 163.553 211.817 162.162 209.991L160.571 211.203C161.998 213.076 163.477 214.602 165.083 215.321C165.91 215.69 166.784 215.853 167.693 215.728C168.597 215.605 169.465 215.207 170.302 214.57L169.09 212.979ZM162.162 209.991C160.741 208.125 159.934 206.625 159.754 205.415C159.668 204.836 159.728 204.341 159.922 203.894C160.12 203.441 160.484 202.973 161.106 202.498L159.894 200.908C159.064 201.539 158.451 202.263 158.089 203.095C157.724 203.933 157.642 204.814 157.776 205.71C158.035 207.449 159.114 209.29 160.571 211.203L162.162 209.991Z" fill="black"/>
<path d="M139.273 221.834C138.165 219.101 137.92 217.365 138.28 215.925C138.576 214.725 139.482 213.9 141.011 213.28L144.579 211.833L150.046 225.317L146.478 226.763C144.949 227.383 143.724 227.422 142.676 226.767C141.415 225.984 140.382 224.568 139.273 221.834ZM136.586 222.924C137.61 225.449 138.828 227.788 140.946 229.087C142.646 230.152 144.693 230.212 147.172 229.207L153.683 226.567L146.318 208.403L139.808 211.043C137.329 212.048 135.901 213.517 135.423 215.465C134.807 217.872 135.562 220.399 136.586 222.924Z" fill="black"/>
<path d="M138.28 215.925L139.25 216.167L139.251 216.164L138.28 215.925ZM144.579 211.833L145.506 211.457L145.13 210.53L144.203 210.906L144.579 211.833ZM150.046 225.317L150.422 226.243L151.349 225.868L150.973 224.941L150.046 225.317ZM142.676 226.767L143.206 225.919L143.204 225.918L142.676 226.767ZM140.946 229.087L141.477 228.24L141.469 228.235L140.946 229.087ZM153.683 226.567L154.058 227.494L154.985 227.118L154.609 226.191L153.683 226.567ZM146.318 208.403L147.245 208.028L146.869 207.101L145.942 207.477L146.318 208.403ZM135.423 215.465L136.392 215.712L136.394 215.703L135.423 215.465ZM140.2 221.459C139.117 218.787 138.968 217.297 139.25 216.167L137.31 215.682C136.872 217.434 137.213 219.414 138.347 222.21L140.2 221.459ZM139.251 216.164C139.439 215.401 140.011 214.764 141.387 214.206L140.636 212.353C138.953 213.035 137.713 214.05 137.309 215.685L139.251 216.164ZM141.387 214.206L144.955 212.76L144.203 210.906L140.636 212.353L141.387 214.206ZM143.652 212.209L149.12 225.692L150.973 224.941L145.506 211.457L143.652 212.209ZM149.671 224.39L146.103 225.837L146.854 227.69L150.422 226.243L149.671 224.39ZM146.103 225.837C144.727 226.394 143.873 226.335 143.206 225.919L142.147 227.615C143.575 228.508 145.172 228.372 146.854 227.69L146.103 225.837ZM143.204 225.918C142.214 225.304 141.283 224.13 140.2 221.459L138.347 222.21C139.481 225.007 140.615 226.664 142.149 227.617L143.204 225.918ZM135.659 223.3C136.687 225.835 138.004 228.456 140.424 229.94L141.469 228.235C139.652 227.12 138.533 225.064 137.513 222.548L135.659 223.3ZM140.416 229.935C142.465 231.218 144.868 231.22 147.548 230.133L146.797 228.28C144.518 229.204 142.827 229.085 141.477 228.24L140.416 229.935ZM147.548 230.133L154.058 227.494L153.307 225.64L146.797 228.28L147.548 230.133ZM154.609 226.191L147.245 208.028L145.391 208.779L152.756 226.943L154.609 226.191ZM145.942 207.477L139.432 210.116L140.183 211.97L146.694 209.33L145.942 207.477ZM139.432 210.116C136.752 211.203 135.028 212.878 134.452 215.226L136.394 215.703C136.774 214.156 137.905 212.893 140.183 211.97L139.432 210.116ZM134.454 215.217C133.751 217.967 134.631 220.765 135.659 223.3L137.513 222.548C136.493 220.033 135.864 217.778 136.392 215.712L134.454 215.217Z" fill="black"/>
<path d="M110.205 217.645L119.043 236.325L122.444 235.917L126.588 215.679L123.609 216.037L122.762 220.519L115.067 221.442L113.184 217.287L110.205 217.645ZM116.162 223.854L122.293 223.119L120.388 233.268L116.162 223.854Z" fill="black"/>
<path d="M110.205 217.645L110.086 216.652L108.707 216.817L109.301 218.072L110.205 217.645ZM119.043 236.325L118.139 236.753L118.447 237.404L119.162 237.318L119.043 236.325ZM122.444 235.917L122.563 236.91L123.279 236.824L123.423 236.118L122.444 235.917ZM126.588 215.679L127.567 215.88L127.845 214.521L126.468 214.686L126.588 215.679ZM123.609 216.037L123.49 215.044L122.762 215.131L122.626 215.851L123.609 216.037ZM122.762 220.519L122.881 221.512L123.608 221.425L123.744 220.705L122.762 220.519ZM115.067 221.442L114.156 221.855L114.459 222.523L115.186 222.435L115.067 221.442ZM113.184 217.287L114.094 216.874L113.792 216.207L113.065 216.294L113.184 217.287ZM116.162 223.854L116.043 222.861L114.693 223.023L115.25 224.264L116.162 223.854ZM122.293 223.119L123.276 223.303L123.527 221.963L122.174 222.126L122.293 223.119ZM120.388 233.268L119.476 233.677L120.783 236.588L121.371 233.452L120.388 233.268ZM109.301 218.072L118.139 236.753L119.947 235.897L111.109 217.217L109.301 218.072ZM119.162 237.318L122.563 236.91L122.324 234.924L118.924 235.332L119.162 237.318ZM123.423 236.118L127.567 215.88L125.608 215.479L121.464 235.716L123.423 236.118ZM126.468 214.686L123.49 215.044L123.728 217.029L126.707 216.672L126.468 214.686ZM122.626 215.851L121.779 220.334L123.744 220.705L124.592 216.222L122.626 215.851ZM122.643 219.527L114.948 220.45L115.186 222.435L122.881 221.512L122.643 219.527ZM115.978 221.03L114.094 216.874L112.273 217.7L114.156 221.855L115.978 221.03ZM113.065 216.294L110.086 216.652L110.324 218.637L113.303 218.28L113.065 216.294ZM116.281 224.847L122.412 224.112L122.174 222.126L116.043 222.861L116.281 224.847ZM121.31 222.934L119.406 233.083L121.371 233.452L123.276 223.303L121.31 222.934ZM121.301 232.858L117.074 223.445L115.25 224.264L119.476 233.677L121.301 232.858Z" fill="black"/>
<path d="M109.95 81C82.35 81 60 103.4 60 131C60 158.6 82.35 181 109.95 181C137.6 181 160 158.6 160 131C160 103.4 137.6 81 109.95 81ZM92.5 111C96.65 111 100 114.35 100 118.5C100 122.65 96.65 126 92.5 126C88.35 126 85 122.65 85 118.5C85 114.35 88.35 111 92.5 111ZM110 161C98.6 161 88.9 152.7 85 141H135C131.1 152.7 121.4 161 110 161ZM127.5 126C123.35 126 120 122.65 120 118.5C120 114.35 123.35 111 127.5 111C131.65 111 135 114.35 135 118.5C135 122.65 131.65 126 127.5 126Z" fill="#FFAE1B"/>
</svg>
