<svg width="216" height="288" viewBox="0 0 216 288" fill="none" xmlns="http://www.w3.org/2000/svg">
<path d="M144.092 24.9811C143.492 26.4142 143.075 27.879 143.385 29.2388C143.657 30.4003 144.429 31.3466 145.927 31.9746C148.328 32.9816 150.373 32.1237 151.38 30.0109L149.495 29.2205C148.911 30.4328 147.869 30.8914 146.603 30.3608C145.855 30.0467 145.444 29.5407 145.314 28.9093C145.178 28.1843 145.322 27.3338 145.977 25.7716C146.622 24.2352 147.133 23.5235 147.74 23.1253C148.281 22.7755 148.93 22.7135 149.679 23.0275C150.944 23.5581 151.347 24.623 150.892 25.8895L152.777 26.68C153.578 24.4806 152.762 22.4078 150.361 21.4007C148.863 20.7727 147.642 20.898 146.623 21.5182C145.435 22.2499 144.688 23.561 144.092 24.9811ZM151.297 34.014L157.584 36.6507L158.261 35.0368L153.871 33.196L157.477 24.5975L155.579 23.8016L151.297 34.014ZM164.79 27.6641L162.892 26.8682L158.609 37.0806L160.507 37.8765L164.79 27.6641ZM164.076 33.3615C163.475 34.7946 163.058 36.2594 163.369 37.6191C163.641 38.7807 164.413 39.7269 165.91 40.355C168.312 41.362 170.357 40.5041 171.364 38.3913L169.479 37.6008C168.895 38.8132 167.853 39.2717 166.587 38.7411C165.838 38.4271 165.428 37.9211 165.298 37.2897C165.162 36.5646 165.306 35.7142 165.961 34.152C166.606 32.6156 167.117 31.9039 167.724 31.5057C168.265 31.1559 168.914 31.0938 169.663 31.4079C170.928 31.9384 171.331 33.0034 170.876 34.2699L172.761 35.0603C173.562 32.8609 172.746 30.7881 170.345 29.7811C168.847 29.1531 167.626 29.2784 166.606 29.8985C165.419 30.6303 164.672 31.9413 164.076 33.3615ZM182.961 35.2843L180.908 34.4234L176.675 37.567L175.707 37.1609L177.461 32.9779L175.563 32.182L171.28 42.3943L173.178 43.1902L175.035 38.7619L176.004 39.1679L177.026 44.8037L179.104 45.6753L177.868 38.9934L182.961 35.2843ZM184.022 47.7378L185.817 48.4904L186.526 46.7991L184.732 46.0465L184.022 47.7378ZM185.411 44.9345L186.857 45.5409L189.39 39.9693L190.1 38.278L188.305 37.5254L187.596 39.2167L185.411 44.9345Z" fill="black"/>
<path d="M100.785 241.466L100.133 247.179L96.4073 246.754C93.9979 246.479 92.8218 245.54 93.057 243.478C93.2923 241.417 94.6498 240.766 97.0591 241.041L100.785 241.466ZM97.2749 229.667C93.2014 229.203 91.0209 230.891 90.6127 234.468C90.3407 236.853 91.4034 238.785 93.585 239.512C91.7123 239.827 90.4053 241.137 90.1531 243.348C89.7676 246.726 91.5755 248.744 95.5249 249.195L102.728 250.017L104.95 230.543L97.2749 229.667ZM93.477 234.946C93.7265 232.76 94.9767 231.946 97.6345 232.25L101.783 232.723L101.068 238.982L96.9203 238.509C94.2625 238.206 93.2276 237.132 93.477 234.946Z" fill="black"/>
<path d="M100.785 241.466L101.778 241.58L101.892 240.586L100.898 240.473L100.785 241.466ZM100.133 247.179L100.02 248.173L101.013 248.286L101.127 247.293L100.133 247.179ZM93.585 239.512L93.7508 240.499L93.9012 238.564L93.585 239.512ZM102.728 250.017L102.615 251.01L103.608 251.124L103.722 250.13L102.728 250.017ZM104.95 230.543L105.944 230.656L106.057 229.663L105.064 229.55L104.95 230.543ZM101.783 232.723L102.776 232.836L102.89 231.843L101.896 231.729L101.783 232.723ZM101.068 238.982L100.955 239.976L101.949 240.089L102.062 239.096L101.068 238.982ZM99.7914 241.353L99.1395 247.066L101.127 247.293L101.778 241.58L99.7914 241.353ZM100.246 246.186L96.5206 245.761L96.2939 247.748L100.02 248.173L100.246 246.186ZM96.5206 245.761C95.3878 245.631 94.7523 245.362 94.4219 245.054C94.1518 244.803 93.9578 244.404 94.0506 243.592L92.0635 243.365C91.921 244.614 92.1975 245.716 93.0589 246.518C93.8601 247.264 95.0174 247.602 96.2939 247.748L96.5206 245.761ZM94.0506 243.592C94.1433 242.779 94.4221 242.434 94.7419 242.25C95.1331 242.025 95.8129 241.905 96.9457 242.035L97.1725 240.048C95.896 239.902 94.6924 239.97 93.7436 240.517C92.7236 241.105 92.206 242.116 92.0635 243.365L94.0506 243.592ZM96.9457 242.035L100.672 242.46L100.898 240.473L97.1725 240.048L96.9457 242.035ZM97.3883 228.674C95.2132 228.426 93.3615 228.73 91.9777 229.746C90.5782 230.773 89.8435 232.388 89.6192 234.355L91.6063 234.581C91.7901 232.971 92.3497 231.954 93.1609 231.358C93.9878 230.751 95.2632 230.444 97.1616 230.661L97.3883 228.674ZM89.6192 234.355C89.4632 235.722 89.6835 237.024 90.3131 238.112C90.9474 239.209 91.9613 240.025 93.2689 240.461L93.9012 238.564C93.0272 238.272 92.4188 237.759 92.0444 237.111C91.6652 236.456 91.4902 235.599 91.6063 234.581L89.6192 234.355ZM93.4193 238.526C92.2913 238.716 91.2863 239.216 90.5258 240.042C89.7666 240.866 89.3055 241.956 89.1595 243.235L91.1466 243.461C91.2529 242.53 91.5714 241.859 91.997 241.397C92.4211 240.936 93.006 240.624 93.7508 240.499L93.4193 238.526ZM89.1595 243.235C88.9438 245.125 89.3313 246.791 90.4749 248.043C91.5966 249.272 93.3059 249.948 95.4115 250.188L95.6382 248.201C93.7945 247.991 92.6251 247.432 91.9519 246.695C91.3006 245.982 90.9769 244.949 91.1466 243.461L89.1595 243.235ZM95.4115 250.188L102.615 251.01L102.841 249.023L95.6382 248.201L95.4115 250.188ZM103.722 250.13L105.944 230.656L103.957 230.43L101.735 249.903L103.722 250.13ZM105.064 229.55L97.3883 228.674L97.1616 230.661L104.837 231.537L105.064 229.55ZM94.4706 235.059C94.5762 234.133 94.8636 233.72 95.197 233.503C95.5806 233.254 96.2718 233.101 97.5211 233.243L97.7479 231.256C96.3395 231.095 95.0766 231.197 94.1082 231.826C93.0897 232.487 92.6273 233.572 92.4835 234.832L94.4706 235.059ZM97.5211 233.243L101.669 233.717L101.896 231.729L97.7479 231.256L97.5211 233.243ZM100.789 232.61L100.075 238.869L102.062 239.096L102.776 232.836L100.789 232.61ZM101.182 237.989L97.0336 237.516L96.8069 239.503L100.955 239.976L101.182 237.989ZM97.0336 237.516C95.7843 237.373 95.1455 237.068 94.8278 236.739C94.5518 236.453 94.365 235.985 94.4706 235.059L92.4835 234.832C92.3397 236.092 92.5457 237.255 93.3891 238.128C94.191 238.958 95.3985 239.342 96.8069 239.503L97.0336 237.516Z" fill="black"/>
<path d="M77.2017 224.232C71.5226 222.006 68.3557 225.973 66.4303 230.884C64.514 235.772 64.1543 240.868 69.8101 243.085C75.5591 245.339 78.6976 241.306 80.6048 236.442C82.5211 231.554 82.9739 226.495 77.2017 224.232ZM76.28 226.583C79.7247 227.934 79.6296 230.984 77.9049 235.383C76.2076 239.712 74.2089 242.071 70.7409 240.711C67.3195 239.37 67.4329 236.272 69.1302 231.943C70.864 227.521 72.8819 225.251 76.28 226.583Z" fill="black"/>
<path d="M77.5667 223.301C74.4292 222.071 71.8449 222.53 69.8023 224.086C67.8402 225.581 66.4838 228.008 65.4993 230.519L67.3613 231.25C68.3022 228.85 69.4919 226.837 71.0144 225.677C72.4564 224.578 74.295 224.167 76.8367 225.163L77.5667 223.301ZM65.4993 230.519C64.5183 233.022 63.8707 235.725 64.2956 238.158C64.7374 240.689 66.3162 242.789 69.4451 244.016L70.1751 242.154C67.6483 241.163 66.5789 239.608 66.2657 237.814C65.9355 235.923 66.4259 233.635 67.3613 231.25L65.4993 230.519ZM69.4451 244.016C72.6172 245.26 75.2133 244.792 77.2563 243.227C79.2174 241.724 80.5615 239.292 81.5358 236.807L79.6738 236.077C78.7409 238.456 77.5621 240.473 76.0399 241.639C74.5996 242.743 72.752 243.164 70.1751 242.154L69.4451 244.016ZM81.5358 236.807C82.5136 234.313 83.1877 231.617 82.7722 229.184C82.3388 226.648 80.7473 224.548 77.5667 223.301L76.8367 225.163C79.4283 226.179 80.4965 227.74 80.8007 229.521C81.1227 231.406 80.6123 233.683 79.6738 236.077L81.5358 236.807ZM75.915 227.514C76.6557 227.804 77.1408 228.16 77.4577 228.545C77.7707 228.925 77.9642 229.387 78.0392 229.968C78.1961 231.183 77.8264 232.844 76.9739 235.018L78.8359 235.748C79.7081 233.524 80.2483 231.459 80.0227 229.712C79.9065 228.811 79.5858 227.983 79.0016 227.273C78.4215 226.569 77.6267 226.037 76.645 225.652L75.915 227.514ZM76.9739 235.018C76.135 237.158 75.2852 238.625 74.3442 239.414C73.8943 239.792 73.4368 240.002 72.947 240.07C72.4513 240.139 71.8509 240.072 71.1059 239.78L70.3759 241.642C71.3649 242.03 72.3148 242.178 73.2223 242.051C74.1356 241.924 74.9342 241.53 75.6296 240.947C76.9792 239.814 77.9775 237.938 78.8359 235.748L76.9739 235.018ZM71.1059 239.78C70.3747 239.493 69.8962 239.139 69.5834 238.753C69.2738 238.372 69.0819 237.907 69.0082 237.322C68.8542 236.102 69.2234 234.445 70.0612 232.308L68.1992 231.578C67.3397 233.77 66.8035 235.826 67.0239 237.573C67.1373 238.471 67.4525 239.302 68.0309 240.014C68.6061 240.722 69.3964 241.258 70.3759 241.642L71.1059 239.78ZM70.0612 232.308C70.9175 230.124 71.7805 228.656 72.7207 227.874C73.1704 227.499 73.6248 227.293 74.1081 227.227C74.5972 227.161 75.1867 227.228 75.915 227.514L76.645 225.652C75.6742 225.271 74.7372 225.123 73.8381 225.246C72.9331 225.369 72.1375 225.757 71.4413 226.336C70.0895 227.461 69.0767 229.34 68.1992 231.578L70.0612 232.308Z" fill="black"/>
<path d="M48.053 218.899C49.8135 216.532 51.169 215.422 52.5872 214.981C53.7657 214.611 54.9421 214.956 56.2661 215.941L59.3554 218.238L50.6725 229.914L47.5832 227.616C46.2592 226.631 45.5901 225.604 45.6051 224.369C45.6191 222.884 46.2925 221.266 48.053 218.899ZM45.726 217.169C44.0998 219.355 42.7339 221.611 42.7239 224.096C42.697 226.101 43.7092 227.882 45.8557 229.478L51.4927 233.67L63.1893 217.943L57.5523 213.751C55.4058 212.154 53.409 211.697 51.4964 212.3C49.1193 213.025 47.3522 214.982 45.726 217.169Z" fill="black"/>
<path d="M52.5872 214.981L52.884 215.936L52.8866 215.935L52.5872 214.981ZM59.3554 218.238L60.1578 218.835L60.7546 218.033L59.9522 217.436L59.3554 218.238ZM50.6725 229.914L50.0757 230.716L50.8781 231.313L51.4749 230.51L50.6725 229.914ZM45.6051 224.369L46.605 224.381L46.605 224.378L45.6051 224.369ZM42.7239 224.096L43.7239 224.109L43.7239 224.1L42.7239 224.096ZM51.4927 233.67L50.8959 234.473L51.6983 235.07L52.2951 234.267L51.4927 233.67ZM63.1893 217.943L63.9917 218.54L64.5884 217.737L63.786 217.141L63.1893 217.943ZM51.4964 212.3L51.788 213.257L51.797 213.254L51.4964 212.3ZM48.8554 219.496C50.5755 217.183 51.7721 216.281 52.884 215.936L52.2905 214.026C50.5659 214.562 49.0514 215.881 47.2506 218.302L48.8554 219.496ZM52.8866 215.935C53.6366 215.7 54.4781 215.857 55.6694 216.743L56.8629 215.139C55.4062 214.055 53.8949 213.522 52.2879 214.027L52.8866 215.935ZM55.6694 216.743L58.7587 219.041L59.9522 217.436L56.8629 215.139L55.6694 216.743ZM58.553 217.642L49.8701 229.317L51.4749 230.51L60.1578 218.835L58.553 217.642ZM51.2693 229.111L48.18 226.814L46.9864 228.419L50.0757 230.716L51.2693 229.111ZM48.18 226.814C46.9887 225.928 46.5954 225.167 46.605 224.381L44.6051 224.357C44.5847 226.041 45.5297 227.335 46.9864 228.419L48.18 226.814ZM46.605 224.378C46.616 223.214 47.1353 221.809 48.8554 219.496L47.2506 218.302C45.4498 220.724 44.6221 222.554 44.6051 224.36L46.605 224.378ZM44.9236 216.572C43.2911 218.767 41.7353 221.254 41.7239 224.092L43.7239 224.1C43.7325 221.968 44.9085 219.943 46.5284 217.765L44.9236 216.572ZM41.724 224.082C41.6916 226.5 42.9386 228.555 45.2589 230.28L46.4525 228.676C44.4798 227.209 43.7025 225.702 43.7238 224.109L41.724 224.082ZM45.2589 230.28L50.8959 234.473L52.0894 232.868L46.4525 228.676L45.2589 230.28ZM52.2951 234.267L63.9917 218.54L62.3868 217.346L50.6903 233.074L52.2951 234.267ZM63.786 217.141L58.1491 212.948L56.9555 214.553L62.5925 218.745L63.786 217.141ZM58.1491 212.948C55.8288 211.223 53.5019 210.62 51.1958 211.346L51.797 213.254C53.316 212.775 54.9829 213.086 56.9555 214.553L58.1491 212.948ZM51.2048 211.344C48.4901 212.171 46.5561 214.377 44.9236 216.572L46.5284 217.765C48.1483 215.587 49.7485 213.878 51.788 213.257L51.2048 211.344Z" fill="black"/>
<path d="M36.5359 191.883L25.163 209.138L27.2778 211.832L46.7241 204.862L44.8717 202.502L40.601 204.107L35.8156 198.011L38.3883 194.243L36.5359 191.883ZM34.3234 200.199L38.1363 205.056L28.4742 208.7L34.3234 200.199Z" fill="black"/>
<path d="M36.5359 191.883L37.3225 191.266L36.4651 190.174L35.701 191.333L36.5359 191.883ZM25.163 209.138L24.3281 208.588L23.9317 209.189L24.3764 209.755L25.163 209.138ZM27.2778 211.832L26.4912 212.449L26.9365 213.017L27.6152 212.773L27.2778 211.832ZM46.7241 204.862L47.0615 205.804L48.367 205.336L47.5107 204.245L46.7241 204.862ZM44.8717 202.502L45.6583 201.885L45.2059 201.309L44.52 201.566L44.8717 202.502ZM40.601 204.107L39.8144 204.724L40.2668 205.301L40.9527 205.043L40.601 204.107ZM35.8156 198.011L34.9898 197.447L34.5766 198.052L35.029 198.628L35.8156 198.011ZM38.3883 194.243L39.2141 194.807L39.6273 194.202L39.1749 193.626L38.3883 194.243ZM34.3234 200.199L35.11 199.582L34.2704 198.512L33.4996 199.632L34.3234 200.199ZM38.1363 205.056L38.4891 205.992L39.7645 205.511L38.9229 204.439L38.1363 205.056ZM28.4742 208.7L27.6503 208.133L25.8419 210.761L28.827 209.636L28.4742 208.7ZM35.701 191.333L24.3281 208.588L25.998 209.688L37.3709 192.434L35.701 191.333ZM24.3764 209.755L26.4912 212.449L28.0644 211.215L25.9496 208.52L24.3764 209.755ZM27.6152 212.773L47.0615 205.804L46.3867 203.921L26.9404 210.891L27.6152 212.773ZM47.5107 204.245L45.6583 201.885L44.0851 203.12L45.9375 205.48L47.5107 204.245ZM44.52 201.566L40.2493 203.171L40.9527 205.043L45.2234 203.439L44.52 201.566ZM41.3876 203.489L36.6022 197.393L35.029 198.628L39.8144 204.724L41.3876 203.489ZM36.6415 198.575L39.2141 194.807L37.5625 193.679L34.9898 197.447L36.6415 198.575ZM39.1749 193.626L37.3225 191.266L35.7493 192.501L37.6017 194.861L39.1749 193.626ZM33.5368 200.817L37.3497 205.674L38.9229 204.439L35.11 199.582L33.5368 200.817ZM37.7834 204.121L28.1213 207.764L28.827 209.636L38.4891 205.992L37.7834 204.121ZM29.298 209.267L35.1473 200.766L33.4996 199.632L27.6503 208.133L29.298 209.267Z" fill="black"/>
<path d="M21.2458 187.129L15.9621 189.397L14.4829 185.951C13.5263 183.723 13.7585 182.235 15.6652 181.417C17.572 180.598 18.81 181.454 19.7666 183.683L21.2458 187.129ZM29.7493 178.228C28.132 174.46 25.584 173.405 22.2759 174.825C20.0705 175.771 18.9194 177.653 19.3705 179.908C18.1682 178.438 16.3821 177.953 14.3375 178.831C11.2132 180.172 10.358 182.743 11.9259 186.396L14.7858 193.058L32.7965 185.326L29.7493 178.228ZM23.282 177.549C25.3036 176.681 26.6302 177.363 27.6854 179.821L29.3323 183.657L23.5431 186.143L21.8963 182.306C20.8411 179.848 21.2604 178.416 23.282 177.549Z" fill="black"/>
<path d="M21.2458 187.129L21.6403 188.048L22.5592 187.653L22.1648 186.734L21.2458 187.129ZM15.9621 189.397L15.0432 189.791L15.4376 190.71L16.3566 190.316L15.9621 189.397ZM19.3705 179.908L18.5964 180.541L20.351 179.712L19.3705 179.908ZM14.7858 193.058L13.8669 193.452L14.2613 194.371L15.1802 193.977L14.7858 193.058ZM32.7965 185.326L33.1909 186.245L34.1098 185.851L33.7154 184.932L32.7965 185.326ZM29.3323 183.657L29.7267 184.576L30.6457 184.182L30.2512 183.263L29.3323 183.657ZM23.5431 186.143L22.6242 186.537L23.0187 187.456L23.9376 187.061L23.5431 186.143ZM20.8514 186.21L15.5676 188.478L16.3566 190.316L21.6403 188.048L20.8514 186.21ZM16.881 189.002L15.4018 185.556L13.564 186.345L15.0432 189.791L16.881 189.002ZM15.4018 185.556C14.952 184.509 14.8706 183.823 14.9738 183.384C15.0582 183.025 15.3078 182.658 16.0597 182.336L15.2708 180.498C14.1159 180.994 13.296 181.781 13.0268 182.926C12.7764 183.992 13.0572 185.165 13.564 186.345L15.4018 185.556ZM16.0597 182.336C16.8116 182.013 17.2488 182.084 17.5675 182.27C17.9572 182.498 18.3979 183.029 18.8477 184.077L20.6855 183.288C20.1787 182.108 19.5222 181.097 18.577 180.544C17.5608 179.95 16.4257 180.002 15.2708 180.498L16.0597 182.336ZM18.8477 184.077L20.3269 187.523L22.1648 186.734L20.6855 183.288L18.8477 184.077ZM30.6682 177.833C29.8046 175.821 28.6214 174.365 27.0531 173.667C25.4672 172.962 23.6999 173.125 21.8815 173.906L22.6704 175.744C24.16 175.104 25.3208 175.085 26.2401 175.494C27.1772 175.911 28.0766 176.866 28.8303 178.622L30.6682 177.833ZM21.8815 173.906C20.6172 174.448 19.5959 175.286 18.9629 176.372C18.3252 177.467 18.1195 178.753 18.3899 180.104L20.351 179.712C20.1703 178.808 20.3147 178.025 20.6911 177.379C21.0723 176.724 21.7293 176.148 22.6704 175.744L21.8815 173.906ZM20.1445 179.275C19.4204 178.389 18.4875 177.765 17.3931 177.514C16.3007 177.264 15.1261 177.404 13.9431 177.912L14.732 179.75C15.5935 179.38 16.3342 179.324 16.9466 179.464C17.5569 179.604 18.1183 179.956 18.5964 180.541L20.1445 179.275ZM13.9431 177.912C12.1944 178.663 10.9407 179.825 10.4203 181.44C9.90993 183.023 10.171 184.843 11.007 186.79L12.8449 186.001C12.1129 184.296 12.0176 183.003 12.3239 182.053C12.6203 181.134 13.3563 180.34 14.732 179.75L13.9431 177.912ZM11.007 186.79L13.8669 193.452L15.7047 192.663L12.8449 186.001L11.007 186.79ZM15.1802 193.977L33.1909 186.245L32.402 184.407L14.3913 192.139L15.1802 193.977ZM33.7154 184.932L30.6682 177.833L28.8303 178.622L31.8776 185.721L33.7154 184.932ZM23.6765 178.468C24.5327 178.1 25.0346 178.144 25.3879 178.326C25.7943 178.536 26.2705 179.06 26.7665 180.215L28.6043 179.426C28.0452 178.124 27.3304 177.078 26.3044 176.549C25.2251 175.992 24.0529 176.129 22.8876 176.63L23.6765 178.468ZM26.7665 180.215L28.4134 184.052L30.2512 183.263L28.6043 179.426L26.7665 180.215ZM28.9378 182.738L23.1487 185.224L23.9376 187.061L29.7267 184.576L28.9378 182.738ZM24.462 185.748L22.8152 181.912L20.9773 182.701L22.6242 186.537L24.462 185.748ZM22.8152 181.912C22.3191 180.756 22.2673 180.05 22.3953 179.611C22.5066 179.229 22.8202 178.835 23.6765 178.468L22.8876 176.63C21.7222 177.13 20.8153 177.885 20.4753 179.051C20.1521 180.159 20.4182 181.398 20.9773 182.701L22.8152 181.912Z" fill="black"/>
<path d="M24.5101 158.103C23.6261 152.067 18.6099 151.286 13.3906 152.05C8.196 152.811 3.59349 155.027 4.47395 161.037C5.36891 167.147 10.4273 167.872 15.5972 167.114C20.7917 166.354 25.4087 164.237 24.5101 158.103ZM22.0118 158.468C22.5481 162.129 19.852 163.56 15.1769 164.245C10.576 164.919 7.5369 164.353 6.99703 160.668C6.4644 157.032 9.20996 155.594 13.8109 154.92C18.5107 154.231 21.4828 154.857 22.0118 158.468Z" fill="black"/>
<path d="M25.4996 157.958C25.0112 154.623 23.3307 152.607 20.966 151.605C18.6946 150.644 15.9143 150.67 13.2456 151.061L13.5355 153.04C16.0861 152.666 18.4236 152.701 20.1861 153.447C21.8554 154.154 23.125 155.546 23.5207 158.247L25.4996 157.958ZM13.2456 151.061C10.5865 151.45 7.91771 152.229 6.01607 153.805C4.03814 155.444 2.99742 157.857 3.48451 161.182L5.4634 160.892C5.07003 158.207 5.89032 156.507 7.29218 155.345C8.77031 154.12 11 153.411 13.5355 153.04L13.2456 151.061ZM3.48451 161.182C3.97832 164.554 5.67225 166.576 8.04499 167.573C10.3225 168.53 13.101 168.491 15.7421 168.104L15.4522 166.125C12.9234 166.495 10.5879 166.472 8.81997 165.729C7.1473 165.026 5.86454 163.631 5.4634 160.892L3.48451 161.182ZM15.7421 168.104C18.3927 167.716 21.0681 166.963 22.9738 165.396C24.961 163.761 25.9947 161.338 25.4996 157.958L23.5207 158.247C23.9241 161.002 23.0987 162.704 21.7033 163.851C20.2266 165.066 17.9962 165.752 15.4522 166.125L15.7421 168.104ZM21.0224 158.613C21.1377 159.401 21.0695 159.998 20.8926 160.464C20.7179 160.925 20.4126 161.322 19.9454 161.675C18.9679 162.414 17.3427 162.917 15.0319 163.256L15.3218 165.235C17.6861 164.888 19.7465 164.333 21.1518 163.27C21.876 162.723 22.4363 162.033 22.7624 161.174C23.0863 160.321 23.1541 159.367 23.0012 158.324L21.0224 158.613ZM15.0319 163.256C12.7579 163.589 11.0626 163.579 9.91046 163.153C9.3595 162.95 8.94972 162.657 8.64759 162.266C8.34187 161.869 8.10245 161.315 7.98647 160.523L6.00759 160.813C6.16155 161.864 6.50445 162.762 7.06418 163.487C7.62748 164.217 8.36625 164.715 9.21765 165.029C10.8702 165.64 12.9949 165.575 15.3218 165.235L15.0319 163.256ZM7.98647 160.523C7.87263 159.746 7.94326 159.154 8.12247 158.692C8.29986 158.234 8.60896 157.836 9.07977 157.482C10.0627 156.743 11.6848 156.242 13.9558 155.909L13.6659 153.93C11.3361 154.271 9.28488 154.826 7.87798 155.884C7.15387 156.428 6.58888 157.114 6.25751 157.969C5.92795 158.82 5.85511 159.772 6.00759 160.813L7.98647 160.523ZM13.9558 155.909C16.2769 155.569 17.9795 155.59 19.1254 156.018C19.6735 156.223 20.0779 156.515 20.3748 156.902C20.6753 157.294 20.909 157.839 21.0224 158.613L23.0012 158.324C22.8501 157.292 22.5139 156.405 21.9615 155.685C21.4055 154.96 20.674 154.462 19.8254 154.145C18.178 153.529 16.0447 153.582 13.6659 153.93L13.9558 155.909Z" fill="black"/>
<path d="M14.6797 130.148C17.6084 130.503 19.2451 131.129 20.3313 132.141C21.237 132.981 21.5208 134.174 21.3227 135.812L20.8604 139.634L6.41568 137.887L6.87799 134.065C7.07612 132.427 7.63614 131.336 8.71596 130.737C10.0123 130.012 11.7511 129.794 14.6797 130.148ZM15.028 127.269C12.3227 126.942 9.68666 126.875 7.52401 128.099C5.76968 129.071 4.7255 130.833 4.40428 133.489L3.56072 140.463L23.0189 142.816L23.8625 135.842C24.1837 133.187 23.5898 131.226 22.1176 129.864C20.3092 128.16 17.7333 127.597 15.028 127.269Z" fill="black"/>
<path d="M20.3313 132.141L19.6494 132.873L19.6514 132.875L20.3313 132.141ZM20.8604 139.634L20.7403 140.627L21.7331 140.747L21.8532 139.754L20.8604 139.634ZM6.41568 137.887L5.42292 137.767L5.30284 138.76L6.2956 138.88L6.41568 137.887ZM8.71596 130.737L9.20146 131.611L9.20384 131.609L8.71596 130.737ZM7.52401 128.099L8.00843 128.974L8.01662 128.97L7.52401 128.099ZM3.56072 140.463L2.56795 140.343L2.44787 141.336L3.44064 141.456L3.56072 140.463ZM23.0189 142.816L22.8988 143.809L23.8916 143.929L24.0117 142.937L23.0189 142.816ZM22.1176 129.864L21.4317 130.592L21.4386 130.599L22.1176 129.864ZM14.5597 131.141C17.4212 131.487 18.7977 132.079 19.6494 132.873L21.0132 131.41C19.6924 130.179 17.7956 129.518 14.7998 129.156L14.5597 131.141ZM19.6514 132.875C20.2277 133.409 20.5082 134.218 20.3299 135.692L22.3155 135.932C22.5335 134.13 22.2463 132.553 21.0112 131.408L19.6514 132.875ZM20.3299 135.692L19.8676 139.514L21.8532 139.754L22.3155 135.932L20.3299 135.692ZM20.9805 138.641L6.53576 136.894L6.2956 138.88L20.7403 140.627L20.9805 138.641ZM7.40845 138.007L7.87075 134.185L5.88522 133.945L5.42292 137.767L7.40845 138.007ZM7.87075 134.185C8.04903 132.711 8.51429 131.992 9.20146 131.611L8.23046 129.862C6.75799 130.68 6.10321 132.143 5.88522 133.945L7.87075 134.185ZM9.20384 131.609C10.2202 131.041 11.6981 130.795 14.5597 131.141L14.7998 129.156C11.804 128.793 9.80448 128.983 8.22808 129.864L9.20384 131.609ZM15.148 126.277C12.4323 125.948 9.50119 125.831 7.03141 127.229L8.01662 128.97C9.87212 127.919 12.2131 127.936 14.9079 128.262L15.148 126.277ZM7.03961 127.224C4.92429 128.396 3.75874 130.498 3.41152 133.369L5.39705 133.609C5.69225 131.168 6.61506 129.746 8.00841 128.974L7.03961 127.224ZM3.41152 133.369L2.56795 140.343L4.55348 140.583L5.39705 133.609L3.41152 133.369ZM3.44064 141.456L22.8988 143.809L23.139 141.824L3.6808 139.47L3.44064 141.456ZM24.0117 142.937L24.8552 135.962L22.8697 135.722L22.0261 142.696L24.0117 142.937ZM24.8552 135.962C25.2025 133.092 24.5717 130.772 22.7967 129.13L21.4386 130.599C22.6079 131.68 23.1649 133.282 22.8697 135.722L24.8552 135.962ZM22.8035 129.137C20.7383 127.19 17.8638 126.605 15.148 126.277L14.9079 128.262C17.6027 128.588 19.8802 129.13 21.4318 130.592L22.8035 129.137Z" fill="black"/>
<path d="M32.424 106.746L11.8004 105.431L10.5103 108.604L26.2091 122.031L27.3391 119.251L23.8274 116.339L26.7465 109.16L31.294 109.525L32.424 106.746ZM24.1061 108.95L21.7803 114.67L13.8233 108.089L24.1061 108.95Z" fill="black"/>
<path d="M32.424 106.746L33.3503 107.122L33.8734 105.836L32.4876 105.748L32.424 106.746ZM11.8004 105.431L11.864 104.433L11.1453 104.387L10.874 105.054L11.8004 105.431ZM10.5103 108.604L9.58397 108.227L9.31238 108.895L9.86035 109.364L10.5103 108.604ZM26.2091 122.031L25.5592 122.79L26.6131 123.692L27.1355 122.407L26.2091 122.031ZM27.3391 119.251L28.2655 119.628L28.5414 118.949L27.9775 118.482L27.3391 119.251ZM23.8274 116.339L22.901 115.963L22.6251 116.641L23.189 117.109L23.8274 116.339ZM26.7465 109.16L26.8264 108.163L26.0961 108.105L25.8201 108.783L26.7465 109.16ZM31.294 109.525L31.2141 110.522L31.9444 110.58L32.2204 109.901L31.294 109.525ZM24.1061 108.95L25.0325 109.327L25.5446 108.067L24.1896 107.954L24.1061 108.95ZM21.7803 114.67L21.1429 115.441L22.1932 116.31L22.7066 115.047L21.7803 114.67ZM13.8233 108.089L13.9068 107.092L10.7277 106.826L13.1859 108.859L13.8233 108.089ZM32.4876 105.748L11.864 104.433L11.7368 106.429L32.3604 107.744L32.4876 105.748ZM10.874 105.054L9.58397 108.227L11.4367 108.98L12.7267 105.807L10.874 105.054ZM9.86035 109.364L25.5592 122.79L26.8591 121.271L11.1603 107.844L9.86035 109.364ZM27.1355 122.407L28.2655 119.628L26.4128 118.875L25.2828 121.654L27.1355 122.407ZM27.9775 118.482L24.4657 115.57L23.189 117.109L26.7008 120.021L27.9775 118.482ZM24.7537 116.716L27.6728 109.537L25.8201 108.783L22.901 115.963L24.7537 116.716ZM26.6665 110.157L31.2141 110.522L31.374 108.528L26.8264 108.163L26.6665 110.157ZM32.2204 109.901L33.3503 107.122L31.4976 106.369L30.3677 109.148L32.2204 109.901ZM23.1798 108.573L20.8539 114.294L22.7066 115.047L25.0325 109.327L23.1798 108.573ZM22.4176 113.9L14.4607 107.318L13.1859 108.859L21.1429 115.441L22.4176 113.9ZM13.7398 109.085L24.0226 109.947L24.1896 107.954L13.9068 107.092L13.7398 109.085Z" fill="black"/>
<path d="M28.9665 91.1106L24.3759 87.6481L26.6341 84.6542C28.0944 82.7182 29.5008 82.182 31.1574 83.4315C32.814 84.681 32.685 86.1807 31.2247 88.1167L28.9665 91.1106ZM40.9135 94.0781C43.3824 90.8048 43.0349 88.0688 40.1608 85.901C38.2447 84.4558 36.0399 84.3898 34.3057 85.9001C34.9856 84.1269 34.5204 82.3356 32.7441 80.9958C30.0296 78.9484 27.3732 79.4812 24.9795 82.6547L20.6138 88.4428L36.2617 100.245L40.9135 94.0781ZM38.2947 88.1259C40.0511 89.4507 40.117 90.9409 38.5062 93.0765L35.9921 96.4097L30.9624 92.616L33.4765 89.2828C35.0873 87.1472 36.5383 86.8011 38.2947 88.1259Z" fill="black"/>
<path d="M28.9665 91.1106L28.3644 91.9089L29.1627 92.5111L29.7649 91.7127L28.9665 91.1106ZM24.3759 87.6481L23.5776 87.0459L22.9754 87.8442L23.7738 88.4464L24.3759 87.6481ZM34.3057 85.9001L33.372 85.5421L34.9625 86.6542L34.3057 85.9001ZM20.6138 88.4428L19.8154 87.8406L19.2132 88.639L20.0116 89.2412L20.6138 88.4428ZM36.2617 100.245L35.6595 101.044L36.4579 101.646L37.0601 100.848L36.2617 100.245ZM35.9921 96.4097L35.39 97.2081L36.1883 97.8102L36.7905 97.0119L35.9921 96.4097ZM30.9624 92.616L30.1641 92.0138L29.5619 92.8122L30.3603 93.4144L30.9624 92.616ZM29.5687 90.3122L24.9781 86.8497L23.7738 88.4464L28.3644 91.9089L29.5687 90.3122ZM25.1743 88.2502L27.4325 85.2564L25.8357 84.052L23.5776 87.0459L25.1743 88.2502ZM27.4325 85.2564C28.1191 84.3461 28.6737 83.9353 29.1065 83.807C29.4604 83.702 29.902 83.7372 30.5553 84.2299L31.7596 82.6331C30.7562 81.8763 29.6663 81.5548 28.5378 81.8895C27.4881 82.2009 26.6094 83.0263 25.8357 84.052L27.4325 85.2564ZM30.5553 84.2299C31.2085 84.7226 31.3636 85.1375 31.3599 85.5066C31.3554 85.958 31.1129 86.6042 30.4263 87.5145L32.0231 88.7189C32.7967 87.6931 33.3489 86.6215 33.3598 85.5266C33.3716 84.3495 32.763 83.3899 31.7596 82.6331L30.5553 84.2299ZM30.4263 87.5145L28.1682 90.5084L29.7649 91.7127L32.0231 88.7189L30.4263 87.5145ZM41.7119 94.6802C43.0302 92.9324 43.7079 91.1825 43.5357 89.4747C43.3616 87.7476 42.3428 86.2943 40.7629 85.1026L39.5586 86.6994C40.8528 87.6755 41.4449 88.6741 41.5458 89.6753C41.6487 90.6957 41.2657 91.9504 40.1151 93.4759L41.7119 94.6802ZM40.7629 85.1026C39.6645 84.2741 38.4309 83.8027 37.1733 83.7922C35.9062 83.7817 34.6884 84.2407 33.649 85.146L34.9625 86.6542C35.6572 86.0491 36.4088 85.786 37.1567 85.7922C37.9141 85.7985 38.7409 86.0826 39.5586 86.6994L40.7629 85.1026ZM35.2395 86.2581C35.6489 85.1901 35.7284 84.0703 35.4031 82.9957C35.0784 81.9231 34.3741 80.9727 33.3462 80.1974L32.1419 81.7942C32.8904 82.3587 33.3069 82.9739 33.4889 83.5752C33.6703 84.1745 33.6424 84.8369 33.372 85.5421L35.2395 86.2581ZM33.3462 80.1974C31.827 79.0515 30.1955 78.5397 28.5357 78.8888C26.9075 79.2312 25.4574 80.3605 24.1812 82.0525L25.7779 83.2569C26.8953 81.7753 27.9702 81.0515 28.9473 80.846C29.8928 80.6472 30.9467 80.8927 32.1419 81.7942L33.3462 80.1974ZM24.1812 82.0525L19.8154 87.8406L21.4121 89.045L25.7779 83.2569L24.1812 82.0525ZM20.0116 89.2412L35.6595 101.044L36.8639 99.4471L21.2159 87.6445L20.0116 89.2412ZM37.0601 100.848L41.7119 94.6802L40.1151 93.4759L35.4633 99.6433L37.0601 100.848ZM37.6925 88.9243C38.4364 89.4854 38.647 89.9431 38.6641 90.3402C38.6838 90.7971 38.4651 91.4704 37.7079 92.4743L39.3046 93.6787C40.1582 92.547 40.7119 91.4074 40.6622 90.2541C40.61 89.041 39.9094 88.0912 38.8969 87.3276L37.6925 88.9243ZM37.7079 92.4743L35.1938 95.8075L36.7905 97.0119L39.3046 93.6787L37.7079 92.4743ZM36.5943 95.6113L31.5646 91.8176L30.3603 93.4144L35.39 97.2081L36.5943 95.6113ZM31.7608 93.2182L34.2749 89.885L32.6782 88.6806L30.1641 92.0138L31.7608 93.2182ZM34.2749 89.885C35.0321 88.8811 35.6195 88.4858 36.0641 88.3792C36.4506 88.2865 36.9486 88.3632 37.6925 88.9243L38.8969 87.3276C37.8844 86.5639 36.7787 86.1512 35.5979 86.4343C34.4753 86.7034 33.5318 87.5489 32.6782 88.6806L34.2749 89.885Z" fill="black"/>
<path d="M55.7888 79.5454C60.5907 75.7836 58.7805 71.0406 55.5275 66.8881C52.2898 62.7553 48.0829 59.8581 43.3007 63.6046C38.4397 67.4126 40.3201 72.1641 43.5423 76.2773C46.78 80.4101 50.9081 83.3689 55.7888 79.5454ZM54.2316 77.5577C51.319 79.8395 48.7391 78.2084 45.8252 74.4889C42.9576 70.8284 41.9409 67.9091 44.8733 65.6119C47.7662 63.3456 50.3769 65.016 53.2446 68.6765C56.1739 72.4157 57.1049 75.3068 54.2316 77.5577Z" fill="black"/>
<path d="M56.4055 80.3326C59.0583 78.2543 59.9753 75.795 59.6717 73.245C59.3801 70.7956 57.978 68.3946 56.3147 66.2714L54.7403 67.5048C56.33 69.5341 57.4595 71.5808 57.6858 73.4814C57.9001 75.2815 57.3212 77.0746 55.1721 78.7582L56.4055 80.3326ZM56.3147 66.2714C54.6573 64.1558 52.6569 62.225 50.3453 61.3556C47.941 60.4513 45.3297 60.7447 42.684 62.8174L43.9174 64.3918C46.054 62.7179 47.9372 62.5867 49.6413 63.2276C51.4381 63.9034 53.16 65.4876 54.7403 67.5048L56.3147 66.2714ZM42.684 62.8174C40.0018 64.9186 39.0865 67.3925 39.3976 69.9474C39.6963 72.3998 41.109 74.7927 42.7551 76.894L44.3295 75.6606C42.7534 73.6487 41.6148 71.6093 41.383 69.7056C41.1636 67.9045 41.7386 66.0986 43.9174 64.3918L42.684 62.8174ZM42.7551 76.894C44.4071 79.0028 46.3876 80.9526 48.694 81.8297C51.0989 82.7442 53.7161 82.4394 56.4055 80.3326L55.1721 78.7582C52.9808 80.4749 51.0935 80.6024 49.4049 79.9603C47.6176 79.2806 45.9151 77.6846 44.3295 75.6606L42.7551 76.894ZM53.6149 76.7705C52.9886 77.2611 52.4359 77.4985 51.9434 77.5761C51.4572 77.6527 50.9607 77.5847 50.4222 77.3544C49.2954 76.8723 48.0527 75.7106 46.6124 73.8722L45.038 75.1056C46.5116 76.9866 48.0157 78.5002 49.6355 79.1932C50.4703 79.5503 51.3471 79.6947 52.2548 79.5517C53.1563 79.4096 54.0183 78.9952 54.8483 78.3449L53.6149 76.7705ZM46.6124 73.8722C45.1951 72.063 44.3628 70.586 44.1606 69.3745C44.0639 68.7952 44.1148 68.2942 44.3049 67.8377C44.4972 67.3757 44.86 66.8926 45.49 66.3991L44.2566 64.8247C43.4203 65.4798 42.8106 66.2231 42.4585 67.069C42.1041 67.9202 42.0385 68.8085 42.1879 69.7038C42.4779 71.4413 43.5877 73.2543 45.038 75.1056L46.6124 73.8722ZM45.49 66.3991C46.1083 65.9147 46.6569 65.6826 47.1475 65.6087C47.6331 65.5356 48.1316 65.6067 48.6725 65.8399C49.8017 66.3268 51.0419 67.4864 52.4574 69.2932L54.0318 68.0598C52.5796 66.2062 51.0806 64.7002 49.4643 64.0034C48.6325 63.6447 47.7567 63.4944 46.8495 63.631C45.9474 63.7669 45.0847 64.1759 44.2566 64.8247L45.49 66.3991ZM52.4574 69.2932C53.9041 71.1399 54.7304 72.6287 54.9271 73.836C55.0212 74.4135 54.968 74.9096 54.7793 75.3594C54.5884 75.8146 54.2307 76.2881 53.6149 76.7705L54.8483 78.3449C55.6692 77.7018 56.2726 76.9698 56.6236 76.1331C56.977 75.2908 57.0467 74.4085 56.9011 73.5144C56.6182 71.7786 55.5144 69.9523 54.0318 68.0598L52.4574 69.2932Z" fill="black"/>
<path d="M75.1837 57.142C76.329 59.8606 76.5973 61.5923 76.2568 63.0379C75.977 64.2409 75.0822 65.079 73.5616 65.7196L70.0136 67.2144L64.3647 53.8057L67.9127 52.311C69.4333 51.6704 70.658 51.6155 71.7144 52.2556C72.9867 53.0218 74.0383 54.4234 75.1837 57.142ZM77.8562 56.0161C76.7982 53.5049 75.5487 51.1829 73.4129 49.9124C71.6992 48.8711 69.651 48.8387 67.1858 49.8773L60.7119 52.6047L68.3214 70.6672L74.7953 67.9398C77.2605 66.9012 78.6681 65.413 79.1201 63.4593C79.7029 61.0435 78.9141 58.5274 77.8562 56.0161Z" fill="black"/>
<path d="M76.2568 63.0379L75.2835 62.8086L75.2829 62.8113L76.2568 63.0379ZM70.0136 67.2144L69.092 67.6026L69.4803 68.5242L70.4018 68.1359L70.0136 67.2144ZM64.3647 53.8057L63.9764 52.8841L63.0549 53.2724L63.4431 54.1939L64.3647 53.8057ZM71.7144 52.2556L71.1962 53.1109L71.1985 53.1123L71.7144 52.2556ZM73.4129 49.9124L72.8936 50.767L72.9017 50.7718L73.4129 49.9124ZM60.7119 52.6047L60.3236 51.6831L59.4021 52.0713L59.7903 52.9929L60.7119 52.6047ZM68.3214 70.6672L67.3998 71.0554L67.7881 71.977L68.7096 71.5888L68.3214 70.6672ZM79.1201 63.4593L78.1479 63.2248L78.1458 63.2339L79.1201 63.4593ZM74.2621 57.5303C75.3812 60.1866 75.5504 61.6753 75.2835 62.8086L77.2302 63.2671C77.6442 61.5093 77.2768 59.5347 76.1052 56.7538L74.2621 57.5303ZM75.2829 62.8113C75.1047 63.5768 74.5415 64.2217 73.1734 64.7981L73.9498 66.6412C75.6228 65.9364 76.8492 64.9049 77.2308 63.2645L75.2829 62.8113ZM73.1734 64.7981L69.6254 66.2928L70.4018 68.1359L73.9498 66.6412L73.1734 64.7981ZM70.9352 66.8261L65.2862 53.4175L63.4431 54.1939L69.092 67.6026L70.9352 66.8261ZM64.7529 54.7273L68.3009 53.2325L67.5244 51.3894L63.9764 52.8841L64.7529 54.7273ZM68.3009 53.2325C69.6691 52.6561 70.5239 52.7035 71.1962 53.1109L72.2326 51.4004C70.7921 50.5276 69.1974 50.6846 67.5244 51.3894L68.3009 53.2325ZM71.1985 53.1123C72.196 53.713 73.143 54.874 74.2621 57.5303L76.1052 56.7538C74.9337 53.9729 73.7774 52.3306 72.2303 51.399L71.1985 53.1123ZM78.7777 55.6279C77.7157 53.1069 76.3633 50.5038 73.9241 49.053L72.9017 50.7718C74.7341 51.8619 75.8808 53.9029 76.9346 56.4044L78.7777 55.6279ZM73.9322 49.0578C71.8659 47.8022 69.4624 47.8331 66.7976 48.9557L67.574 50.7988C69.8396 49.8444 71.5325 49.9399 72.8936 50.767L73.9322 49.0578ZM66.7976 48.9557L60.3236 51.6831L61.1001 53.5262L67.574 50.7988L66.7976 48.9557ZM59.7903 52.9929L67.3998 71.0554L69.243 70.279L61.6334 52.2164L59.7903 52.9929ZM68.7096 71.5888L75.1836 68.8614L74.4071 67.0182L67.9332 69.7456L68.7096 71.5888ZM75.1836 68.8614C77.8484 67.7387 79.5494 66.0404 80.0943 63.6847L78.1458 63.2339C77.7868 64.7856 76.6726 66.0638 74.4071 67.0182L75.1836 68.8614ZM80.0922 63.6938C80.7578 60.935 79.8398 58.1489 78.7777 55.6279L76.9346 56.4044C77.9885 58.9059 78.648 61.1521 78.148 63.2248L80.0922 63.6938Z" fill="black"/>
<path d="M104.306 60.9385L95.2167 42.3793L91.8219 42.8332L87.9518 63.125L90.9253 62.7274L91.7118 58.2336L99.3934 57.2066L101.333 61.336L104.306 60.9385ZM98.2659 54.8099L92.1453 55.6282L93.9127 45.4542L98.2659 54.8099Z" fill="black"/>
<path d="M104.306 60.9385L104.439 61.9296L105.815 61.7456L105.204 60.4986L104.306 60.9385ZM95.2167 42.3793L96.1148 41.9395L95.798 41.2927L95.0842 41.3881L95.2167 42.3793ZM91.8219 42.8332L91.6894 41.842L90.9747 41.9375L90.8396 42.6458L91.8219 42.8332ZM87.9518 63.125L86.9695 62.9376L86.7097 64.3L88.0843 64.1162L87.9518 63.125ZM90.9253 62.7274L91.0578 63.7186L91.7841 63.6215L91.9104 62.8998L90.9253 62.7274ZM91.7118 58.2336L91.5792 57.2424L90.853 57.3395L90.7267 58.0612L91.7118 58.2336ZM99.3934 57.2066L100.299 56.7815L99.9871 56.1183L99.2609 56.2154L99.3934 57.2066ZM101.333 61.336L100.428 61.7611L100.739 62.4243L101.465 62.3272L101.333 61.336ZM98.2659 54.8099L98.3984 55.8011L99.7462 55.6209L99.1725 54.388L98.2659 54.8099ZM92.1453 55.6282L91.1601 55.457L90.9268 56.8L92.2778 56.6193L92.1453 55.6282ZM93.9127 45.4542L94.8193 45.0324L93.4735 42.1399L92.9274 45.2831L93.9127 45.4542ZM105.204 60.4986L96.1148 41.9395L94.3186 42.8191L103.408 61.3783L105.204 60.4986ZM95.0842 41.3881L91.6894 41.842L91.9544 43.8244L95.3492 43.3705L95.0842 41.3881ZM90.8396 42.6458L86.9695 62.9376L88.9341 63.3123L92.8042 43.0205L90.8396 42.6458ZM88.0843 64.1162L91.0578 63.7186L90.7928 61.7363L87.8193 62.1338L88.0843 64.1162ZM91.9104 62.8998L92.6968 58.406L90.7267 58.0612L89.9403 62.5551L91.9104 62.8998ZM91.8443 59.2248L99.5259 58.1978L99.2609 56.2154L91.5792 57.2424L91.8443 59.2248ZM98.4883 57.6317L100.428 61.7611L102.238 60.9109L100.299 56.7815L98.4883 57.6317ZM101.465 62.3272L104.439 61.9296L104.174 59.9473L101.2 60.3448L101.465 62.3272ZM98.1333 53.8187L92.0128 54.637L92.2778 56.6193L98.3984 55.8011L98.1333 53.8187ZM93.1306 55.7993L94.8979 45.6254L92.9274 45.2831L91.1601 55.457L93.1306 55.7993ZM93.006 45.8761L97.3592 55.2317L99.1725 54.388L94.8193 45.0324L93.006 45.8761Z" fill="black"/>
<path d="M116.166 50.1807L116.895 44.4771L120.615 44.9526C123.02 45.26 124.183 46.2152 123.92 48.2735C123.657 50.3317 122.291 50.9636 119.886 50.6561L116.166 50.1807ZM119.516 62.0261C123.583 62.5459 125.786 60.8868 126.243 57.3159C126.547 54.9352 125.51 52.9881 123.339 52.2317C125.216 51.9423 126.54 50.6498 126.822 48.4428C127.253 45.0702 125.473 43.028 121.53 42.524L114.338 41.6048L111.853 61.0466L119.516 62.0261ZM123.385 56.7994C123.106 58.9816 121.845 59.7782 119.192 59.439L115.05 58.9097L115.849 52.6605L119.99 53.1899C122.644 53.529 123.664 54.6172 123.385 56.7994Z" fill="black"/>
<path d="M116.166 50.1807L115.174 50.0539L115.047 51.0458L116.039 51.1726L116.166 50.1807ZM116.895 44.4771L117.022 43.4852L116.03 43.3584L115.903 44.3503L116.895 44.4771ZM123.339 52.2317L123.186 51.2434L123.01 53.176L123.339 52.2317ZM114.338 41.6048L114.465 40.6129L113.473 40.4861L113.347 41.478L114.338 41.6048ZM111.853 61.0466L110.862 60.9198L110.735 61.9118L111.727 62.0386L111.853 61.0466ZM115.05 58.9097L114.058 58.7829L113.931 59.7748L114.923 59.9016L115.05 58.9097ZM115.849 52.6605L115.976 51.6686L114.984 51.5418L114.857 52.5337L115.849 52.6605ZM117.158 50.3075L117.887 44.6039L115.903 44.3503L115.174 50.0539L117.158 50.3075ZM116.768 45.469L120.488 45.9445L120.741 43.9606L117.022 43.4852L116.768 45.469ZM120.488 45.9445C121.619 46.089 122.251 46.3669 122.577 46.679C122.844 46.9342 123.032 47.3351 122.928 48.1467L124.912 48.4002C125.072 47.1536 124.81 46.0478 123.96 45.2339C123.168 44.477 122.016 44.1235 120.741 43.9606L120.488 45.9445ZM122.928 48.1467C122.825 48.9583 122.541 49.2988 122.219 49.4788C121.825 49.6988 121.143 49.8088 120.012 49.6642L119.759 51.6481C121.033 51.811 122.238 51.7588 123.194 51.2251C124.222 50.6514 124.753 49.6469 124.912 48.4002L122.928 48.1467ZM120.012 49.6642L116.293 49.1888L116.039 51.1726L119.759 51.6481L120.012 49.6642ZM119.389 63.018C121.561 63.2956 123.417 63.0159 124.814 62.0191C126.227 61.0111 126.984 59.4056 127.235 57.4427L125.251 57.1891C125.045 58.7971 124.472 59.8066 123.653 60.3909C122.818 60.9864 121.538 61.2764 119.643 61.0341L119.389 63.018ZM127.235 57.4427C127.409 56.0779 127.206 54.7729 126.592 53.6758C125.972 52.5704 124.969 51.7407 123.668 51.2873L123.01 53.176C123.88 53.4791 124.481 54.0011 124.847 54.6536C125.217 55.3143 125.381 56.1732 125.251 57.1891L127.235 57.4427ZM123.491 53.22C124.622 53.0457 125.633 52.5592 126.405 51.7436C127.175 50.9296 127.651 49.8466 127.814 48.5695L125.83 48.316C125.711 49.246 125.384 49.9127 124.952 50.369C124.522 50.8239 123.933 51.1283 123.186 51.2434L123.491 53.22ZM127.814 48.5695C128.055 46.6819 127.69 45.0115 126.564 43.7435C125.459 42.4997 123.759 41.8008 121.657 41.5321L121.403 43.5159C123.244 43.7512 124.406 44.3254 125.069 45.0718C125.71 45.7941 126.02 46.831 125.83 48.316L127.814 48.5695ZM121.657 41.5321L114.465 40.6129L114.212 42.5967L121.403 43.5159L121.657 41.5321ZM113.347 41.478L110.862 60.9198L112.845 61.1734L115.33 41.7316L113.347 41.478ZM111.727 62.0386L119.389 63.018L119.643 61.0341L111.98 60.0547L111.727 62.0386ZM122.393 56.6726C122.275 57.5969 121.982 58.0068 121.646 58.2186C121.259 58.4624 120.566 58.6065 119.318 58.4471L119.065 60.4309C120.471 60.6107 121.735 60.5261 122.712 59.9108C123.739 59.2636 124.216 58.1841 124.377 56.9262L122.393 56.6726ZM119.318 58.4471L115.177 57.9178L114.923 59.9016L119.065 60.4309L119.318 58.4471ZM116.042 59.0365L116.841 52.7873L114.857 52.5337L114.058 58.7829L116.042 59.0365ZM115.722 53.6525L119.863 54.1818L120.117 52.1979L115.976 51.6686L115.722 53.6525ZM119.863 54.1818C121.111 54.3412 121.745 54.6551 122.059 54.9883C122.331 55.2779 122.511 55.7483 122.393 56.6726L124.377 56.9262C124.538 55.6682 124.348 54.5034 123.516 53.6186C122.725 52.7774 121.523 52.3777 120.117 52.1979L119.863 54.1818Z" fill="black"/>
<path d="M139.514 67.732C145.163 70.0351 148.383 66.1104 150.375 61.2259C152.357 56.3645 152.785 51.2745 147.16 48.9808C141.442 46.6493 138.249 50.6392 136.277 55.4774C134.294 60.3389 133.773 65.3911 139.514 67.732ZM140.468 65.3939C137.042 63.9969 137.178 60.9477 138.962 56.5724C140.718 52.2666 142.748 49.9356 146.197 51.3421C149.6 52.7296 149.445 55.8251 147.689 60.1309C145.896 64.5294 143.848 66.772 140.468 65.3939Z" fill="black"/>
<path d="M139.137 68.6579C142.257 69.9303 144.848 69.5064 146.911 67.9778C148.893 66.5095 150.282 64.101 151.301 61.6034L149.449 60.8483C148.475 63.2354 147.259 65.2314 145.721 66.3708C144.264 67.4499 142.42 67.8367 139.892 66.806L139.137 68.6579ZM151.301 61.6034C152.315 59.1149 152.999 56.4202 152.608 53.9818C152.2 51.4455 150.65 49.3238 147.538 48.0548L146.782 49.9068C149.296 50.9316 150.344 52.5016 150.633 54.2991C150.937 56.1945 150.416 58.4755 149.449 60.8483L151.301 61.6034ZM147.538 48.0548C144.383 46.7684 141.78 47.2009 139.716 48.7385C137.735 50.2145 136.358 52.6282 135.351 55.0999L137.203 55.855C138.168 53.4884 139.373 51.4881 140.911 50.3424C142.366 49.2584 144.22 48.8618 146.782 49.9068L147.538 48.0548ZM135.351 55.0999C134.339 57.5805 133.629 60.2673 134.011 62.705C134.41 65.2468 135.973 67.3681 139.137 68.6579L139.892 66.806C137.314 65.755 136.267 64.1796 135.987 62.3948C135.691 60.5058 136.232 58.2358 137.203 55.855L135.351 55.0999ZM140.845 64.4679C140.109 64.1675 139.628 63.8053 139.317 63.4162C139.009 63.032 138.822 62.5672 138.754 61.9854C138.614 60.7679 139.006 59.1125 139.888 56.95L138.036 56.1948C137.134 58.4075 136.566 60.4644 136.768 62.2146C136.872 63.1166 137.181 63.9495 137.756 64.6666C138.326 65.3789 139.114 65.9217 140.09 66.3198L140.845 64.4679ZM139.888 56.95C140.756 54.8218 141.625 53.3664 142.577 52.5899C143.032 52.2186 143.492 52.0142 143.983 51.9527C144.479 51.8905 145.079 51.9659 145.82 52.268L146.575 50.4161C145.591 50.015 144.643 49.8543 143.734 49.9682C142.819 50.0828 142.015 50.4665 141.312 51.0404C139.947 52.1541 138.924 54.0172 138.036 56.1948L139.888 56.95ZM145.82 52.268C146.547 52.5646 147.021 52.9258 147.328 53.3151C147.633 53.7004 147.818 54.1686 147.884 54.7539C148.021 55.9759 147.63 57.628 146.763 59.7534L148.615 60.5085C149.504 58.3281 150.068 56.2795 149.872 54.5304C149.77 53.6301 149.466 52.7952 148.898 52.0753C148.332 51.3594 147.549 50.8133 146.575 50.4161L145.82 52.268ZM146.763 59.7534C145.878 61.9256 144.995 63.3817 144.044 64.1514C143.589 64.5196 143.132 64.7196 142.648 64.7789C142.158 64.8389 141.57 64.7632 140.845 64.4679L140.09 66.3198C141.056 66.7135 141.991 66.8743 142.891 66.764C143.798 66.653 144.599 66.2758 145.303 65.7058C146.669 64.5991 147.708 62.7347 148.615 60.5085L146.763 59.7534Z" fill="black"/>
<path d="M168.588 73.4577C166.796 75.8009 165.426 76.8929 164.001 77.3144C162.818 77.6682 161.646 77.3071 160.336 76.3046L157.278 73.9656L166.118 62.4088L169.176 64.7479C170.486 65.7504 171.142 66.7866 171.11 68.0214C171.076 69.5061 170.381 71.1146 168.588 73.4577ZM170.892 75.2197C172.547 73.0553 173.943 70.8184 173.987 68.3337C174.041 66.3291 173.053 64.5347 170.928 62.9095L165.349 58.6414L153.44 74.2092L159.02 78.4773C161.145 80.1025 163.135 80.5864 165.056 80.0096C167.443 79.3171 169.236 77.3841 170.892 75.2197Z" fill="black"/>
<path d="M164.001 77.3144L163.718 76.3556L163.715 76.3563L164.001 77.3144ZM157.278 73.9656L156.484 73.358L155.876 74.1523L156.67 74.7598L157.278 73.9656ZM166.118 62.4088L166.725 61.6146L165.931 61.007L165.324 61.8013L166.118 62.4088ZM171.11 68.0214L170.11 67.9957L170.11 67.9985L171.11 68.0214ZM173.987 68.3337L172.987 68.3068L172.987 68.3162L173.987 68.3337ZM165.349 58.6414L165.956 57.8471L165.162 57.2395L164.554 58.0338L165.349 58.6414ZM153.44 74.2092L152.646 73.6016L152.039 74.3959L152.833 75.0035L153.44 74.2092ZM165.056 80.0096L164.777 79.0491L164.768 79.0518L165.056 80.0096ZM167.794 72.8502C166.043 75.1396 164.834 76.0251 163.718 76.3556L164.285 78.2733C166.017 77.7607 167.549 76.4621 169.382 74.0653L167.794 72.8502ZM163.715 76.3563C162.962 76.5815 162.123 76.4124 160.943 75.5104L159.728 77.0989C161.17 78.2019 162.674 78.755 164.288 78.2725L163.715 76.3563ZM160.943 75.5104L157.885 73.1713L156.67 74.7598L159.728 77.0989L160.943 75.5104ZM158.072 74.5731L166.912 63.0164L165.324 61.8013L156.484 73.358L158.072 74.5731ZM165.51 63.2031L168.568 65.5422L169.783 63.9536L166.725 61.6146L165.51 63.2031ZM168.568 65.5422C169.747 66.4442 170.13 67.21 170.11 67.9957L172.11 68.0471C172.153 66.3633 171.225 65.0566 169.783 63.9536L168.568 65.5422ZM170.11 67.9985C170.083 69.1625 169.545 70.5608 167.794 72.8502L169.382 74.0653C171.216 71.6685 172.068 69.8498 172.11 68.0443L170.11 67.9985ZM171.686 75.8272C173.348 73.6544 174.937 71.1888 174.987 68.3512L172.987 68.3162C172.95 70.448 171.746 72.4561 170.097 74.6121L171.686 75.8272ZM174.987 68.3606C175.052 65.9436 173.833 63.872 171.536 62.1152L170.321 63.7037C172.273 65.1973 173.03 66.7147 172.987 68.3068L174.987 68.3606ZM171.536 62.1152L165.956 57.8471L164.741 59.4356L170.321 63.7037L171.536 62.1152ZM164.554 58.0338L152.646 73.6016L154.235 74.8167L166.143 59.2489L164.554 58.0338ZM152.833 75.0035L158.413 79.2715L159.628 77.683L154.048 73.4149L152.833 75.0035ZM158.413 79.2715C160.709 81.0284 163.028 81.6628 165.344 80.9673L164.768 79.0518C163.243 79.5099 161.58 79.1766 159.628 77.683L158.413 79.2715ZM165.335 80.97C168.06 80.1792 170.024 78 171.686 75.8272L170.097 74.6121C168.448 76.7681 166.825 78.4551 164.777 79.0492L165.335 80.97Z" fill="black"/>
<path d="M179.739 100.628L191.344 83.5286L189.266 80.8062L169.727 87.5125L171.548 89.8971L175.84 88.3506L180.542 94.5108L177.919 98.2433L179.739 100.628ZM182.064 92.3428L178.317 87.4345L188.027 83.9218L182.064 92.3428Z" fill="black"/>
<path d="M179.739 100.628L178.944 101.235L179.787 102.338L180.566 101.189L179.739 100.628ZM191.344 83.5286L192.172 84.0902L192.576 83.4943L192.139 82.9218L191.344 83.5286ZM189.266 80.8062L190.061 80.1994L189.623 79.6263L188.941 79.8603L189.266 80.8062ZM169.727 87.5125L169.403 86.5667L168.091 87.0169L168.932 88.1193L169.727 87.5125ZM171.548 89.8971L170.753 90.5039L171.197 91.0863L171.886 90.8379L171.548 89.8971ZM175.84 88.3506L176.634 87.7438L176.19 87.1614L175.501 87.4098L175.84 88.3506ZM180.542 94.5108L181.36 95.0859L181.781 94.4864L181.337 93.904L180.542 94.5108ZM177.919 98.2433L177.101 97.6682L176.679 98.2676L177.124 98.85L177.919 98.2433ZM182.064 92.3428L181.269 92.9496L182.094 94.0304L182.88 92.9207L182.064 92.3428ZM178.317 87.4345L177.977 86.4941L176.695 86.9578L177.522 88.0413L178.317 87.4345ZM188.027 83.9218L188.843 84.4998L190.687 81.8962L187.687 82.9815L188.027 83.9218ZM180.566 101.189L192.172 84.0902L190.517 82.967L178.912 100.066L180.566 101.189ZM192.139 82.9218L190.061 80.1994L188.471 81.413L190.549 84.1354L192.139 82.9218ZM188.941 79.8603L169.403 86.5667L170.052 88.4583L189.591 81.752L188.941 79.8603ZM168.932 88.1193L170.753 90.5039L172.342 89.2903L170.522 86.9057L168.932 88.1193ZM171.886 90.8379L176.179 89.2914L175.501 87.4098L171.209 88.9563L171.886 90.8379ZM175.045 88.9573L179.747 95.1176L181.337 93.904L176.634 87.7438L175.045 88.9573ZM179.724 93.9358L177.101 97.6682L178.737 98.8183L181.36 95.0859L179.724 93.9358ZM177.124 98.85L178.944 101.235L180.534 100.021L178.714 97.6365L177.124 98.85ZM182.859 91.736L179.112 86.8277L177.522 88.0413L181.269 92.9496L182.859 91.736ZM178.657 88.3748L188.367 84.8622L187.687 82.9815L177.977 86.4941L178.657 88.3748ZM187.211 83.3439L181.248 91.7649L182.88 92.9207L188.843 84.4998L187.211 83.3439Z" fill="black"/>
<path d="M194.963 105.589L200.277 103.392L201.71 106.858C202.636 109.099 202.384 110.583 200.466 111.375C198.549 112.168 197.322 111.295 196.396 109.054L194.963 105.589ZM186.341 114.374C187.907 118.163 190.44 119.253 193.767 117.877C195.985 116.961 197.162 115.095 196.741 112.834C197.923 114.32 199.703 114.829 201.759 113.979C204.901 112.68 205.791 110.121 204.273 106.448L201.503 99.7474L183.39 107.235L186.341 114.374ZM192.798 115.14C190.765 115.981 189.448 115.281 188.426 112.809L186.831 108.95L192.653 106.544L194.248 110.402C195.27 112.874 194.831 114.3 192.798 115.14Z" fill="black"/>
<path d="M194.963 105.589L194.581 104.664L193.657 105.046L194.039 105.971L194.963 105.589ZM200.277 103.392L201.202 103.01L200.82 102.086L199.895 102.468L200.277 103.392ZM196.741 112.834L197.524 112.211L195.758 113.017L196.741 112.834ZM201.503 99.7474L202.427 99.3654L202.045 98.4412L201.121 98.8232L201.503 99.7474ZM183.39 107.235L183.008 106.31L182.083 106.692L182.465 107.617L183.39 107.235ZM186.831 108.95L186.449 108.026L185.525 108.408L185.907 109.332L186.831 108.95ZM192.653 106.544L193.577 106.162L193.195 105.237L192.271 105.619L192.653 106.544ZM195.345 106.513L200.659 104.316L199.895 102.468L194.581 104.664L195.345 106.513ZM199.353 103.774L200.786 107.24L202.634 106.476L201.202 103.01L199.353 103.774ZM200.786 107.24C201.221 108.293 201.293 108.98 201.184 109.418C201.095 109.776 200.841 110.139 200.084 110.451L200.848 112.299C202.01 111.819 202.84 111.044 203.125 109.901C203.39 108.839 203.125 107.663 202.634 106.476L200.786 107.24ZM200.084 110.451C199.328 110.764 198.892 110.687 198.576 110.496C198.189 110.263 197.756 109.726 197.32 108.672L195.472 109.436C195.963 110.623 196.605 111.643 197.543 112.209C198.551 112.817 199.687 112.78 200.848 112.299L200.084 110.451ZM197.32 108.672L195.888 105.207L194.039 105.971L195.472 109.436L197.32 108.672ZM185.416 114.756C186.253 116.779 187.416 118.251 188.975 118.97C190.551 119.697 192.32 119.558 194.149 118.802L193.385 116.953C191.887 117.573 190.726 117.576 189.812 117.154C188.881 116.725 187.995 115.758 187.265 113.992L185.416 114.756ZM194.149 118.802C195.421 118.276 196.453 117.453 197.101 116.375C197.753 115.288 197.976 114.006 197.724 112.651L195.758 113.017C195.926 113.923 195.771 114.704 195.386 115.345C194.996 115.994 194.332 116.562 193.385 116.953L194.149 118.802ZM195.959 113.457C196.671 114.352 197.595 114.989 198.686 115.254C199.775 115.519 200.951 115.395 202.141 114.903L201.377 113.055C200.511 113.413 199.769 113.459 199.159 113.311C198.55 113.163 197.994 112.802 197.524 112.211L195.959 113.457ZM202.141 114.903C203.9 114.176 205.169 113.031 205.711 111.423C206.243 109.847 206.006 108.024 205.197 106.066L203.348 106.83C204.057 108.544 204.135 109.838 203.816 110.784C203.507 111.7 202.761 112.483 201.377 113.055L202.141 114.903ZM205.197 106.066L202.427 99.3654L200.579 100.129L203.348 106.83L205.197 106.066ZM201.121 98.8232L183.008 106.31L183.772 108.159L201.885 100.672L201.121 98.8232ZM182.465 107.617L185.416 114.756L187.265 113.992L184.314 106.853L182.465 107.617ZM192.416 114.216C191.555 114.572 191.054 114.521 190.703 114.334C190.299 114.119 189.83 113.589 189.35 112.427L187.502 113.191C188.043 114.501 188.744 115.556 189.762 116.099C190.834 116.67 192.008 116.549 193.18 116.064L192.416 114.216ZM189.35 112.427L187.755 108.568L185.907 109.332L187.502 113.191L189.35 112.427ZM187.213 109.874L193.035 107.468L192.271 105.619L186.449 108.026L187.213 109.874ZM191.729 106.926L193.324 110.784L195.172 110.02L193.577 106.162L191.729 106.926ZM193.324 110.784C193.804 111.946 193.846 112.653 193.712 113.09C193.596 113.47 193.277 113.86 192.416 114.216L193.18 116.064C194.352 115.58 195.269 114.837 195.625 113.676C195.963 112.572 195.714 111.33 195.172 110.02L193.324 110.784Z" fill="black"/>
<path d="M191.307 134.568C192.109 140.615 197.115 141.464 202.344 140.77C207.548 140.079 212.18 137.926 211.381 131.904C210.569 125.783 205.521 124.99 200.341 125.677C195.137 126.368 190.491 128.422 191.307 134.568ZM193.81 134.236C193.323 130.568 196.039 129.174 200.722 128.552C205.332 127.94 208.363 128.547 208.853 132.24C209.337 135.883 206.572 137.284 201.962 137.895C197.254 138.52 194.29 137.854 193.81 134.236Z" fill="black"/>
<path d="M190.316 134.7C190.759 138.04 192.412 140.079 194.763 141.112C197.021 142.105 199.802 142.116 202.475 141.761L202.212 139.779C199.657 140.118 197.32 140.052 195.568 139.281C193.908 138.552 192.657 137.143 192.298 134.436L190.316 134.7ZM202.475 141.761C205.139 141.408 207.819 140.665 209.741 139.115C211.741 137.503 212.814 135.104 212.372 131.773L210.39 132.036C210.747 134.726 209.904 136.415 208.486 137.558C206.992 138.763 204.752 139.442 202.212 139.779L202.475 141.761ZM212.372 131.773C211.924 128.395 210.258 126.35 207.899 125.321C205.634 124.333 202.855 124.335 200.209 124.686L200.473 126.669C203.006 126.332 205.341 126.387 207.099 127.154C208.762 127.88 210.026 129.292 210.39 132.036L212.372 131.773ZM200.209 124.686C197.554 125.038 194.869 125.754 192.942 127.296C190.933 128.903 189.866 131.313 190.316 134.7L192.298 134.436C191.932 131.677 192.781 129.986 194.191 128.858C195.684 127.663 197.924 127.007 200.473 126.669L200.209 124.686ZM194.801 134.104C194.697 133.316 194.773 132.719 194.956 132.255C195.137 131.797 195.448 131.404 195.92 131.057C196.907 130.331 198.539 129.851 200.854 129.543L200.591 127.561C198.222 127.875 196.154 128.402 194.735 129.446C194.003 129.984 193.434 130.666 193.096 131.52C192.761 132.369 192.68 133.322 192.819 134.367L194.801 134.104ZM200.854 129.543C203.132 129.241 204.827 129.274 205.974 129.715C206.522 129.926 206.928 130.224 207.224 130.62C207.525 131.02 207.757 131.578 207.862 132.371L209.844 132.108C209.705 131.055 209.374 130.152 208.824 129.419C208.271 128.682 207.539 128.174 206.692 127.848C205.048 127.216 202.922 127.251 200.591 127.561L200.854 129.543ZM207.862 132.371C207.965 133.15 207.887 133.74 207.701 134.2C207.518 134.656 207.203 135.049 206.728 135.397C205.735 136.122 204.106 136.602 201.831 136.904L202.094 138.887C204.428 138.577 206.487 138.05 207.908 137.012C208.639 136.477 209.213 135.799 209.556 134.948C209.897 134.102 209.983 133.151 209.844 132.108L207.862 132.371ZM201.831 136.904C199.505 137.213 197.803 137.168 196.663 136.725C196.118 136.513 195.717 136.215 195.426 135.824C195.131 135.428 194.904 134.88 194.801 134.104L192.819 134.367C192.956 135.401 193.28 136.293 193.823 137.02C194.369 137.752 195.094 138.26 195.938 138.589C197.577 139.226 199.711 139.203 202.094 138.887L201.831 136.904Z" fill="black"/>
<path d="M200.759 162.652C197.835 162.258 196.207 161.61 195.135 160.583C194.24 159.731 193.973 158.534 194.193 156.899L194.707 153.084L209.127 155.026L208.613 158.841C208.392 160.477 207.818 161.56 206.73 162.145C205.424 162.852 203.682 163.046 200.759 162.652ZM200.372 165.526C203.072 165.89 205.707 165.993 207.886 164.798C209.653 163.85 210.721 162.102 211.078 159.451L212.016 152.489L192.591 149.873L191.654 156.835C191.297 159.486 191.864 161.454 193.318 162.835C195.103 164.564 197.671 165.162 200.372 165.526Z" fill="black"/>
<path d="M195.135 160.583L195.826 159.861L195.824 159.859L195.135 160.583ZM194.707 153.084L194.84 152.093L193.849 151.959L193.716 152.95L194.707 153.084ZM209.127 155.026L210.118 155.159L210.251 154.168L209.26 154.035L209.127 155.026ZM206.73 162.145L206.256 161.264L206.254 161.265L206.73 162.145ZM207.886 164.798L207.413 163.916L207.405 163.921L207.886 164.798ZM212.016 152.489L213.007 152.622L213.141 151.631L212.15 151.498L212.016 152.489ZM192.591 149.873L192.725 148.881L191.734 148.748L191.6 149.739L192.591 149.873ZM193.318 162.835L194.013 162.117L194.006 162.111L193.318 162.835ZM200.892 161.661C198.036 161.276 196.667 160.666 195.826 159.861L194.443 161.305C195.747 162.554 197.635 163.24 200.625 163.643L200.892 161.661ZM195.824 159.859C195.255 159.317 194.986 158.504 195.184 157.033L193.202 156.766C192.959 158.565 193.225 160.145 194.445 161.307L195.824 159.859ZM195.184 157.033L195.698 153.217L193.716 152.95L193.202 156.766L195.184 157.033ZM194.573 154.075L208.993 156.017L209.26 154.035L194.84 152.093L194.573 154.075ZM208.136 154.892L207.622 158.708L209.604 158.975L210.118 155.159L208.136 154.892ZM207.622 158.708C207.423 160.179 206.948 160.892 206.256 161.264L207.203 163.025C208.687 162.228 209.361 160.774 209.604 158.975L207.622 158.708ZM206.254 161.265C205.23 161.82 203.749 162.046 200.892 161.661L200.625 163.643C203.616 164.046 205.618 163.884 207.206 163.024L206.254 161.265ZM200.238 166.517C202.949 166.882 205.878 167.039 208.367 165.675L207.405 163.921C205.536 164.946 203.195 164.897 200.505 164.535L200.238 166.517ZM208.359 165.679C210.49 164.537 211.683 162.45 212.069 159.585L210.087 159.318C209.759 161.754 208.817 163.164 207.414 163.916L208.359 165.679ZM212.069 159.585L213.007 152.622L211.025 152.355L210.087 159.318L212.069 159.585ZM212.15 151.498L192.725 148.881L192.458 150.864L211.883 153.48L212.15 151.498ZM191.6 149.739L190.663 156.701L192.645 156.968L193.583 150.006L191.6 149.739ZM190.663 156.701C190.277 159.567 190.876 161.895 192.629 163.56L194.006 162.111C192.852 161.013 192.317 159.405 192.645 156.968L190.663 156.701ZM192.622 163.554C194.661 165.528 197.527 166.152 200.238 166.517L200.505 164.535C197.815 164.173 195.545 163.6 194.013 162.117L192.622 163.554Z" fill="black"/>
<path d="M182.7 185.813L203.304 187.407L204.637 184.252L189.121 170.614L187.953 173.377L191.425 176.337L188.41 183.476L183.867 183.05L182.7 185.813ZM191.047 183.722L193.45 178.033L201.317 184.722L191.047 183.722Z" fill="black"/>
<path d="M182.7 185.813L181.779 185.424L181.238 186.703L182.623 186.81L182.7 185.813ZM203.304 187.407L203.227 188.404L203.945 188.459L204.225 187.796L203.304 187.407ZM204.637 184.252L205.558 184.641L205.838 183.977L205.297 183.501L204.637 184.252ZM189.121 170.614L189.781 169.863L188.739 168.947L188.2 170.225L189.121 170.614ZM187.953 173.377L187.032 172.988L186.747 173.663L187.305 174.139L187.953 173.377ZM191.425 176.337L192.347 176.726L192.632 176.051L192.074 175.576L191.425 176.337ZM188.41 183.476L188.316 184.472L189.046 184.54L189.331 183.865L188.41 183.476ZM183.867 183.05L183.961 182.054L183.231 181.986L182.946 182.661L183.867 183.05ZM191.047 183.722L190.126 183.332L189.596 184.585L190.95 184.717L191.047 183.722ZM193.45 178.033L194.097 177.271L193.059 176.389L192.529 177.644L193.45 178.033ZM201.317 184.722L201.22 185.717L204.395 186.027L201.965 183.96L201.317 184.722ZM182.623 186.81L203.227 188.404L203.381 186.41L182.777 184.816L182.623 186.81ZM204.225 187.796L205.558 184.641L203.715 183.863L202.383 187.018L204.225 187.796ZM205.297 183.501L189.781 169.863L188.461 171.365L203.976 185.003L205.297 183.501ZM188.2 170.225L187.032 172.988L188.874 173.767L190.042 171.003L188.2 170.225ZM187.305 174.139L190.777 177.098L192.074 175.576L188.602 172.616L187.305 174.139ZM190.504 175.948L187.488 183.087L189.331 183.865L192.347 176.726L190.504 175.948ZM188.503 182.48L183.961 182.054L183.774 184.045L188.316 184.472L188.503 182.48ZM182.946 182.661L181.779 185.424L183.621 186.202L184.788 183.439L182.946 182.661ZM191.968 184.111L194.371 178.422L192.529 177.644L190.126 183.332L191.968 184.111ZM192.802 178.795L200.669 185.484L201.965 183.96L194.097 177.271L192.802 178.795ZM201.414 183.727L191.144 182.726L190.95 184.717L201.22 185.717L201.414 183.727Z" fill="black"/>
<path d="M185.946 201.493L190.489 205.017L188.191 207.98C186.704 209.896 185.291 210.413 183.651 209.142C182.012 207.87 182.161 206.372 183.647 204.456L185.946 201.493ZM174.04 198.364C171.527 201.604 171.838 204.344 174.682 206.551C176.578 208.022 178.782 208.117 180.537 206.631C179.833 208.394 180.274 210.192 182.032 211.556C184.718 213.639 187.382 213.143 189.818 210.002L194.262 204.273L178.775 192.26L174.04 198.364ZM176.578 204.351C174.84 203.003 174.794 201.512 176.433 199.398L178.992 196.099L183.97 199.961L181.411 203.259C179.772 205.373 178.316 205.699 176.578 204.351Z" fill="black"/>
<path d="M185.946 201.493L186.559 200.703L185.768 200.09L185.156 200.88L185.946 201.493ZM190.489 205.017L191.279 205.63L191.892 204.84L191.102 204.227L190.489 205.017ZM180.537 206.631L181.465 207.001L179.89 205.868L180.537 206.631ZM194.262 204.273L195.052 204.886L195.665 204.096L194.875 203.483L194.262 204.273ZM178.775 192.26L179.388 191.47L178.597 190.857L177.984 191.647L178.775 192.26ZM178.992 196.099L179.605 195.309L178.815 194.696L178.202 195.486L178.992 196.099ZM183.97 199.961L184.76 200.573L185.373 199.783L184.583 199.17L183.97 199.961ZM185.333 202.283L189.876 205.807L191.102 204.227L186.559 200.703L185.333 202.283ZM189.699 204.404L187.4 207.367L188.981 208.593L191.279 205.63L189.699 204.404ZM187.4 207.367C186.702 208.268 186.141 208.671 185.707 208.794C185.352 208.894 184.911 208.853 184.264 208.351L183.038 209.932C184.031 210.702 185.117 211.038 186.25 210.719C187.304 210.422 188.193 209.608 188.981 208.593L187.4 207.367ZM184.264 208.351C183.618 207.85 183.468 207.433 183.477 207.064C183.487 206.613 183.739 205.97 184.437 205.069L182.857 203.843C182.07 204.858 181.503 205.922 181.477 207.017C181.45 208.194 182.045 209.161 183.038 209.932L184.264 208.351ZM184.437 205.069L186.736 202.106L185.156 200.88L182.857 203.843L184.437 205.069ZM173.25 197.751C171.908 199.481 171.207 201.222 171.356 202.932C171.506 204.661 172.506 206.128 174.069 207.341L175.295 205.76C174.014 204.767 173.436 203.76 173.348 202.758C173.259 201.736 173.659 200.487 174.83 198.977L173.25 197.751ZM174.069 207.341C175.156 208.184 176.383 208.672 177.641 208.699C178.908 208.727 180.132 208.285 181.183 207.394L179.89 205.868C179.187 206.463 178.432 206.716 177.684 206.7C176.927 206.683 176.104 206.388 175.295 205.76L174.069 207.341ZM179.608 206.26C179.184 207.322 179.089 208.441 179.4 209.52C179.71 210.597 180.402 211.557 181.419 212.346L182.645 210.765C181.904 210.191 181.496 209.57 181.322 208.966C181.149 208.365 181.185 207.703 181.465 207.001L179.608 206.26ZM181.419 212.346C182.922 213.512 184.547 214.046 186.211 213.719C187.844 213.399 189.309 212.289 190.608 210.615L189.028 209.389C187.89 210.855 186.806 211.564 185.826 211.757C184.878 211.943 183.828 211.683 182.645 210.765L181.419 212.346ZM190.608 210.615L195.052 204.886L193.471 203.66L189.028 209.389L190.608 210.615ZM194.875 203.483L179.388 191.47L178.162 193.05L193.649 205.063L194.875 203.483ZM177.984 191.647L173.25 197.751L174.83 198.977L179.565 192.873L177.984 191.647ZM177.191 203.561C176.455 202.99 176.25 202.529 176.239 202.132C176.225 201.675 176.453 201.005 177.224 200.011L175.643 198.785C174.774 199.905 174.205 201.037 174.239 202.191C174.275 203.405 174.963 204.364 175.965 205.141L177.191 203.561ZM177.224 200.011L179.782 196.712L178.202 195.486L175.643 198.785L177.224 200.011ZM178.379 196.889L183.357 200.751L184.583 199.17L179.605 195.309L178.379 196.889ZM183.18 199.348L180.621 202.646L182.202 203.872L184.76 200.573L183.18 199.348ZM180.621 202.646C179.851 203.64 179.258 204.027 178.812 204.128C178.424 204.215 177.927 204.132 177.191 203.561L175.965 205.141C176.967 205.919 178.067 206.346 179.252 206.079C180.378 205.825 181.333 204.992 182.202 203.872L180.621 202.646Z" fill="black"/>
<path d="M158.97 212.694C154.117 216.391 155.863 221.158 159.06 225.354C162.241 229.53 166.409 232.484 171.241 228.803C176.153 225.061 174.337 220.284 171.171 216.128C167.989 211.952 163.902 208.937 158.97 212.694ZM160.5 214.703C163.443 212.461 166.001 214.127 168.864 217.885C171.682 221.584 172.659 224.517 169.696 226.774C166.772 229.001 164.185 227.296 161.367 223.597C158.488 219.818 157.596 216.915 160.5 214.703Z" fill="black"/>
<path d="M158.364 211.899C155.683 213.941 154.733 216.388 155.002 218.942C155.26 221.395 156.63 223.815 158.264 225.96L159.855 224.748C158.293 222.698 157.191 220.636 156.991 218.732C156.801 216.929 157.404 215.144 159.576 213.49L158.364 211.899ZM158.264 225.96C159.893 228.098 161.867 230.056 164.167 230.956C166.559 231.893 169.174 231.635 171.847 229.598L170.635 228.007C168.476 229.652 166.591 229.758 164.896 229.094C163.109 228.394 161.408 226.787 159.855 224.748L158.264 225.96ZM171.847 229.598C174.557 227.533 175.506 225.072 175.23 222.513C174.964 220.057 173.584 217.645 171.966 215.522L170.375 216.734C171.924 218.767 173.035 220.821 173.241 222.728C173.436 224.532 172.837 226.33 170.635 228.007L171.847 229.598ZM171.966 215.522C170.343 213.391 168.389 211.414 166.095 210.506C163.702 209.559 161.081 209.829 158.364 211.899L159.576 213.49C161.79 211.803 163.679 211.701 165.359 212.366C167.136 213.07 168.817 214.689 170.375 216.734L171.966 215.522ZM161.106 215.498C161.739 215.016 162.295 214.787 162.788 214.716C163.275 214.646 163.771 214.72 164.306 214.958C165.426 215.455 166.653 216.633 168.068 218.491L169.659 217.279C168.211 215.378 166.728 213.845 165.118 213.13C164.288 212.761 163.413 212.605 162.503 212.736C161.6 212.866 160.733 213.269 159.894 213.908L161.106 215.498ZM168.068 218.491C169.461 220.319 170.273 221.807 170.459 223.022C170.548 223.602 170.49 224.102 170.294 224.556C170.096 225.016 169.726 225.494 169.09 225.979L170.302 227.57C171.147 226.926 171.767 226.191 172.13 225.35C172.496 224.504 172.574 223.616 172.436 222.719C172.17 220.978 171.085 219.15 169.659 217.279L168.068 218.491ZM169.09 225.979C168.465 226.455 167.913 226.679 167.422 226.747C166.935 226.813 166.438 226.735 165.9 226.495C164.777 225.993 163.553 224.817 162.162 222.991L160.571 224.203C161.998 226.076 163.477 227.602 165.083 228.321C165.91 228.69 166.784 228.853 167.693 228.728C168.597 228.605 169.465 228.207 170.302 227.57L169.09 225.979ZM162.162 222.991C160.741 221.125 159.934 219.625 159.754 218.415C159.668 217.836 159.728 217.341 159.922 216.894C160.12 216.441 160.484 215.973 161.106 215.498L159.894 213.908C159.064 214.539 158.451 215.263 158.089 216.095C157.724 216.933 157.642 217.814 157.776 218.71C158.035 220.449 159.114 222.29 160.571 224.203L162.162 222.991Z" fill="black"/>
<path d="M139.273 234.834C138.165 232.101 137.92 230.365 138.28 228.925C138.576 227.725 139.482 226.9 141.011 226.28L144.579 224.833L150.046 238.317L146.478 239.763C144.949 240.383 143.724 240.422 142.676 239.767C141.415 238.984 140.382 237.568 139.273 234.834ZM136.586 235.924C137.61 238.449 138.828 240.788 140.946 242.087C142.646 243.152 144.693 243.212 147.172 242.207L153.683 239.567L146.318 221.403L139.808 224.043C137.329 225.048 135.901 226.517 135.423 228.465C134.807 230.872 135.562 233.399 136.586 235.924Z" fill="black"/>
<path d="M138.28 228.925L139.25 229.167L139.251 229.164L138.28 228.925ZM144.579 224.833L145.506 224.457L145.13 223.53L144.203 223.906L144.579 224.833ZM150.046 238.317L150.422 239.243L151.349 238.868L150.973 237.941L150.046 238.317ZM142.676 239.767L143.206 238.919L143.204 238.918L142.676 239.767ZM140.946 242.087L141.477 241.24L141.469 241.235L140.946 242.087ZM153.683 239.567L154.058 240.494L154.985 240.118L154.609 239.191L153.683 239.567ZM146.318 221.403L147.245 221.028L146.869 220.101L145.942 220.477L146.318 221.403ZM135.423 228.465L136.392 228.712L136.394 228.703L135.423 228.465ZM140.2 234.459C139.117 231.787 138.968 230.297 139.25 229.167L137.31 228.682C136.872 230.434 137.213 232.414 138.347 235.21L140.2 234.459ZM139.251 229.164C139.439 228.401 140.011 227.764 141.387 227.206L140.636 225.353C138.953 226.035 137.713 227.05 137.309 228.685L139.251 229.164ZM141.387 227.206L144.955 225.76L144.203 223.906L140.636 225.353L141.387 227.206ZM143.652 225.209L149.12 238.692L150.973 237.941L145.506 224.457L143.652 225.209ZM149.671 237.39L146.103 238.837L146.854 240.69L150.422 239.243L149.671 237.39ZM146.103 238.837C144.727 239.394 143.873 239.335 143.206 238.919L142.147 240.615C143.575 241.508 145.172 241.372 146.854 240.69L146.103 238.837ZM143.204 238.918C142.214 238.304 141.283 237.13 140.2 234.459L138.347 235.21C139.481 238.007 140.615 239.664 142.149 240.617L143.204 238.918ZM135.659 236.3C136.687 238.835 138.004 241.456 140.424 242.94L141.469 241.235C139.652 240.12 138.533 238.064 137.513 235.548L135.659 236.3ZM140.416 242.935C142.465 244.218 144.868 244.22 147.548 243.133L146.797 241.28C144.518 242.204 142.827 242.085 141.477 241.24L140.416 242.935ZM147.548 243.133L154.058 240.494L153.307 238.64L146.797 241.28L147.548 243.133ZM154.609 239.191L147.245 221.028L145.391 221.779L152.756 239.943L154.609 239.191ZM145.942 220.477L139.432 223.116L140.183 224.97L146.694 222.33L145.942 220.477ZM139.432 223.116C136.752 224.203 135.028 225.878 134.452 228.226L136.394 228.703C136.774 227.156 137.905 225.893 140.183 224.97L139.432 223.116ZM134.454 228.217C133.751 230.967 134.631 233.765 135.659 236.3L137.513 235.548C136.493 233.033 135.864 230.778 136.392 228.712L134.454 228.217Z" fill="black"/>
<path d="M110.205 230.645L119.043 249.325L122.444 248.917L126.588 228.679L123.609 229.037L122.762 233.519L115.067 234.442L113.184 230.287L110.205 230.645ZM116.162 236.854L122.293 236.119L120.388 246.268L116.162 236.854Z" fill="black"/>
<path d="M110.205 230.645L110.086 229.652L108.707 229.817L109.301 231.072L110.205 230.645ZM119.043 249.325L118.139 249.753L118.447 250.404L119.162 250.318L119.043 249.325ZM122.444 248.917L122.563 249.91L123.279 249.824L123.423 249.118L122.444 248.917ZM126.588 228.679L127.567 228.88L127.845 227.521L126.468 227.686L126.588 228.679ZM123.609 229.037L123.49 228.044L122.762 228.131L122.626 228.851L123.609 229.037ZM122.762 233.519L122.881 234.512L123.608 234.425L123.744 233.705L122.762 233.519ZM115.067 234.442L114.156 234.855L114.459 235.523L115.186 235.435L115.067 234.442ZM113.184 230.287L114.094 229.874L113.792 229.207L113.065 229.294L113.184 230.287ZM116.162 236.854L116.043 235.861L114.693 236.023L115.25 237.264L116.162 236.854ZM122.293 236.119L123.276 236.303L123.527 234.963L122.174 235.126L122.293 236.119ZM120.388 246.268L119.476 246.677L120.783 249.588L121.371 246.452L120.388 246.268ZM109.301 231.072L118.139 249.753L119.947 248.897L111.109 230.217L109.301 231.072ZM119.162 250.318L122.563 249.91L122.324 247.924L118.924 248.332L119.162 250.318ZM123.423 249.118L127.567 228.88L125.608 228.479L121.464 248.716L123.423 249.118ZM126.468 227.686L123.49 228.044L123.728 230.029L126.707 229.672L126.468 227.686ZM122.626 228.851L121.779 233.334L123.744 233.705L124.592 229.222L122.626 228.851ZM122.643 232.527L114.948 233.45L115.186 235.435L122.881 234.512L122.643 232.527ZM115.978 234.03L114.094 229.874L112.273 230.7L114.156 234.855L115.978 234.03ZM113.065 229.294L110.086 229.652L110.324 231.637L113.303 231.28L113.065 229.294ZM116.281 237.847L122.412 237.112L122.174 235.126L116.043 235.861L116.281 237.847ZM121.31 235.934L119.406 246.083L121.371 246.452L123.276 236.303L121.31 235.934ZM121.301 245.858L117.074 236.445L115.25 237.264L119.476 246.677L121.301 245.858Z" fill="black"/>
<path d="M109.95 94C82.35 94 60 116.4 60 144C60 171.6 82.35 194 109.95 194C137.6 194 160 171.6 160 144C160 116.4 137.6 94 109.95 94ZM92.5 124C96.65 124 100 127.35 100 131.5C100 135.65 96.65 139 92.5 139C88.35 139 85 135.65 85 131.5C85 127.35 88.35 124 92.5 124ZM110 174C98.6 174 88.9 165.7 85 154H135C131.1 165.7 121.4 174 110 174ZM127.5 139C123.35 139 120 135.65 120 131.5C120 127.35 123.35 124 127.5 124C131.65 124 135 127.35 135 131.5C135 135.65 131.65 139 127.5 139Z" fill="#FFAE1B"/>
</svg>
