<svg width="96" height="24" viewBox="0 0 96 24" fill="none" xmlns="http://www.w3.org/2000/svg">
<g clip-path="url(#clip0_6_96)">
<path fill-rule="evenodd" clip-rule="evenodd" d="M10 2H12V22H10V20H8V18H10V6H8V4H10V2ZM6 8V6H8V8H6ZM6 16H4H2V14V10V8H4H6V10H4V14H6V16ZM6 16V18H8V16H6ZM19 11H22V13H19V16H17V13H14V11H17V8H19V11Z" fill="black"/>
<path fill-rule="evenodd" clip-rule="evenodd" d="M36 22L38 22L38 20L40 20L40 18L42 18L42 16L44 16L46 16L46 14L46 10L46 8L44 8L42 8L42 6L40 6L40 4L38 4L38 2L36 2L36 22ZM40 6L40 8L42 8L42 10L44 10L44 14L42 14L42 16L40 16L40 18L38 18L38 6L40 6ZM26 13L34 13L34 11L26 11L26 13Z" fill="black"/>
<line x1="12.5" y1="3" x2="12.5" y2="21" stroke="black"/>
<line x1="35.5" y1="3" x2="35.5" y2="21" stroke="black"/>
<line x1="58.5" y1="3" x2="58.5" y2="21" stroke="black"/>
<line x1="86.5" y1="3" x2="86.5" y2="21" stroke="black"/>
<path fill-rule="evenodd" clip-rule="evenodd" d="M59 22L61 22L61 20L63 20L63 18L65 18L65 16L67 16L69 16L69 14L69 10L69 8L67 8L65 8L65 6L63 6L63 4L61 4L61 2L59 2L59 22ZM63 6L63 8L65 8L65 10L67 10L67 14L65 14L65 16L63 16L63 18L61 18L61 6L63 6ZM52.9998 12.7767L54.9995 12.7767L54.9995 14.7767L56.9995 14.7767L56.9995 12.7767L54.9998 12.7767L54.9998 10.7767L56.9995 10.7767L56.9995 8.77673L54.9995 8.77673L54.9995 10.7767L52.9998 10.7767L52.9998 8.77673L50.9998 8.77673L50.9998 10.7767L52.9998 10.7767L52.9998 12.7767ZM52.9998 12.7767L50.9998 12.7767L50.9998 14.7767L52.9998 14.7767L52.9998 12.7767Z" fill="black"/>
<path fill-rule="evenodd" clip-rule="evenodd" d="M86 2H84V4H82V6H80V8H78H76V10V14V16H78H80V18H82V20H84V22H86V2ZM82 18V16H80V14H78V10H80V8H82V6H84V18H82ZM90 3H88V5H90V7H88V9H90V11H88V13H90V15H88V17H90V19H88V21H90V19H92V17H90V15H92V13H90V11H92V9H90V7H92V5H90V3Z" fill="black"/>
</g>
<defs>
<clipPath id="clip0_6_96">
<rect width="96" height="24" fill="white"/>
</clipPath>
</defs>
</svg>
