<svg width="92" height="92" viewBox="0 0 92 92" fill="none" xmlns="http://www.w3.org/2000/svg">
<g clip-path="url(#clip0_12_150)">
<path d="M85.0999 30.0006V24.0005H78.1998V18.0004H71.2997V0H20.7003V18.0004H13.8002V24.0005H6.90008V30.0006H0V92H92V30.0006H85.0999Z" fill="white"/>
<path d="M85.0999 30.0006V24.0005H78.1998V18.0004H71.2997V12.0003H64.3997V18.0004H57.4996V24.0005H50.5995V30.0006H43.6994V35.9998V92H92V35.9998V30.0006H85.0999Z" fill="#E1E3FA"/>
<path d="M20.7003 18.0004H13.8002V24.0005H20.7003V18.0004Z" fill="black"/>
<path d="M78.1998 18.0004H71.2997V24.0005H78.1998V18.0004Z" fill="black"/>
<path d="M57.4996 18.0004V24.0005H64.3997V18.0004H71.2998V0H20.7003V18.0004H57.4996ZM27.6003 6.00013H64.3997V12.0003H27.6003V6.00013Z" fill="black"/>
<path d="M85.0999 30.0006V24.0005H78.1998V30.0006H57.4996V24.0005H50.5995V30.0006H13.8002V24.0005H6.90008V30.0006H0V92H92V30.0006H85.0999ZM43.6994 86.0008H6.90008V35.9998H43.6994V86.0008ZM85.0999 86.0008H50.5995V35.9998H85.0999V86.0008Z" fill="black"/>
</g>
<defs>
<clipPath id="clip0_12_150">
<rect width="92" height="92" fill="white"/>
</clipPath>
</defs>
</svg>
