<svg width="100" height="101" viewBox="0 0 100 101" fill="none" xmlns="http://www.w3.org/2000/svg">
<g clip-path="url(#clip0_12_125)">
<path d="M100 19.7613H91.6666V13.1742H83.3331V6.5871H66.6662V0H33.3338V6.5871H16.6669V13.1742H8.33345V19.7613H0V81.2398H8.33345V87.8269H16.6669V94.414H33.3338V101H66.6662V94.414H83.3331V87.8269H91.6666V81.2398H100V19.7613Z" fill="#FFA733"/>
<path d="M74.9997 6.5871H66.6662V0H33.3338V6.5871H25.0004V94.414H33.3338V101H66.6662V94.414H74.9997V6.5871Z" fill="#FF5023"/>
<path d="M58.3328 17.5656H49.9993V24.1527H58.3328V17.5656Z" fill="#FFEF2A"/>
<path d="M50.0007 24.1527H41.6672V30.7398H50.0007V24.1527Z" fill="#FFEF2A"/>
<path d="M58.3328 30.7387H49.9993V37.3258H58.3328V30.7387Z" fill="#FFEF2A"/>
<path d="M50.0007 37.3258H41.6672V43.9129H50.0007V37.3258Z" fill="#FFEF2A"/>
<path d="M58.3328 43.9129H49.9993V50.5H58.3328V43.9129Z" fill="#FFEF2A"/>
<path d="M50.0007 50.5H41.6672V57.0871H50.0007V50.5Z" fill="#FFEF2A"/>
<path d="M58.3328 57.0871H49.9993V63.6742H58.3328V57.0871Z" fill="#FFEF2A"/>
<path d="M50.0007 63.6742H41.6672V70.2613H50.0007V63.6742Z" fill="#FFEF2A"/>
<path d="M58.3328 70.2613H49.9993V76.8484H58.3328V70.2613Z" fill="#FFEF2A"/>
<path d="M50.0007 76.8484H41.6672V83.4355H50.0007V76.8484Z" fill="#FFEF2A"/>
<path d="M66.6676 0H33.3338V6.5871H66.6676V0Z" fill="black"/>
<path d="M91.6666 13.1742H83.3331V19.7613H91.6666V13.1742Z" fill="black"/>
<path d="M16.6669 13.1742H8.33344V19.7613H16.6669V13.1742Z" fill="black"/>
<path d="M8.33345 19.7613H0V81.2398H8.33345V19.7613Z" fill="black"/>
<path d="M16.6669 81.2398H8.33344V87.8269H16.6669V81.2398Z" fill="black"/>
<path d="M33.3338 6.5871H16.6669V13.1742H25.0003V87.8269H16.6669V94.414H33.3338V6.5871Z" fill="black"/>
<path d="M74.9996 13.1742H83.3331V6.5871H66.6662V94.414H83.3331V87.8269H74.9996V13.1742Z" fill="black"/>
<path d="M91.6666 81.2398H83.3331V87.8269H91.6666V81.2398Z" fill="black"/>
<path d="M100 19.7613H91.6666V81.2398H100V19.7613Z" fill="black"/>
<path d="M66.6676 94.414H33.3338V101.001H66.6676V94.414Z" fill="black"/>
</g>
<defs>
<clipPath id="clip0_12_125">
<rect width="100" height="101" fill="white"/>
</clipPath>
</defs>
</svg>
