<svg width="342" height="134" viewBox="0 0 342 134" fill="none" xmlns="http://www.w3.org/2000/svg">
<g clip-path="url(#clip0_1039_2313)">
<path d="M24.15 7.35C24.15 7.85 24.0833 8.33333 23.95 8.8C23.8167 9.26666 23.5833 9.68333 23.25 10.05C23.1167 10.25 22.8833 10.5167 22.55 10.85C22.2167 11.15 21.7667 11.5833 21.2 12.15C19.8 13.3167 18.4667 14.55 17.2 15.85C15.9667 17.15 14.7667 18.5167 13.6 19.95C13.2 20.4167 12.8 20.9 12.4 21.4C12 21.9 11.6833 22.4167 11.45 22.95C11.2167 23.4833 11.1 24.05 11.1 24.65C11.1333 25.25 11.3833 25.8667 11.85 26.5C12.6833 27.6667 13.5667 28.7833 14.5 29.85C15.4333 30.9167 16.4333 31.9667 17.5 33C18.1333 33.6667 18.7667 34.3167 19.4 34.95C20.0667 35.5833 20.7 36.2167 21.3 36.85C22.1 37.65 22.5833 38.5 22.75 39.4C22.9167 40.2667 22.8333 41.0333 22.5 41.7C22.1667 42.3667 21.6167 42.85 20.85 43.15C20.1167 43.45 19.2333 43.4 18.2 43C17.6667 42.7667 17.15 42.45 16.65 42.05C16.15 41.6833 15.6667 41.2667 15.2 40.8C14.7333 40.3 14.2833 39.8 13.85 39.3C13.4167 38.8 13.0167 38.3333 12.65 37.9C6.38333 31 3.25 26.4333 3.25 24.2C3.25 22.5 4.46667 20.0333 6.9 16.8C7.83333 15.6333 8.86667 14.4167 10 13.15C11.1333 11.85 12.4 10.5667 13.8 9.3C14.6667 8.43333 15.55 7.58333 16.45 6.75C17.3833 5.88333 18.4 5.15 19.5 4.55C19.9667 4.31667 20.4667 4.21666 21 4.25C21.5667 4.25 22.0833 4.38333 22.55 4.65C23.0167 4.88333 23.4 5.23333 23.7 5.7C24 6.16667 24.15 6.71667 24.15 7.35Z" fill="#4857EC"/>
<path d="M37.1007 39.7821C37.098 39.2821 37.162 38.7984 37.2928 38.331C37.4235 37.8636 37.6546 37.4457 37.9859 37.0772C38.1181 36.8764 38.35 36.6085 38.6815 36.2733C39.0132 35.9715 39.4608 35.5357 40.0243 34.9659C41.4179 33.7916 42.7444 32.551 44.0039 31.244C45.2301 29.9373 46.4226 28.564 47.5814 27.1243C47.9788 26.6554 48.3761 26.1699 48.7734 25.6677C49.1706 25.1655 49.4844 24.6471 49.7148 24.1125C49.9452 23.5779 50.0588 23.0106 50.0555 22.4106C50.0189 21.8108 49.7655 21.1955 49.2953 20.5648C48.4556 19.4027 47.5662 18.2909 46.627 17.2294C45.6878 16.1679 44.682 15.1234 43.6097 14.0959C42.9727 13.4327 42.3358 12.7862 41.699 12.1564C41.0289 11.5267 40.3921 10.8969 39.7886 10.2669C38.9842 9.47127 38.4962 8.62394 38.3246 7.72487C38.1532 6.85913 38.2323 6.09202 38.562 5.42353C38.8916 4.75504 39.439 4.26869 40.204 3.96448C40.9357 3.66046 41.8193 3.7056 42.8548 4.09992C43.3894 4.33032 43.9078 4.64414 44.41 5.04139C44.912 5.4053 45.3976 5.81931 45.8668 6.2834C46.3362 6.78083 46.789 7.27835 47.225 7.77596C47.6611 8.27357 48.0637 8.73804 48.4327 9.16935C54.7372 16.0348 57.8956 20.5842 57.9078 22.8175C57.9172 24.5175 56.7141 26.9908 54.2986 30.2374C53.3717 31.4092 52.345 32.6315 51.2187 33.9044C50.0925 35.2106 48.8329 36.5009 47.4399 37.7752C46.578 38.6467 45.6993 39.5015 44.8039 40.3398C43.8754 41.2115 42.8628 41.9504 41.7661 42.5565C41.3007 42.7924 40.8012 42.8951 40.2677 42.8647C39.7011 42.8678 39.1837 42.7373 38.7156 42.4732C38.2476 42.2425 37.8624 41.8946 37.5598 41.4296C37.2572 40.9646 37.1042 40.4154 37.1007 39.7821Z" fill="#4857EC"/>
</g>
<defs>
<clipPath id="clip0_1039_2313">
<rect width="342" height="134" fill="white"/>
</clipPath>
</defs>
</svg>
