<svg width="200" height="20" viewBox="0 0 200 20" fill="none" xmlns="http://www.w3.org/2000/svg">
<g clip-path="url(#clip0_348_1638)">
<rect width="200" height="20" fill="white"/>
<path d="M9.52447 1.46353C9.67415 1.00287 10.3259 1.00287 10.4755 1.46353L12.1329 6.56434C12.1998 6.77035 12.3918 6.90983 12.6084 6.90983H17.9717C18.4561 6.90983 18.6575 7.52964 18.2656 7.81434L13.9266 10.9668C13.7514 11.0941 13.678 11.3198 13.745 11.5258L15.4023 16.6266C15.552 17.0873 15.0248 17.4704 14.6329 17.1857L10.2939 14.0332C10.1186 13.9059 9.88135 13.9059 9.70611 14.0332L5.3671 17.1857C4.97524 17.4704 4.448 17.0873 4.59768 16.6266L6.25503 11.5258C6.32197 11.3198 6.24864 11.0941 6.07339 10.9668L1.73438 7.81434C1.34253 7.52964 1.54392 6.90983 2.02828 6.90983H7.39159C7.6082 6.90983 7.80018 6.77035 7.86712 6.56434L9.52447 1.46353Z" fill="#FFE34F"/>
<path d="M29.5245 1.46353C29.6741 1.00287 30.3259 1.00287 30.4755 1.46353L32.1329 6.56434C32.1998 6.77035 32.3918 6.90983 32.6084 6.90983H37.9717C38.4561 6.90983 38.6575 7.52964 38.2656 7.81434L33.9266 10.9668C33.7514 11.0941 33.678 11.3198 33.745 11.5258L35.4023 16.6266C35.552 17.0873 35.0248 17.4704 34.6329 17.1857L30.2939 14.0332C30.1186 13.9059 29.8814 13.9059 29.7061 14.0332L25.3671 17.1857C24.9752 17.4704 24.448 17.0873 24.5977 16.6266L26.255 11.5258C26.322 11.3198 26.2486 11.0941 26.0734 10.9668L21.7344 7.81434C21.3425 7.52964 21.5439 6.90983 22.0283 6.90983H27.3916C27.6082 6.90983 27.8002 6.77035 27.8671 6.56434L29.5245 1.46353Z" fill="#FFE34F"/>
<path d="M49.5245 1.46353C49.6741 1.00287 50.3259 1.00287 50.4755 1.46353L52.1329 6.56434C52.1998 6.77035 52.3918 6.90983 52.6084 6.90983H57.9717C58.4561 6.90983 58.6575 7.52964 58.2656 7.81434L53.9266 10.9668C53.7514 11.0941 53.678 11.3198 53.745 11.5258L55.4023 16.6266C55.552 17.0873 55.0248 17.4704 54.6329 17.1857L50.2939 14.0332C50.1186 13.9059 49.8814 13.9059 49.7061 14.0332L45.3671 17.1857C44.9752 17.4704 44.448 17.0873 44.5977 16.6266L46.255 11.5258C46.322 11.3198 46.2486 11.0941 46.0734 10.9668L41.7344 7.81434C41.3425 7.52964 41.5439 6.90983 42.0283 6.90983H47.3916C47.6082 6.90983 47.8002 6.77035 47.8671 6.56434L49.5245 1.46353Z" fill="#FFE34F"/>
<path d="M69.5245 1.46353C69.6741 1.00287 70.3259 1.00287 70.4755 1.46353L72.1329 6.56434C72.1998 6.77035 72.3918 6.90983 72.6084 6.90983H77.9717C78.4561 6.90983 78.6575 7.52964 78.2656 7.81434L73.9266 10.9668C73.7514 11.0941 73.678 11.3198 73.745 11.5258L75.4023 16.6266C75.552 17.0873 75.0248 17.4704 74.6329 17.1857L70.2939 14.0332C70.1186 13.9059 69.8814 13.9059 69.7061 14.0332L65.3671 17.1857C64.9752 17.4704 64.448 17.0873 64.5977 16.6266L66.255 11.5258C66.322 11.3198 66.2486 11.0941 66.0734 10.9668L61.7344 7.81434C61.3425 7.52964 61.5439 6.90983 62.0283 6.90983H67.3916C67.6082 6.90983 67.8002 6.77035 67.8671 6.56434L69.5245 1.46353Z" fill="#FFE34F"/>
<path d="M89.5245 1.46353C89.6741 1.00287 90.3259 1.00287 90.4755 1.46353L92.1329 6.56434C92.1998 6.77035 92.3918 6.90983 92.6084 6.90983H97.9717C98.4561 6.90983 98.6575 7.52964 98.2656 7.81434L93.9266 10.9668C93.7514 11.0941 93.678 11.3198 93.745 11.5258L95.4023 16.6266C95.552 17.0873 95.0248 17.4704 94.6329 17.1857L90.2939 14.0332C90.1186 13.9059 89.8814 13.9059 89.7061 14.0332L85.3671 17.1857C84.9752 17.4704 84.448 17.0873 84.5977 16.6266L86.255 11.5258C86.322 11.3198 86.2486 11.0941 86.0734 10.9668L81.7344 7.81434C81.3425 7.52964 81.5439 6.90983 82.0283 6.90983H87.3916C87.6082 6.90983 87.8002 6.77035 87.8671 6.56434L89.5245 1.46353Z" fill="#FFE34F"/>
<path d="M109.524 1.46353C109.674 1.00287 110.326 1.00287 110.476 1.46353L112.133 6.56434C112.2 6.77035 112.392 6.90983 112.608 6.90983H117.972C118.456 6.90983 118.657 7.52964 118.266 7.81434L113.927 10.9668C113.751 11.0941 113.678 11.3198 113.745 11.5258L115.402 16.6266C115.552 17.0873 115.025 17.4704 114.633 17.1857L110.294 14.0332C110.119 13.9059 109.881 13.9059 109.706 14.0332L105.367 17.1857C104.975 17.4704 104.448 17.0873 104.598 16.6266L106.255 11.5258C106.322 11.3198 106.249 11.0941 106.073 10.9668L101.734 7.81434C101.343 7.52964 101.544 6.90983 102.028 6.90983H107.392C107.608 6.90983 107.8 6.77035 107.867 6.56434L109.524 1.46353Z" fill="#FFE34F"/>
<path d="M129.524 1.46353C129.674 1.00287 130.326 1.00287 130.476 1.46353L132.133 6.56434C132.2 6.77035 132.392 6.90983 132.608 6.90983H137.972C138.456 6.90983 138.657 7.52964 138.266 7.81434L133.927 10.9668C133.751 11.0941 133.678 11.3198 133.745 11.5258L135.402 16.6266C135.552 17.0873 135.025 17.4704 134.633 17.1857L130.294 14.0332C130.119 13.9059 129.881 13.9059 129.706 14.0332L125.367 17.1857C124.975 17.4704 124.448 17.0873 124.598 16.6266L126.255 11.5258C126.322 11.3198 126.249 11.0941 126.073 10.9668L121.734 7.81434C121.343 7.52964 121.544 6.90983 122.028 6.90983H127.392C127.608 6.90983 127.8 6.77035 127.867 6.56434L129.524 1.46353Z" fill="#FFE34F"/>
<path d="M149.524 1.46353C149.674 1.00287 150.326 1.00287 150.476 1.46353L152.133 6.56434C152.2 6.77035 152.392 6.90983 152.608 6.90983H157.972C158.456 6.90983 158.657 7.52964 158.266 7.81434L153.927 10.9668C153.751 11.0941 153.678 11.3198 153.745 11.5258L155.402 16.6266C155.552 17.0873 155.025 17.4704 154.633 17.1857L150.294 14.0332C150.119 13.9059 149.881 13.9059 149.706 14.0332L145.367 17.1857C144.975 17.4704 144.448 17.0873 144.598 16.6266L146.255 11.5258C146.322 11.3198 146.249 11.0941 146.073 10.9668L141.734 7.81434C141.343 7.52964 141.544 6.90983 142.028 6.90983H147.392C147.608 6.90983 147.8 6.77035 147.867 6.56434L149.524 1.46353Z" fill="#FFE34F"/>
<path d="M169.524 1.46353C169.674 1.00287 170.326 1.00287 170.476 1.46353L172.133 6.56434C172.2 6.77035 172.392 6.90983 172.608 6.90983H177.972C178.456 6.90983 178.657 7.52964 178.266 7.81434L173.927 10.9668C173.751 11.0941 173.678 11.3198 173.745 11.5258L175.402 16.6266C175.552 17.0873 175.025 17.4704 174.633 17.1857L170.294 14.0332C170.119 13.9059 169.881 13.9059 169.706 14.0332L165.367 17.1857C164.975 17.4704 164.448 17.0873 164.598 16.6266L166.255 11.5258C166.322 11.3198 166.249 11.0941 166.073 10.9668L161.734 7.81434C161.343 7.52964 161.544 6.90983 162.028 6.90983H167.392C167.608 6.90983 167.8 6.77035 167.867 6.56434L169.524 1.46353Z" fill="#FFE34F"/>
<path d="M190 1.61803L191.657 6.71885C191.791 7.13087 192.175 7.40983 192.608 7.40983H197.972L193.633 10.5623C193.282 10.8169 193.136 11.2683 193.269 11.6803L194.927 16.7812L190.588 13.6287C190.237 13.374 189.763 13.374 189.412 13.6287L185.073 16.7812L186.731 11.6803C186.864 11.2683 186.718 10.8169 186.367 10.5623L182.028 7.40983H187.392C187.825 7.40983 188.209 7.13087 188.343 6.71885L190 1.61803Z" fill="white" stroke="#FFE34F"/>
</g>
<defs>
<clipPath id="clip0_348_1638">
<rect width="200" height="20" fill="white"/>
</clipPath>
</defs>
</svg>
