<svg width="180" height="60" viewBox="0 0 180 60" fill="none" xmlns="http://www.w3.org/2000/svg">
<g clip-path="url(#clip0_353_1655)">
<rect width="180" height="60" fill="white"/>
<circle cx="30" cy="30" r="30" fill="#FFEDE2"/>
<g clip-path="url(#clip1_353_1655)">
<path d="M34.6042 28.0417C35.8123 28.0417 36.7917 27.0623 36.7917 25.8542C36.7917 24.646 35.8123 23.6667 34.6042 23.6667C33.3961 23.6667 32.4167 24.646 32.4167 25.8542C32.4167 27.0623 33.3961 28.0417 34.6042 28.0417Z" fill="#FFA4A4"/>
<path d="M24.3958 28.0417C25.6039 28.0417 26.5833 27.0623 26.5833 25.8542C26.5833 24.646 25.6039 23.6667 24.3958 23.6667C23.1877 23.6667 22.2083 24.646 22.2083 25.8542C22.2083 27.0623 23.1877 28.0417 24.3958 28.0417Z" fill="#FFA4A4"/>
<path d="M34.6042 28.0417C35.8123 28.0417 36.7917 27.0623 36.7917 25.8542C36.7917 24.646 35.8123 23.6667 34.6042 23.6667C33.3961 23.6667 32.4167 24.646 32.4167 25.8542C32.4167 27.0623 33.3961 28.0417 34.6042 28.0417Z" fill="#FFA4A4"/>
<path d="M24.3958 28.0417C25.6039 28.0417 26.5833 27.0623 26.5833 25.8542C26.5833 24.646 25.6039 23.6667 24.3958 23.6667C23.1877 23.6667 22.2083 24.646 22.2083 25.8542C22.2083 27.0623 23.1877 28.0417 24.3958 28.0417Z" fill="#FFA4A4"/>
<path d="M29.4854 14.9167C21.4354 14.9167 14.9167 21.45 14.9167 29.5C14.9167 37.55 21.4354 44.0833 29.4854 44.0833C37.55 44.0833 44.0834 37.55 44.0834 29.5C44.0834 21.45 37.55 14.9167 29.4854 14.9167ZM29.5 41.1667C23.0542 41.1667 17.8334 35.9458 17.8334 29.5C17.8334 23.0542 23.0542 17.8333 29.5 17.8333C35.9459 17.8333 41.1667 23.0542 41.1667 29.5C41.1667 35.9458 35.9459 41.1667 29.5 41.1667ZM29.5 37.5208C32.8979 37.5208 35.8 35.4062 36.9667 32.4167H34.5313C33.525 34.1521 31.6584 35.3333 29.5 35.3333C27.3417 35.3333 25.4896 34.1521 24.4688 32.4167H22.0334C23.2 35.4062 26.1021 37.5208 29.5 37.5208Z" fill="#FFA4A4"/>
</g>
<circle cx="90" cy="30" r="30" fill="#E2FFE3"/>
<g clip-path="url(#clip2_353_1655)">
<path d="M94.6042 28.0417C95.8123 28.0417 96.7917 27.0623 96.7917 25.8542C96.7917 24.646 95.8123 23.6667 94.6042 23.6667C93.3961 23.6667 92.4167 24.646 92.4167 25.8542C92.4167 27.0623 93.3961 28.0417 94.6042 28.0417Z" fill="#AEFFB1"/>
<path d="M84.3958 28.0417C85.6039 28.0417 86.5833 27.0623 86.5833 25.8542C86.5833 24.646 85.6039 23.6667 84.3958 23.6667C83.1877 23.6667 82.2083 24.646 82.2083 25.8542C82.2083 27.0623 83.1877 28.0417 84.3958 28.0417Z" fill="#AEFFB1"/>
<path d="M94.6042 28.0417C95.8123 28.0417 96.7917 27.0623 96.7917 25.8542C96.7917 24.646 95.8123 23.6667 94.6042 23.6667C93.3961 23.6667 92.4167 24.646 92.4167 25.8542C92.4167 27.0623 93.3961 28.0417 94.6042 28.0417Z" fill="#AEFFB1"/>
<path d="M84.3958 28.0417C85.6039 28.0417 86.5833 27.0623 86.5833 25.8542C86.5833 24.646 85.6039 23.6667 84.3958 23.6667C83.1877 23.6667 82.2083 24.646 82.2083 25.8542C82.2083 27.0623 83.1877 28.0417 84.3958 28.0417Z" fill="#AEFFB1"/>
<path d="M89.4854 14.9167C81.4354 14.9167 74.9167 21.45 74.9167 29.5C74.9167 37.55 81.4354 44.0833 89.4854 44.0833C97.55 44.0833 104.083 37.55 104.083 29.5C104.083 21.45 97.55 14.9167 89.4854 14.9167ZM89.5 41.1667C83.0542 41.1667 77.8334 35.9458 77.8334 29.5C77.8334 23.0542 83.0542 17.8333 89.5 17.8333C95.9459 17.8333 101.167 23.0542 101.167 29.5C101.167 35.9458 95.9459 41.1667 89.5 41.1667ZM89.5 37.5208C92.8979 37.5208 95.8 35.4062 96.9667 32.4167H94.5313C93.525 34.1521 91.6584 35.3333 89.5 35.3333C87.3417 35.3333 85.4896 34.1521 84.4688 32.4167H82.0334C83.2 35.4062 86.1021 37.5208 89.5 37.5208Z" fill="#AEFFB1"/>
</g>
<circle cx="150" cy="30" r="30" fill="#E6E2FF"/>
<g clip-path="url(#clip3_353_1655)">
<path d="M154.604 28.0417C155.812 28.0417 156.792 27.0623 156.792 25.8542C156.792 24.646 155.812 23.6667 154.604 23.6667C153.396 23.6667 152.417 24.646 152.417 25.8542C152.417 27.0623 153.396 28.0417 154.604 28.0417Z" fill="#B9ADFF"/>
<path d="M144.396 28.0417C145.604 28.0417 146.583 27.0623 146.583 25.8542C146.583 24.646 145.604 23.6667 144.396 23.6667C143.188 23.6667 142.208 24.646 142.208 25.8542C142.208 27.0623 143.188 28.0417 144.396 28.0417Z" fill="#B9ADFF"/>
<path d="M154.604 28.0417C155.812 28.0417 156.792 27.0623 156.792 25.8542C156.792 24.646 155.812 23.6667 154.604 23.6667C153.396 23.6667 152.417 24.646 152.417 25.8542C152.417 27.0623 153.396 28.0417 154.604 28.0417Z" fill="#B9ADFF"/>
<path d="M144.396 28.0417C145.604 28.0417 146.583 27.0623 146.583 25.8542C146.583 24.646 145.604 23.6667 144.396 23.6667C143.188 23.6667 142.208 24.646 142.208 25.8542C142.208 27.0623 143.188 28.0417 144.396 28.0417Z" fill="#B9ADFF"/>
<path d="M149.485 14.9167C141.435 14.9167 134.917 21.45 134.917 29.5C134.917 37.55 141.435 44.0833 149.485 44.0833C157.55 44.0833 164.083 37.55 164.083 29.5C164.083 21.45 157.55 14.9167 149.485 14.9167ZM149.5 41.1667C143.054 41.1667 137.833 35.9458 137.833 29.5C137.833 23.0542 143.054 17.8333 149.5 17.8333C155.946 17.8333 161.167 23.0542 161.167 29.5C161.167 35.9458 155.946 41.1667 149.5 41.1667ZM149.5 37.5208C152.898 37.5208 155.8 35.4062 156.967 32.4167H154.531C153.525 34.1521 151.658 35.3333 149.5 35.3333C147.342 35.3333 145.49 34.1521 144.469 32.4167H142.033C143.2 35.4062 146.102 37.5208 149.5 37.5208Z" fill="#B9ADFF"/>
</g>
</g>
<defs>
<clipPath id="clip0_353_1655">
<rect width="180" height="60" fill="white"/>
</clipPath>
<clipPath id="clip1_353_1655">
<rect width="35" height="35" fill="white" transform="translate(12 12)"/>
</clipPath>
<clipPath id="clip2_353_1655">
<rect width="35" height="35" fill="white" transform="translate(72 12)"/>
</clipPath>
<clipPath id="clip3_353_1655">
<rect width="35" height="35" fill="white" transform="translate(132 12)"/>
</clipPath>
</defs>
</svg>
