<svg width="847" height="60" viewBox="0 0 847 60" fill="none" xmlns="http://www.w3.org/2000/svg">
<g clip-path="url(#clip0_212_1920)">
<rect width="847" height="60" fill="white"/>
<circle cx="30" cy="30" r="30" fill="#B7C7FF"/>
<circle cx="150" cy="30" r="30" fill="#FFDBDB"/>
<g clip-path="url(#clip1_212_1920)">
<path d="M20.625 30C22.3509 30 23.75 28.6009 23.75 26.875C23.75 25.1491 22.3509 23.75 20.625 23.75C18.8991 23.75 17.5 25.1491 17.5 26.875C17.5 28.6009 18.8991 30 20.625 30Z" fill="white"/>
<path d="M26.25 25C27.9759 25 29.375 23.6009 29.375 21.875C29.375 20.1491 27.9759 18.75 26.25 18.75C24.5241 18.75 23.125 20.1491 23.125 21.875C23.125 23.6009 24.5241 25 26.25 25Z" fill="white"/>
<path d="M33.75 25C35.4759 25 36.875 23.6009 36.875 21.875C36.875 20.1491 35.4759 18.75 33.75 18.75C32.0241 18.75 30.625 20.1491 30.625 21.875C30.625 23.6009 32.0241 25 33.75 25Z" fill="white"/>
<path d="M39.375 30C41.1009 30 42.5 28.6009 42.5 26.875C42.5 25.1491 41.1009 23.75 39.375 23.75C37.6491 23.75 36.25 25.1491 36.25 26.875C36.25 28.6009 37.6491 30 39.375 30Z" fill="white"/>
<path d="M36.675 33.575C35.5875 32.3 34.675 31.2125 33.575 29.9375C33 29.2625 32.2625 28.5875 31.3875 28.2875C31.25 28.2375 31.1125 28.2 30.975 28.175C30.6625 28.125 30.325 28.125 30 28.125C29.675 28.125 29.3375 28.125 29.0125 28.1875C28.875 28.2125 28.7375 28.25 28.6 28.3C27.725 28.6 27 29.275 26.4125 29.95C25.325 31.225 24.4125 32.3125 23.3125 33.5875C21.675 35.225 19.6625 37.0375 20.0375 39.575C20.4 40.85 21.3125 42.1125 22.95 42.475C23.8625 42.6625 26.775 41.925 29.875 41.925H30.1C33.2 41.925 36.1125 42.65 37.025 42.475C38.6625 42.1125 39.575 40.8375 39.9375 39.575C40.325 37.025 38.3125 35.2125 36.675 33.575V33.575Z" fill="white"/>
</g>
<g clip-path="url(#clip2_212_1920)">
<path d="M140.083 23.4167C135.533 27.9667 135.533 35.3334 140.05 39.8834C142.5 34.2167 146.867 29.4834 152.317 26.6667C147.7 30.5667 144.467 36.0167 143.333 42.2C147.667 44.25 153 43.5 156.583 39.9167C162.383 34.1167 163.333 16.6667 163.333 16.6667C163.333 16.6667 145.883 17.6167 140.083 23.4167Z" fill="white"/>
</g>
<circle cx="90" cy="30" r="30" fill="#FFEDD2"/>
<path d="M89 45.505L86.825 43.5264C79.1 36.5265 74 31.9099 74 26.244C74 21.6274 77.63 18 82.25 18C84.86 18 87.365 19.2141 89 21.1327C90.635 19.2141 93.14 18 95.75 18C100.37 18 104 21.6274 104 26.244C104 31.9099 98.9 36.5265 91.175 43.5414L89 45.505Z" fill="white"/>
<circle cx="210" cy="30" r="30" fill="#EAFFCF"/>
<g clip-path="url(#clip3_212_1920)">
<path d="M222.896 28.0416H220.708V22.2083C220.708 20.6041 219.396 19.2916 217.792 19.2916H211.958V17.1041C211.958 15.0916 210.325 13.4583 208.313 13.4583C206.3 13.4583 204.667 15.0916 204.667 17.1041V19.2916H198.833C197.229 19.2916 195.931 20.6041 195.931 22.2083V27.75H198.104C200.277 27.75 202.042 29.5146 202.042 31.6875C202.042 33.8604 200.277 35.625 198.104 35.625H195.917V41.1666C195.917 42.7708 197.229 44.0833 198.833 44.0833H204.375V41.8958C204.375 39.7229 206.14 37.9583 208.313 37.9583C210.485 37.9583 212.25 39.7229 212.25 41.8958V44.0833H217.792C219.396 44.0833 220.708 42.7708 220.708 41.1666V35.3333H222.896C224.908 35.3333 226.542 33.7 226.542 31.6875C226.542 29.675 224.908 28.0416 222.896 28.0416Z" fill="white"/>
</g>
<circle cx="270" cy="30" r="30" fill="#C1FFF0"/>
<g clip-path="url(#clip4_212_1920)">
<path d="M274.604 28.0417C275.812 28.0417 276.792 27.0623 276.792 25.8542C276.792 24.6461 275.812 23.6667 274.604 23.6667C273.396 23.6667 272.417 24.6461 272.417 25.8542C272.417 27.0623 273.396 28.0417 274.604 28.0417Z" fill="white"/>
<path d="M264.396 28.0417C265.604 28.0417 266.583 27.0623 266.583 25.8542C266.583 24.6461 265.604 23.6667 264.396 23.6667C263.188 23.6667 262.208 24.6461 262.208 25.8542C262.208 27.0623 263.188 28.0417 264.396 28.0417Z" fill="white"/>
<path d="M274.604 28.0417C275.812 28.0417 276.792 27.0623 276.792 25.8542C276.792 24.6461 275.812 23.6667 274.604 23.6667C273.396 23.6667 272.417 24.6461 272.417 25.8542C272.417 27.0623 273.396 28.0417 274.604 28.0417Z" fill="white"/>
<path d="M264.396 28.0417C265.604 28.0417 266.583 27.0623 266.583 25.8542C266.583 24.6461 265.604 23.6667 264.396 23.6667C263.188 23.6667 262.208 24.6461 262.208 25.8542C262.208 27.0623 263.188 28.0417 264.396 28.0417Z" fill="white"/>
<path d="M269.485 14.9167C261.435 14.9167 254.917 21.45 254.917 29.5C254.917 37.55 261.435 44.0834 269.485 44.0834C277.55 44.0834 284.083 37.55 284.083 29.5C284.083 21.45 277.55 14.9167 269.485 14.9167ZM269.5 41.1667C263.054 41.1667 257.833 35.9459 257.833 29.5C257.833 23.0542 263.054 17.8334 269.5 17.8334C275.946 17.8334 281.167 23.0542 281.167 29.5C281.167 35.9459 275.946 41.1667 269.5 41.1667ZM269.5 37.5209C272.898 37.5209 275.8 35.4063 276.967 32.4167H274.531C273.525 34.1521 271.658 35.3334 269.5 35.3334C267.342 35.3334 265.49 34.1521 264.469 32.4167H262.033C263.2 35.4063 266.102 37.5209 269.5 37.5209Z" fill="white"/>
</g>
<circle cx="330" cy="30" r="30" fill="#C5DFFF"/>
<g clip-path="url(#clip5_212_1920)">
<path d="M341.25 18.75H318.75C317.375 18.75 316.25 19.875 316.25 21.25V36.25C316.25 37.625 317.375 38.75 318.75 38.75H325V41.25H335V38.75H341.25C342.625 38.75 343.737 37.625 343.737 36.25L343.75 21.25C343.75 19.875 342.625 18.75 341.25 18.75ZM341.25 36.25H318.75V21.25H341.25V36.25Z" fill="white"/>
</g>
</g>
<defs>
<clipPath id="clip0_212_1920">
<rect width="847" height="60" fill="white"/>
</clipPath>
<clipPath id="clip1_212_1920">
<rect width="30" height="30" fill="white" transform="translate(15 15)"/>
</clipPath>
<clipPath id="clip2_212_1920">
<rect width="40" height="40" fill="white" transform="translate(130 10)"/>
</clipPath>
<clipPath id="clip3_212_1920">
<rect width="35" height="35" fill="white" transform="translate(193 12)"/>
</clipPath>
<clipPath id="clip4_212_1920">
<rect width="35" height="35" fill="white" transform="translate(252 12)"/>
</clipPath>
<clipPath id="clip5_212_1920">
<rect width="30" height="30" fill="white" transform="translate(315 15)"/>
</clipPath>
</defs>
</svg>
